NotoSansMalayalam-CondensedLight.ufo
<glyph name="exclam.mlym" format="2">
  <advance width="192"/>
  <unicode hex="0021"/>
  <outline>
    <contour>
      <point x="84" y="174" type="line"/>
      <point x="108" y="174" type="line"/>
      <point x="110" y="714" type="line"/>
      <point x="82" y="714" type="line"/>
    </contour>
    <contour>
      <point x="95" y="-8" type="curve" smooth="yes"/>
      <point x="119" y="-8"/>
      <point x="122" y="6"/>
      <point x="122" y="23" type="curve" smooth="yes"/>
      <point x="122" y="39"/>
      <point x="119" y="54"/>
      <point x="95" y="54" type="curve" smooth="yes"/>
      <point x="75" y="54"/>
      <point x="70" y="39"/>
      <point x="70" y="23" type="curve" smooth="yes"/>
      <point x="70" y="6"/>
      <point x="75" y="-8"/>
    </contour>
  </outline>
</glyph>
<glyph name="quotesingle.mlym" format="2">
  <advance width="178"/>
  <unicode hex="0027"/>
  <outline>
    <contour>
      <point x="78" y="542" type="line"/>
      <point x="99" y="542" type="line"/>
      <point x="103" y="800" type="line"/>
      <point x="75" y="800" type="line"/>
    </contour>
  </outline>
</glyph>
<glyph name="parenright.mlym" format="2">
  <advance width="274"/>
  <unicode hex="0029"/>
  <outline>
    <contour>
      <point x="214" y="280" type="curve" smooth="yes"/>
      <point x="214" y="491"/>
      <point x="158" y="666"/>
      <point x="62" y="800" type="curve"/>
      <point x="29" y="800" type="line"/>
      <point x="136" y="656"/>
      <point x="187" y="478"/>
      <point x="187" y="279" type="curve" smooth="yes"/>
      <point x="187" y="81"/>
      <point x="136" y="-100"/>
      <point x="29" y="-244" type="curve"/>
      <point x="62" y="-244" type="line"/>
      <point x="158" y="-109"/>
      <point x="214" y="69"/>
    </contour>
  </outline>
</glyph>
<glyph name="plus.mlym" format="2">
  <advance width="399"/>
  <unicode hex="002B"/>
  <outline>
    <contour>
      <point x="187" y="128" type="line"/>
      <point x="213" y="128" type="line"/>
      <point x="213" y="340" type="line"/>
      <point x="366" y="340" type="line"/>
      <point x="366" y="366" type="line"/>
      <point x="213" y="366" type="line"/>
      <point x="213" y="578" type="line"/>
      <point x="187" y="578" type="line"/>
      <point x="187" y="366" type="line"/>
      <point x="32" y="366" type="line"/>
      <point x="32" y="340" type="line"/>
      <point x="187" y="340" type="line"/>
    </contour>
  </outline>
</glyph>
<glyph name="comma.mlym" format="2">
  <advance width="206"/>
  <unicode hex="002C"/>
  <outline>
    <contour>
      <point x="120" y="116" type="line"/>
      <point x="95" y="116" type="line"/>
      <point x="88" y="44"/>
      <point x="65" y="-60"/>
      <point x="38" y="-129" type="curve"/>
      <point x="60" y="-129" type="line"/>
      <point x="90" y="-60"/>
      <point x="115" y="25"/>
      <point x="126" y="107" type="curve"/>
    </contour>
  </outline>
</glyph>
<glyph name="hyphen.mlym" format="2">
  <advance width="304"/>
  <unicode hex="002D"/>
  <outline>
    <contour>
      <point x="38" y="256" type="line"/>
      <point x="266" y="256" type="line"/>
      <point x="266" y="282" type="line"/>
      <point x="38" y="282" type="line"/>
    </contour>
  </outline>
</glyph>
<glyph name="slash.mlym" format="2">
  <advance width="340"/>
  <unicode hex="002F"/>
  <outline>
    <contour>
      <point x="25" y="-244" type="line"/>
      <point x="52" y="-244" type="line"/>
      <point x="315" y="800" type="line"/>
      <point x="288" y="800" type="line"/>
    </contour>
  </outline>
</glyph>
<glyph name="four.mlym" format="2">
  <advance width="399"/>
  <unicode hex="0034"/>
  <outline>
    <contour>
      <point x="271" y="0" type="line"/>
      <point x="297" y="0" type="line"/>
      <point x="297" y="176" type="line"/>
      <point x="382" y="176" type="line"/>
      <point x="382" y="202" type="line"/>
      <point x="297" y="202" type="line"/>
      <point x="297" y="718" type="line"/>
      <point x="269" y="718" type="line"/>
      <point x="21" y="201" type="line"/>
      <point x="21" y="176" type="line"/>
      <point x="271" y="176" type="line"/>
    </contour>
    <contour>
      <point x="50" y="202" type="line"/>
      <point x="228" y="572" type="line" smooth="yes"/>
      <point x="243" y="603"/>
      <point x="258" y="635"/>
      <point x="271" y="670" type="curve"/>
      <point x="272" y="670" type="line"/>
      <point x="271" y="648"/>
      <point x="271" y="635"/>
      <point x="271" y="610" type="curve" smooth="yes"/>
      <point x="271" y="202" type="line"/>
    </contour>
  </outline>
</glyph>
<glyph name="eight.mlym" format="2">
  <advance width="399"/>
  <unicode hex="0038"/>
  <outline>
    <contour>
      <point x="202" y="-10" type="curve" smooth="yes"/>
      <point x="301" y="-10"/>
      <point x="360" y="68"/>
      <point x="360" y="172" type="curve" smooth="yes"/>
      <point x="360" y="270"/>
      <point x="302" y="324"/>
      <point x="222" y="378" type="curve"/>
      <point x="294" y="422"/>
      <point x="345" y="466"/>
      <point x="345" y="566" type="curve" smooth="yes"/>
      <point x="345" y="659"/>
      <point x="294" y="723"/>
      <point x="204" y="723" type="curve" smooth="yes"/>
      <point x="112" y="723"/>
      <point x="56" y="659"/>
      <point x="56" y="565" type="curve" smooth="yes"/>
      <point x="56" y="482"/>
      <point x="104" y="426"/>
      <point x="175" y="379" type="curve"/>
      <point x="101" y="335"/>
      <point x="39" y="275"/>
      <point x="39" y="170" type="curve" smooth="yes"/>
      <point x="39" y="64"/>
      <point x="101" y="-10"/>
    </contour>
    <contour>
      <point x="201" y="16" type="curve" smooth="yes"/>
      <point x="123" y="16"/>
      <point x="66" y="71"/>
      <point x="66" y="169" type="curve" smooth="yes"/>
      <point x="66" y="268"/>
      <point x="128" y="326"/>
      <point x="198" y="365" type="curve"/>
      <point x="212" y="356" type="line" smooth="yes"/>
      <point x="301" y="299"/>
      <point x="333" y="237"/>
      <point x="333" y="170" type="curve" smooth="yes"/>
      <point x="333" y="79"/>
      <point x="283" y="16"/>
    </contour>
    <contour>
      <point x="200" y="391" type="curve"/>
      <point x="124" y="441"/>
      <point x="83" y="490"/>
      <point x="83" y="563" type="curve" smooth="yes"/>
      <point x="83" y="645"/>
      <point x="127" y="697"/>
      <point x="203" y="697" type="curve" smooth="yes"/>
      <point x="277" y="697"/>
      <point x="318" y="647"/>
      <point x="318" y="565" type="curve" smooth="yes"/>
      <point x="318" y="475"/>
      <point x="271" y="436"/>
    </contour>
  </outline>
</glyph>
<glyph name="colon.mlym" format="2">
  <advance width="206"/>
  <unicode hex="003A"/>
  <outline>
    <contour>
      <point x="102" y="-8" type="curve" smooth="yes"/>
      <point x="126" y="-8"/>
      <point x="129" y="6"/>
      <point x="129" y="23" type="curve" smooth="yes"/>
      <point x="129" y="39"/>
      <point x="126" y="54"/>
      <point x="102" y="54" type="curve" smooth="yes"/>
      <point x="82" y="54"/>
      <point x="77" y="39"/>
      <point x="77" y="23" type="curve" smooth="yes"/>
      <point x="77" y="6"/>
      <point x="82" y="-8"/>
    </contour>
    <contour>
      <point x="102" y="480" type="curve" smooth="yes"/>
      <point x="126" y="480"/>
      <point x="129" y="494"/>
      <point x="129" y="511" type="curve" smooth="yes"/>
      <point x="129" y="527"/>
      <point x="126" y="542"/>
      <point x="102" y="542" type="curve" smooth="yes"/>
      <point x="82" y="542"/>
      <point x="77" y="527"/>
      <point x="77" y="511" type="curve" smooth="yes"/>
      <point x="77" y="494"/>
      <point x="82" y="480"/>
    </contour>
  </outline>
</glyph>
<glyph name="semicolon.mlym" format="2">
  <advance width="206"/>
  <unicode hex="003B"/>
  <outline>
    <contour>
      <point x="120" y="116" type="line"/>
      <point x="95" y="116" type="line"/>
      <point x="88" y="44"/>
      <point x="67" y="-59"/>
      <point x="38" y="-129" type="curve"/>
      <point x="60" y="-129" type="line"/>
      <point x="90" y="-60"/>
      <point x="115" y="25"/>
      <point x="126" y="107" type="curve"/>
    </contour>
    <contour>
      <point x="102" y="480" type="curve" smooth="yes"/>
      <point x="126" y="480"/>
      <point x="129" y="494"/>
      <point x="129" y="511" type="curve" smooth="yes"/>
      <point x="129" y="527"/>
      <point x="126" y="542"/>
      <point x="102" y="542" type="curve" smooth="yes"/>
      <point x="82" y="542"/>
      <point x="77" y="527"/>
      <point x="77" y="511" type="curve" smooth="yes"/>
      <point x="77" y="494"/>
      <point x="82" y="480"/>
    </contour>
  </outline>
</glyph>
<glyph name="equal.mlym" format="2">
  <advance width="399"/>
  <unicode hex="003D"/>
  <outline>
    <contour>
      <point x="33" y="235" type="line"/>
      <point x="365" y="235" type="line"/>
      <point x="365" y="261" type="line"/>
      <point x="33" y="261" type="line"/>
    </contour>
    <contour>
      <point x="33" y="444" type="line"/>
      <point x="365" y="444" type="line"/>
      <point x="365" y="470" type="line"/>
      <point x="33" y="470" type="line"/>
    </contour>
  </outline>
</glyph>
<glyph name="greater.mlym" format="2">
  <advance width="399"/>
  <unicode hex="003E"/>
  <outline>
    <contour>
      <point x="32" y="151" type="line"/>
      <point x="367" y="354" type="line"/>
      <point x="367" y="377" type="line"/>
      <point x="32" y="555" type="line"/>
      <point x="32" y="526" type="line"/>
      <point x="339" y="365" type="line"/>
      <point x="32" y="180" type="line"/>
    </contour>
  </outline>
</glyph>
<glyph name="bracketleft.mlym" format="2">
  <advance width="308"/>
  <unicode hex="005B"/>
  <outline>
    <contour>
      <point x="83" y="-244" type="line"/>
      <point x="268" y="-244" type="line"/>
      <point x="268" y="-218" type="line"/>
      <point x="109" y="-218" type="line"/>
      <point x="109" y="773" type="line"/>
      <point x="268" y="773" type="line"/>
      <point x="268" y="799" type="line"/>
      <point x="83" y="799" type="line"/>
    </contour>
  </outline>
</glyph>
<glyph name="backslash.mlym" format="2">
  <advance width="340"/>
  <unicode hex="005C"/>
  <outline>
    <contour>
      <point x="288" y="-245" type="line"/>
      <point x="315" y="-245" type="line"/>
      <point x="52" y="800" type="line"/>
      <point x="25" y="800" type="line"/>
    </contour>
  </outline>
</glyph>
<glyph name="bracketright.mlym" format="2">
  <advance width="308"/>
  <unicode hex="005D"/>
  <outline>
    <contour>
      <point x="40" y="-244" type="line"/>
      <point x="225" y="-244" type="line"/>
      <point x="225" y="800" type="line"/>
      <point x="40" y="800" type="line"/>
      <point x="40" y="774" type="line"/>
      <point x="199" y="774" type="line"/>
      <point x="199" y="-218" type="line"/>
      <point x="40" y="-218" type="line"/>
    </contour>
  </outline>
</glyph>
<glyph name="asciicircum.mlym" format="2">
  <advance width="399"/>
  <unicode hex="005E"/>
  <outline>
    <contour>
      <point x="19" y="372" type="line"/>
      <point x="48" y="372" type="line"/>
      <point x="200" y="688" type="line"/>
      <point x="350" y="372" type="line"/>
      <point x="379" y="372" type="line"/>
      <point x="212" y="719" type="line"/>
      <point x="188" y="719" type="line"/>
    </contour>
  </outline>
</glyph>
<glyph name="uni0307" format="2">
  <unicode hex="0307"/>
  <outline>
    <contour>
      <point x="-304" y="701" type="curve" smooth="yes"/>
      <point x="-304" y="684"/>
      <point x="-299" y="670"/>
      <point x="-279" y="670" type="curve" smooth="yes"/>
      <point x="-255" y="670"/>
      <point x="-252" y="684"/>
      <point x="-252" y="701" type="curve" smooth="yes"/>
      <point x="-252" y="717"/>
      <point x="-255" y="732"/>
      <point x="-279" y="732" type="curve" smooth="yes"/>
      <point x="-299" y="732"/>
      <point x="-304" y="717"/>
    </contour>
  </outline>
</glyph>
<glyph name="uni0323" format="2">
  <unicode hex="0323"/>
  <outline>
    <contour>
      <point x="-304" y="-135" type="curve" smooth="yes"/>
      <point x="-304" y="-152"/>
      <point x="-299" y="-166"/>
      <point x="-279" y="-166" type="curve" smooth="yes"/>
      <point x="-255" y="-166"/>
      <point x="-252" y="-152"/>
      <point x="-252" y="-135" type="curve" smooth="yes"/>
      <point x="-252" y="-119"/>
      <point x="-255" y="-104"/>
      <point x="-279" y="-104" type="curve" smooth="yes"/>
      <point x="-299" y="-104"/>
      <point x="-304" y="-119"/>
    </contour>
  </outline>
</glyph>
<glyph name="uni0951" format="2">
  <unicode hex="0951"/>
  <outline>
    <contour>
      <point x="-292" y="864" type="line"/>
      <point x="-292" y="653" type="line"/>
      <point x="-266" y="653" type="line"/>
      <point x="-266" y="864" type="line"/>
    </contour>
  </outline>
</glyph>
<glyph name="uni0952" format="2">
  <unicode hex="0952"/>
  <outline>
    <contour>
      <point x="-118" y="-157" type="line"/>
      <point x="-118" y="-132" type="line"/>
      <point x="-440" y="-132" type="line"/>
      <point x="-440" y="-157" type="line"/>
    </contour>
  </outline>
</glyph>
<glyph name="danda.mlym" format="2">
  <advance width="245"/>
  <unicode hex="0964"/>
  <outline>
    <contour>
      <point x="146" y="-49" type="line"/>
      <point x="172" y="-49" type="line"/>
      <point x="172" y="595" type="line"/>
      <point x="146" y="595" type="line"/>
    </contour>
  </outline>
</glyph>
<glyph name="dbldanda.mlym" format="2">
  <advance width="395"/>
  <unicode hex="0965"/>
  <outline>
    <contour>
      <point x="296" y="-49" type="line"/>
      <point x="322" y="-49" type="line"/>
      <point x="322" y="595" type="line"/>
      <point x="296" y="595" type="line"/>
    </contour>
    <contour>
      <point x="146" y="-49" type="line"/>
      <point x="172" y="-49" type="line"/>
      <point x="172" y="595" type="line"/>
      <point x="146" y="595" type="line"/>
    </contour>
  </outline>
</glyph>
<glyph name="candrabindumlym" format="2">
  <unicode hex="0D01"/>
  <outline>
    <contour>
      <point x="-279" y="672" type="curve" smooth="yes"/>
      <point x="-214" y="672"/>
      <point x="-162" y="711"/>
      <point x="-162" y="808" type="curve" smooth="yes"/>
      <point x="-162" y="824"/>
      <point x="-164" y="842"/>
      <point x="-168" y="860" type="curve"/>
      <point x="-193" y="856" type="line"/>
      <point x="-190" y="842"/>
      <point x="-188" y="822"/>
      <point x="-188" y="807" type="curve" smooth="yes"/>
      <point x="-188" y="736"/>
      <point x="-217" y="698"/>
      <point x="-279" y="698" type="curve" smooth="yes"/>
      <point x="-337" y="698"/>
      <point x="-368" y="730"/>
      <point x="-368" y="807" type="curve" smooth="yes"/>
      <point x="-368" y="821"/>
      <point x="-366" y="841"/>
      <point x="-363" y="855" type="curve"/>
      <point x="-388" y="859" type="line"/>
      <point x="-392" y="843"/>
      <point x="-394" y="821"/>
      <point x="-394" y="807" type="curve" smooth="yes"/>
      <point x="-394" y="710"/>
      <point x="-345" y="672"/>
    </contour>
    <contour>
      <point x="-278" y="779" type="curve" smooth="yes"/>
      <point x="-256" y="779"/>
      <point x="-252" y="793"/>
      <point x="-252" y="810" type="curve" smooth="yes"/>
      <point x="-252" y="826"/>
      <point x="-255" y="841"/>
      <point x="-278" y="841" type="curve" smooth="yes"/>
      <point x="-299" y="841"/>
      <point x="-304" y="826"/>
      <point x="-304" y="810" type="curve" smooth="yes"/>
      <point x="-304" y="793"/>
      <point x="-299" y="779"/>
    </contour>
  </outline>
</glyph>
<glyph name="anusvaramlym" format="2">
  <advance width="322"/>
  <unicode hex="0D02"/>
  <outline>
    <contour>
      <point x="161" y="-12" type="curve" smooth="yes"/>
      <point x="239" y="-12"/>
      <point x="286" y="51"/>
      <point x="286" y="167" type="curve" smooth="yes"/>
      <point x="286" y="284"/>
      <point x="238" y="344"/>
      <point x="162" y="344" type="curve" smooth="yes"/>
      <point x="83" y="344"/>
      <point x="36" y="281"/>
      <point x="36" y="166" type="curve" smooth="yes"/>
      <point x="36" y="50"/>
      <point x="82" y="-12"/>
    </contour>
    <contour>
      <point x="162" y="318" type="curve" smooth="yes"/>
      <point x="225" y="318"/>
      <point x="259" y="267"/>
      <point x="259" y="167" type="curve" smooth="yes"/>
      <point x="259" y="65"/>
      <point x="224" y="14"/>
      <point x="161" y="14" type="curve" smooth="yes"/>
      <point x="97" y="14"/>
      <point x="63" y="65"/>
      <point x="63" y="166" type="curve" smooth="yes"/>
      <point x="63" y="267"/>
      <point x="98" y="318"/>
    </contour>
  </outline>
</glyph>
<glyph name="visargamlym" format="2">
  <advance width="248"/>
  <unicode hex="0D03"/>
  <outline>
    <contour>
      <point x="34" y="434" type="curve" smooth="yes"/>
      <point x="34" y="354"/>
      <point x="71" y="310"/>
      <point x="124" y="310" type="curve" smooth="yes"/>
      <point x="177" y="310"/>
      <point x="214" y="354"/>
      <point x="214" y="434" type="curve" smooth="yes"/>
      <point x="214" y="514"/>
      <point x="177" y="558"/>
      <point x="124" y="558" type="curve" smooth="yes"/>
      <point x="71" y="558"/>
      <point x="34" y="514"/>
    </contour>
    <contour>
      <point x="61" y="434" type="curve" smooth="yes"/>
      <point x="61" y="499"/>
      <point x="85" y="533"/>
      <point x="124" y="533" type="curve" smooth="yes"/>
      <point x="163" y="533"/>
      <point x="187" y="499"/>
      <point x="187" y="434" type="curve" smooth="yes"/>
      <point x="187" y="369"/>
      <point x="163" y="335"/>
      <point x="124" y="335" type="curve" smooth="yes"/>
      <point x="85" y="335"/>
      <point x="61" y="369"/>
    </contour>
    <contour>
      <point x="34" y="112" type="curve" smooth="yes"/>
      <point x="34" y="32"/>
      <point x="71" y="-12"/>
      <point x="124" y="-12" type="curve" smooth="yes"/>
      <point x="177" y="-12"/>
      <point x="214" y="32"/>
      <point x="214" y="112" type="curve" smooth="yes"/>
      <point x="214" y="192"/>
      <point x="177" y="236"/>
      <point x="124" y="236" type="curve" smooth="yes"/>
      <point x="71" y="236"/>
      <point x="34" y="192"/>
    </contour>
    <contour>
      <point x="61" y="112" type="curve" smooth="yes"/>
      <point x="61" y="177"/>
      <point x="85" y="211"/>
      <point x="124" y="211" type="curve" smooth="yes"/>
      <point x="163" y="211"/>
      <point x="187" y="177"/>
      <point x="187" y="112" type="curve" smooth="yes"/>
      <point x="187" y="47"/>
      <point x="163" y="13"/>
      <point x="124" y="13" type="curve" smooth="yes"/>
      <point x="85" y="13"/>
      <point x="61" y="47"/>
    </contour>
  </outline>
</glyph>
<glyph name="amlym" format="2">
  <advance width="1045"/>
  <unicode hex="0D05"/>
  <outline>
    <contour>
      <point x="271" y="558" type="curve" smooth="yes"/>
      <point x="119" y="558"/>
      <point x="42" y="442"/>
      <point x="42" y="291" type="curve" smooth="yes"/>
      <point x="42" y="132"/>
      <point x="105" y="49"/>
      <point x="156" y="-6" type="curve"/>
      <point x="175" y="12" type="line"/>
      <point x="118" y="73"/>
      <point x="69" y="153"/>
      <point x="69" y="291" type="curve" smooth="yes"/>
      <point x="69" y="421"/>
      <point x="127" y="532"/>
      <point x="272" y="532" type="curve" smooth="yes"/>
      <point x="306" y="532"/>
      <point x="338" y="528"/>
      <point x="368" y="514" type="curve"/>
      <point x="420" y="492"/>
      <point x="459" y="446"/>
      <point x="459" y="374" type="curve" smooth="yes"/>
      <point x="459" y="310"/>
      <point x="427" y="263"/>
      <point x="348" y="263" type="curve" smooth="yes"/>
      <point x="345" y="263" type="line"/>
      <point x="345" y="237" type="line"/>
      <point x="350" y="237" type="line" smooth="yes"/>
      <point x="428" y="237"/>
      <point x="467" y="186"/>
      <point x="467" y="122" type="curve" smooth="yes"/>
      <point x="467" y="49"/>
      <point x="433" y="14"/>
      <point x="374" y="14" type="curve" smooth="yes"/>
      <point x="288" y="14"/>
      <point x="255" y="89"/>
      <point x="255" y="227" type="curve" smooth="yes"/>
      <point x="255" y="335"/>
      <point x="294" y="465"/>
      <point x="387" y="513" type="curve" smooth="yes"/>
      <point x="409" y="525"/>
      <point x="433" y="532"/>
      <point x="467" y="532" type="curve" smooth="yes"/>
      <point x="514" y="532"/>
      <point x="548" y="519"/>
      <point x="572" y="495" type="curve" smooth="yes"/>
      <point x="606" y="461"/>
      <point x="620" y="410"/>
      <point x="620" y="305" type="curve" smooth="yes"/>
      <point x="620" y="0" type="line"/>
      <point x="646" y="0" type="line"/>
      <point x="646" y="306" type="line"/>
      <point x="637" y="386" type="line"/>
      <point x="632" y="489"/>
      <point x="581" y="558"/>
      <point x="470" y="558" type="curve" smooth="yes"/>
      <point x="429" y="558"/>
      <point x="395" y="547"/>
      <point x="363" y="527" type="curve" smooth="yes"/>
      <point x="359" y="524"/>
      <point x="355" y="520"/>
      <point x="351" y="517" type="curve" smooth="yes"/>
      <point x="262" y="458"/>
      <point x="228" y="335"/>
      <point x="228" y="226" type="curve" smooth="yes"/>
      <point x="228" y="69"/>
      <point x="277" y="-12"/>
      <point x="374" y="-12" type="curve" smooth="yes"/>
      <point x="444" y="-12"/>
      <point x="494" y="34"/>
      <point x="494" y="121" type="curve" smooth="yes"/>
      <point x="494" y="201"/>
      <point x="449" y="247"/>
      <point x="370" y="254" type="curve"/>
      <point x="370" y="245" type="line"/>
      <point x="455" y="256"/>
      <point x="486" y="301"/>
      <point x="486" y="374" type="curve" smooth="yes"/>
      <point x="486" y="448"/>
      <point x="449" y="499"/>
      <point x="395" y="528" type="curve"/>
      <point x="392" y="530"/>
      <point x="389" y="532"/>
      <point x="386" y="533" type="curve"/>
      <point x="351" y="552"/>
      <point x="311" y="558"/>
    </contour>
    <contour>
      <point x="875" y="-12" type="curve" smooth="yes"/>
      <point x="950" y="-12"/>
      <point x="1003" y="41"/>
      <point x="1003" y="236" type="curve" smooth="yes"/>
      <point x="1003" y="428"/>
      <point x="931" y="558"/>
      <point x="784" y="558" type="curve" smooth="yes"/>
      <point x="694" y="558"/>
      <point x="633" y="507"/>
      <point x="625" y="385" type="curve"/>
      <point x="646" y="262" type="line"/>
      <point x="646" y="338" type="line" smooth="yes"/>
      <point x="646" y="429"/>
      <point x="664" y="476"/>
      <point x="695" y="503" type="curve" smooth="yes"/>
      <point x="716" y="522"/>
      <point x="743" y="532"/>
      <point x="784" y="532" type="curve" smooth="yes"/>
      <point x="910" y="532"/>
      <point x="956" y="426"/>
      <point x="975" y="314" type="curve" smooth="yes"/>
      <point x="976" y="308"/>
      <point x="975" y="309"/>
      <point x="974" y="306" type="curve"/>
      <point x="976" y="295"/>
      <point x="977" y="258"/>
      <point x="977" y="236" type="curve" smooth="yes"/>
      <point x="977" y="66"/>
      <point x="938" y="14"/>
      <point x="876" y="14" type="curve" smooth="yes"/>
      <point x="802" y="14"/>
      <point x="776" y="80"/>
      <point x="776" y="188" type="curve" smooth="yes"/>
      <point x="776" y="297"/>
      <point x="808" y="354"/>
      <point x="879" y="354" type="curve" smooth="yes"/>
      <point x="936" y="354"/>
      <point x="965" y="316"/>
      <point x="991" y="271" type="curve"/>
      <point x="996" y="295" type="line"/>
      <point x="975" y="339"/>
      <point x="938" y="380"/>
      <point x="877" y="380" type="curve" smooth="yes"/>
      <point x="801" y="380"/>
      <point x="749" y="321"/>
      <point x="749" y="189" type="curve" smooth="yes"/>
      <point x="749" y="64"/>
      <point x="787" y="-12"/>
    </contour>
  </outline>
</glyph>
<glyph name="aamlym" format="2">
  <advance width="1144"/>
  <unicode hex="0D06"/>
  <outline>
    <contour>
      <point x="271" y="558" type="curve" smooth="yes"/>
      <point x="119" y="558"/>
      <point x="42" y="442"/>
      <point x="42" y="291" type="curve" smooth="yes"/>
      <point x="42" y="132"/>
      <point x="105" y="49"/>
      <point x="156" y="-6" type="curve"/>
      <point x="175" y="12" type="line"/>
      <point x="118" y="73"/>
      <point x="69" y="153"/>
      <point x="69" y="291" type="curve" smooth="yes"/>
      <point x="69" y="421"/>
      <point x="127" y="532"/>
      <point x="272" y="532" type="curve" smooth="yes"/>
      <point x="306" y="532"/>
      <point x="338" y="528"/>
      <point x="368" y="514" type="curve"/>
      <point x="420" y="492"/>
      <point x="459" y="446"/>
      <point x="459" y="374" type="curve" smooth="yes"/>
      <point x="459" y="310"/>
      <point x="427" y="263"/>
      <point x="348" y="263" type="curve" smooth="yes"/>
      <point x="345" y="263" type="line"/>
      <point x="345" y="237" type="line"/>
      <point x="350" y="237" type="line" smooth="yes"/>
      <point x="428" y="237"/>
      <point x="467" y="186"/>
      <point x="467" y="122" type="curve" smooth="yes"/>
      <point x="467" y="49"/>
      <point x="433" y="14"/>
      <point x="374" y="14" type="curve" smooth="yes"/>
      <point x="288" y="14"/>
      <point x="255" y="89"/>
      <point x="255" y="227" type="curve" smooth="yes"/>
      <point x="255" y="335"/>
      <point x="294" y="465"/>
      <point x="387" y="513" type="curve" smooth="yes"/>
      <point x="409" y="525"/>
      <point x="433" y="532"/>
      <point x="467" y="532" type="curve" smooth="yes"/>
      <point x="514" y="532"/>
      <point x="548" y="519"/>
      <point x="572" y="495" type="curve" smooth="yes"/>
      <point x="606" y="461"/>
      <point x="620" y="410"/>
      <point x="620" y="305" type="curve" smooth="yes"/>
      <point x="620" y="0" type="line"/>
      <point x="646" y="0" type="line"/>
      <point x="646" y="306" type="line"/>
      <point x="637" y="386" type="line"/>
      <point x="632" y="489"/>
      <point x="581" y="558"/>
      <point x="470" y="558" type="curve" smooth="yes"/>
      <point x="429" y="558"/>
      <point x="395" y="547"/>
      <point x="363" y="527" type="curve" smooth="yes"/>
      <point x="359" y="524"/>
      <point x="355" y="520"/>
      <point x="351" y="517" type="curve" smooth="yes"/>
      <point x="262" y="458"/>
      <point x="228" y="335"/>
      <point x="228" y="226" type="curve" smooth="yes"/>
      <point x="228" y="69"/>
      <point x="277" y="-12"/>
      <point x="374" y="-12" type="curve" smooth="yes"/>
      <point x="444" y="-12"/>
      <point x="494" y="34"/>
      <point x="494" y="121" type="curve" smooth="yes"/>
      <point x="494" y="201"/>
      <point x="449" y="247"/>
      <point x="370" y="254" type="curve"/>
      <point x="370" y="245" type="line"/>
      <point x="455" y="256"/>
      <point x="486" y="301"/>
      <point x="486" y="374" type="curve" smooth="yes"/>
      <point x="486" y="448"/>
      <point x="449" y="499"/>
      <point x="395" y="528" type="curve" smooth="yes"/>
      <point x="392" y="530"/>
      <point x="389" y="532"/>
      <point x="386" y="533" type="curve" smooth="yes"/>
      <point x="351" y="552"/>
      <point x="311" y="558"/>
    </contour>
    <contour>
      <point x="782" y="558" type="curve" smooth="yes"/>
      <point x="696" y="558"/>
      <point x="634" y="508"/>
      <point x="627" y="386" type="curve"/>
      <point x="646" y="262" type="line"/>
      <point x="646" y="338" type="line" smooth="yes"/>
      <point x="646" y="429"/>
      <point x="664" y="476"/>
      <point x="695" y="503" type="curve" smooth="yes"/>
      <point x="716" y="522"/>
      <point x="743" y="532"/>
      <point x="781" y="532" type="curve" smooth="yes"/>
      <point x="891" y="532"/>
      <point x="936" y="441"/>
      <point x="955" y="345" type="curve" smooth="yes"/>
      <point x="957" y="334" type="line" smooth="yes"/>
      <point x="963" y="296"/>
      <point x="965" y="258"/>
      <point x="965" y="224" type="curve" smooth="yes"/>
      <point x="965" y="82"/>
      <point x="930" y="14"/>
      <point x="860" y="14" type="curve" smooth="yes"/>
      <point x="787" y="14"/>
      <point x="769" y="83"/>
      <point x="769" y="160" type="curve" smooth="yes"/>
      <point x="769" y="283"/>
      <point x="832" y="331"/>
      <point x="922" y="331" type="curve" smooth="yes"/>
      <point x="937" y="331"/>
      <point x="950" y="329"/>
      <point x="963" y="326" type="curve" smooth="yes"/>
      <point x="976" y="323" type="line"/>
      <point x="1059" y="291"/>
      <point x="1090" y="179"/>
      <point x="1090" y="85" type="curve" smooth="yes"/>
      <point x="1090" y="-77"/>
      <point x="1030" y="-175"/>
      <point x="888" y="-175" type="curve" smooth="yes"/>
      <point x="853" y="-175"/>
      <point x="825" y="-169"/>
      <point x="800" y="-161" type="curve"/>
      <point x="792" y="-186" type="line"/>
      <point x="827" y="-197"/>
      <point x="857" y="-201"/>
      <point x="889" y="-201" type="curve" smooth="yes"/>
      <point x="1036" y="-201"/>
      <point x="1117" y="-101"/>
      <point x="1117" y="84" type="curve" smooth="yes"/>
      <point x="1117" y="204"/>
      <point x="1073" y="319"/>
      <point x="974" y="350" type="curve"/>
      <point x="961" y="352" type="line" smooth="yes"/>
      <point x="948" y="355"/>
      <point x="934" y="357"/>
      <point x="919" y="357" type="curve" smooth="yes"/>
      <point x="811" y="357"/>
      <point x="742" y="288"/>
      <point x="742" y="159" type="curve" smooth="yes"/>
      <point x="742" y="69"/>
      <point x="772" y="-12"/>
      <point x="859" y="-12" type="curve" smooth="yes"/>
      <point x="933" y="-12"/>
      <point x="992" y="46"/>
      <point x="992" y="224" type="curve" smooth="yes"/>
      <point x="992" y="258"/>
      <point x="989" y="299"/>
      <point x="983" y="337" type="curve" smooth="yes"/>
      <point x="964" y="449"/>
      <point x="911" y="558"/>
    </contour>
  </outline>
</glyph>
<glyph name="imlym" format="2">
  <advance width="678"/>
  <unicode hex="0D07"/>
  <outline>
    <contour>
      <point x="225" y="558" type="curve" smooth="yes"/>
      <point x="103" y="558"/>
      <point x="40" y="437"/>
      <point x="40" y="301" type="curve" smooth="yes"/>
      <point x="40" y="162"/>
      <point x="81" y="102"/>
      <point x="156" y="102" type="curve" smooth="yes"/>
      <point x="216" y="102"/>
      <point x="254" y="155"/>
      <point x="254" y="249" type="curve" smooth="yes"/>
      <point x="254" y="324"/>
      <point x="222" y="385"/>
      <point x="154" y="385" type="curve" smooth="yes"/>
      <point x="108" y="385"/>
      <point x="76" y="362"/>
      <point x="46" y="325" type="curve"/>
      <point x="54" y="303" type="line"/>
      <point x="83" y="338"/>
      <point x="114" y="359"/>
      <point x="153" y="359" type="curve" smooth="yes"/>
      <point x="208" y="359"/>
      <point x="227" y="308"/>
      <point x="227" y="249" type="curve" smooth="yes"/>
      <point x="227" y="171"/>
      <point x="202" y="128"/>
      <point x="154" y="128" type="curve" smooth="yes"/>
      <point x="91" y="128"/>
      <point x="66" y="186"/>
      <point x="66" y="300" type="curve" smooth="yes"/>
      <point x="66" y="310"/>
      <point x="66" y="322"/>
      <point x="67" y="329" type="curve" smooth="yes"/>
      <point x="67" y="332"/>
      <point x="67" y="337"/>
      <point x="68" y="340" type="curve"/>
      <point x="75" y="425"/>
      <point x="119" y="532"/>
      <point x="224" y="532" type="curve" smooth="yes"/>
      <point x="265" y="532"/>
      <point x="291" y="522"/>
      <point x="310" y="504" type="curve" smooth="yes"/>
      <point x="346" y="471"/>
      <point x="356" y="418"/>
      <point x="356" y="325" type="curve" smooth="yes"/>
      <point x="356" y="109" type="line"/>
      <point x="382" y="109" type="line"/>
      <point x="382" y="335" type="line" smooth="yes"/>
      <point x="382" y="422"/>
      <point x="393" y="472"/>
      <point x="423" y="505" type="curve" smooth="yes"/>
      <point x="439" y="522"/>
      <point x="458" y="532"/>
      <point x="486" y="532" type="curve" smooth="yes"/>
      <point x="572" y="532"/>
      <point x="609" y="422"/>
      <point x="609" y="304" type="curve" smooth="yes"/>
      <point x="609" y="205"/>
      <point x="590" y="121"/>
      <point x="539" y="77" type="curve" smooth="yes"/>
      <point x="499" y="42"/>
      <point x="447" y="26"/>
      <point x="328" y="26" type="curve" smooth="yes"/>
      <point x="219" y="26" type="line" smooth="yes"/>
      <point x="137" y="26"/>
      <point x="100" y="15"/>
      <point x="72" y="-13" type="curve" smooth="yes"/>
      <point x="54" y="-31"/>
      <point x="45" y="-56"/>
      <point x="45" y="-86" type="curve" smooth="yes"/>
      <point x="45" y="-123"/>
      <point x="59" y="-151"/>
      <point x="84" y="-170" type="curve" smooth="yes"/>
      <point x="114" y="-193"/>
      <point x="151" y="-201"/>
      <point x="211" y="-201" type="curve" smooth="yes"/>
      <point x="624" y="-201" type="line"/>
      <point x="624" y="-175" type="line"/>
      <point x="218" y="-175" type="line" smooth="yes"/>
      <point x="157" y="-175"/>
      <point x="123" y="-168"/>
      <point x="100" y="-150" type="curve" smooth="yes"/>
      <point x="82" y="-136"/>
      <point x="72" y="-115"/>
      <point x="72" y="-86" type="curve" smooth="yes"/>
      <point x="72" y="-62"/>
      <point x="79" y="-43"/>
      <point x="91" y="-30" type="curve" smooth="yes"/>
      <point x="115" y="-5"/>
      <point x="154" y="0"/>
      <point x="222" y="0" type="curve" smooth="yes"/>
      <point x="327" y="0" type="line" smooth="yes"/>
      <point x="448" y="0"/>
      <point x="507" y="16"/>
      <point x="555" y="57" type="curve" smooth="yes"/>
      <point x="615" y="109"/>
      <point x="636" y="199"/>
      <point x="636" y="305" type="curve" smooth="yes"/>
      <point x="636" y="439"/>
      <point x="587" y="558"/>
      <point x="487" y="558" type="curve" smooth="yes"/>
      <point x="422" y="558"/>
      <point x="380" y="518"/>
      <point x="366" y="423" type="curve"/>
      <point x="373" y="413" type="line"/>
      <point x="362" y="506"/>
      <point x="316" y="558"/>
    </contour>
  </outline>
</glyph>
<glyph name="umlym" format="2">
  <advance width="482"/>
  <unicode hex="0D09"/>
  <outline>
    <contour>
      <point x="244" y="558" type="curve" smooth="yes"/>
      <point x="106" y="558"/>
      <point x="40" y="439"/>
      <point x="40" y="301" type="curve" smooth="yes"/>
      <point x="40" y="162"/>
      <point x="81" y="102"/>
      <point x="156" y="102" type="curve" smooth="yes"/>
      <point x="216" y="102"/>
      <point x="254" y="155"/>
      <point x="254" y="249" type="curve" smooth="yes"/>
      <point x="254" y="324"/>
      <point x="222" y="385"/>
      <point x="154" y="385" type="curve" smooth="yes"/>
      <point x="108" y="385"/>
      <point x="76" y="362"/>
      <point x="46" y="325" type="curve"/>
      <point x="54" y="303" type="line"/>
      <point x="83" y="338"/>
      <point x="114" y="359"/>
      <point x="153" y="359" type="curve" smooth="yes"/>
      <point x="208" y="359"/>
      <point x="227" y="308"/>
      <point x="227" y="249" type="curve" smooth="yes"/>
      <point x="227" y="171"/>
      <point x="202" y="128"/>
      <point x="154" y="128" type="curve" smooth="yes"/>
      <point x="91" y="128"/>
      <point x="66" y="186"/>
      <point x="66" y="300" type="curve" smooth="yes"/>
      <point x="66" y="310"/>
      <point x="66" y="322"/>
      <point x="67" y="329" type="curve" smooth="yes"/>
      <point x="67" y="332"/>
      <point x="67" y="337"/>
      <point x="68" y="340" type="curve"/>
      <point x="75" y="427"/>
      <point x="122" y="532"/>
      <point x="245" y="532" type="curve" smooth="yes"/>
      <point x="355" y="532"/>
      <point x="413" y="433"/>
      <point x="413" y="285" type="curve" smooth="yes"/>
      <point x="413" y="192"/>
      <point x="402" y="123"/>
      <point x="364" y="80" type="curve" smooth="yes"/>
      <point x="333" y="45"/>
      <point x="290" y="27"/>
      <point x="205" y="26" type="curve"/>
      <point x="203" y="26" type="line"/>
      <point x="139" y="25"/>
      <point x="100" y="15"/>
      <point x="72" y="-13" type="curve" smooth="yes"/>
      <point x="54" y="-31"/>
      <point x="45" y="-56"/>
      <point x="45" y="-86" type="curve" smooth="yes"/>
      <point x="45" y="-123"/>
      <point x="59" y="-151"/>
      <point x="84" y="-170" type="curve" smooth="yes"/>
      <point x="114" y="-193"/>
      <point x="151" y="-201"/>
      <point x="211" y="-201" type="curve" smooth="yes"/>
      <point x="427" y="-201" type="line"/>
      <point x="427" y="-175" type="line"/>
      <point x="218" y="-175" type="line" smooth="yes"/>
      <point x="157" y="-175"/>
      <point x="123" y="-168"/>
      <point x="100" y="-150" type="curve" smooth="yes"/>
      <point x="82" y="-136"/>
      <point x="72" y="-115"/>
      <point x="72" y="-86" type="curve" smooth="yes"/>
      <point x="72" y="-62"/>
      <point x="79" y="-43"/>
      <point x="91" y="-30" type="curve" smooth="yes"/>
      <point x="115" y="-5"/>
      <point x="155" y="-1"/>
      <point x="196" y="0" type="curve"/>
      <point x="202" y="0" type="line"/>
      <point x="293" y="0"/>
      <point x="348" y="21"/>
      <point x="385" y="64" type="curve" smooth="yes"/>
      <point x="425" y="111"/>
      <point x="440" y="178"/>
      <point x="440" y="284" type="curve" smooth="yes"/>
      <point x="440" y="450"/>
      <point x="369" y="558"/>
    </contour>
  </outline>
</glyph>
<glyph name="rvocalicmlym" format="2">
  <advance width="621"/>
  <unicode hex="0D0B"/>
  <outline>
    <contour>
      <point x="462" y="558" type="curve" smooth="yes"/>
      <point x="396" y="558"/>
      <point x="355" y="497"/>
      <point x="355" y="412" type="curve" smooth="yes"/>
      <point x="355" y="331"/>
      <point x="393" y="276"/>
      <point x="463" y="276" type="curve" smooth="yes"/>
      <point x="509" y="276"/>
      <point x="543" y="298"/>
      <point x="572" y="331" type="curve"/>
      <point x="564" y="356" type="line"/>
      <point x="538" y="323"/>
      <point x="509" y="302"/>
      <point x="464" y="302" type="curve" smooth="yes"/>
      <point x="411" y="302"/>
      <point x="382" y="339"/>
      <point x="382" y="412" type="curve" smooth="yes"/>
      <point x="382" y="482"/>
      <point x="410" y="532"/>
      <point x="462" y="532" type="curve" smooth="yes"/>
      <point x="527" y="532"/>
      <point x="556" y="468"/>
      <point x="556" y="364" type="curve" smooth="yes"/>
      <point x="556" y="351"/>
      <point x="555" y="339"/>
      <point x="554" y="328" type="curve" smooth="yes"/>
      <point x="553" y="316" type="line" smooth="yes"/>
      <point x="535" y="178"/>
      <point x="435" y="123"/>
      <point x="314" y="123" type="curve" smooth="yes"/>
      <point x="307" y="123" type="line" smooth="yes"/>
      <point x="186" y="123"/>
      <point x="86" y="178"/>
      <point x="68" y="316" type="curve"/>
      <point x="67" y="328" type="line"/>
      <point x="66" y="339"/>
      <point x="65" y="351"/>
      <point x="65" y="361" type="curve" smooth="yes"/>
      <point x="65" y="464"/>
      <point x="96" y="532"/>
      <point x="163" y="532" type="curve" smooth="yes"/>
      <point x="211" y="532"/>
      <point x="239" y="489"/>
      <point x="239" y="418" type="curve" smooth="yes"/>
      <point x="239" y="339"/>
      <point x="209" y="302"/>
      <point x="153" y="302" type="curve" smooth="yes"/>
      <point x="111" y="302"/>
      <point x="82" y="323"/>
      <point x="56" y="356" type="curve"/>
      <point x="48" y="331" type="line"/>
      <point x="77" y="298"/>
      <point x="112" y="276"/>
      <point x="154" y="276" type="curve" smooth="yes"/>
      <point x="225" y="276"/>
      <point x="266" y="330"/>
      <point x="266" y="417" type="curve" smooth="yes"/>
      <point x="266" y="500"/>
      <point x="228" y="558"/>
      <point x="163" y="558" type="curve" smooth="yes"/>
      <point x="85" y="558"/>
      <point x="40" y="487"/>
      <point x="40" y="362" type="curve" smooth="yes"/>
      <point x="40" y="298"/>
      <point x="54" y="244"/>
      <point x="80" y="203" type="curve" smooth="yes"/>
      <point x="120" y="141"/>
      <point x="191" y="107"/>
      <point x="287" y="107" type="curve" smooth="yes"/>
      <point x="334" y="107" type="line" smooth="yes"/>
      <point x="430" y="107"/>
      <point x="501" y="141"/>
      <point x="541" y="203" type="curve" smooth="yes"/>
      <point x="567" y="244"/>
      <point x="581" y="298"/>
      <point x="581" y="364" type="curve" smooth="yes"/>
      <point x="581" y="490"/>
      <point x="538" y="558"/>
    </contour>
    <contour>
      <point x="310" y="-203" type="curve" smooth="yes"/>
      <point x="484" y="-203"/>
      <point x="559" y="-142"/>
      <point x="559" y="-38" type="curve" smooth="yes"/>
      <point x="559" y="73"/>
      <point x="462" y="114"/>
      <point x="343" y="114" type="curve" smooth="yes"/>
      <point x="278" y="114" type="line" smooth="yes"/>
      <point x="159" y="114"/>
      <point x="62" y="73"/>
      <point x="62" y="-39" type="curve" smooth="yes"/>
      <point x="62" y="-146"/>
      <point x="140" y="-203"/>
    </contour>
    <contour>
      <point x="311" y="-177" type="curve" smooth="yes"/>
      <point x="156" y="-177"/>
      <point x="89" y="-131"/>
      <point x="89" y="-39" type="curve" smooth="yes"/>
      <point x="89" y="51"/>
      <point x="162" y="98"/>
      <point x="309" y="98" type="curve" smooth="yes"/>
      <point x="312" y="98" type="line" smooth="yes"/>
      <point x="459" y="98"/>
      <point x="532" y="51"/>
      <point x="532" y="-39" type="curve" smooth="yes"/>
      <point x="532" y="-131"/>
      <point x="462" y="-177"/>
    </contour>
  </outline>
</glyph>
<glyph name="lvocalicmlym" format="2">
  <advance width="798"/>
  <unicode hex="0D0C"/>
  <outline>
    <contour>
      <point x="245" y="558" type="curve" smooth="yes"/>
      <point x="129" y="558"/>
      <point x="44" y="440"/>
      <point x="44" y="225" type="curve" smooth="yes"/>
      <point x="44" y="39"/>
      <point x="96" y="-12"/>
      <point x="168" y="-12" type="curve" smooth="yes"/>
      <point x="225" y="-12"/>
      <point x="273" y="29"/>
      <point x="273" y="151" type="curve" smooth="yes"/>
      <point x="273" y="257"/>
      <point x="225" y="302"/>
      <point x="165" y="302" type="curve" smooth="yes"/>
      <point x="125" y="302"/>
      <point x="90" y="284"/>
      <point x="49" y="235" type="curve"/>
      <point x="58" y="212" type="line"/>
      <point x="89" y="252"/>
      <point x="120" y="276"/>
      <point x="165" y="276" type="curve" smooth="yes"/>
      <point x="220" y="276"/>
      <point x="246" y="229"/>
      <point x="246" y="151" type="curve" smooth="yes"/>
      <point x="246" y="42"/>
      <point x="210" y="14"/>
      <point x="168" y="14" type="curve" smooth="yes"/>
      <point x="106" y="14"/>
      <point x="70" y="66"/>
      <point x="70" y="222" type="curve" smooth="yes"/>
      <point x="70" y="237" type="line" smooth="yes"/>
      <point x="70" y="414"/>
      <point x="140" y="532"/>
      <point x="245" y="532" type="curve" smooth="yes"/>
      <point x="282" y="532"/>
      <point x="308" y="522"/>
      <point x="327" y="504" type="curve" smooth="yes"/>
      <point x="363" y="471"/>
      <point x="373" y="418"/>
      <point x="373" y="325" type="curve" smooth="yes"/>
      <point x="373" y="0" type="line"/>
      <point x="399" y="0" type="line"/>
      <point x="399" y="295" type="line"/>
      <point x="392" y="370" type="line"/>
      <point x="390" y="413" type="line"/>
      <point x="379" y="506"/>
      <point x="333" y="558"/>
    </contour>
    <contour>
      <point x="628" y="-12" type="curve" smooth="yes"/>
      <point x="703" y="-12"/>
      <point x="756" y="41"/>
      <point x="756" y="236" type="curve" smooth="yes"/>
      <point x="756" y="428"/>
      <point x="684" y="558"/>
      <point x="537" y="558" type="curve" smooth="yes"/>
      <point x="447" y="558"/>
      <point x="386" y="507"/>
      <point x="378" y="385" type="curve"/>
      <point x="399" y="262" type="line"/>
      <point x="399" y="338" type="line" smooth="yes"/>
      <point x="399" y="429"/>
      <point x="417" y="476"/>
      <point x="448" y="503" type="curve" smooth="yes"/>
      <point x="469" y="522"/>
      <point x="496" y="532"/>
      <point x="537" y="532" type="curve" smooth="yes"/>
      <point x="663" y="532"/>
      <point x="709" y="426"/>
      <point x="728" y="314" type="curve" smooth="yes"/>
      <point x="729" y="308"/>
      <point x="728" y="309"/>
      <point x="727" y="306" type="curve"/>
      <point x="729" y="295"/>
      <point x="730" y="258"/>
      <point x="730" y="236" type="curve" smooth="yes"/>
      <point x="730" y="66"/>
      <point x="691" y="14"/>
      <point x="629" y="14" type="curve" smooth="yes"/>
      <point x="555" y="14"/>
      <point x="529" y="80"/>
      <point x="529" y="188" type="curve" smooth="yes"/>
      <point x="529" y="297"/>
      <point x="561" y="354"/>
      <point x="632" y="354" type="curve" smooth="yes"/>
      <point x="689" y="354"/>
      <point x="718" y="316"/>
      <point x="744" y="271" type="curve"/>
      <point x="749" y="295" type="line"/>
      <point x="728" y="339"/>
      <point x="691" y="380"/>
      <point x="630" y="380" type="curve" smooth="yes"/>
      <point x="554" y="380"/>
      <point x="502" y="321"/>
      <point x="502" y="189" type="curve" smooth="yes"/>
      <point x="502" y="64"/>
      <point x="540" y="-12"/>
    </contour>
  </outline>
</glyph>
<glyph name="emlym" format="2">
  <advance width="868"/>
  <unicode hex="0D0E"/>
  <outline>
    <contour>
      <point x="159" y="327" type="curve" smooth="yes"/>
      <point x="85" y="327"/>
      <point x="34" y="267"/>
      <point x="34" y="173" type="curve" smooth="yes"/>
      <point x="34" y="95"/>
      <point x="66" y="40"/>
      <point x="103" y="-8" type="curve"/>
      <point x="123" y="9" type="line"/>
      <point x="91" y="49"/>
      <point x="61" y="101"/>
      <point x="61" y="172" type="curve" smooth="yes"/>
      <point x="61" y="251"/>
      <point x="96" y="301"/>
      <point x="159" y="301" type="curve" smooth="yes"/>
      <point x="217" y="301"/>
      <point x="257" y="261"/>
      <point x="257" y="170" type="curve" smooth="yes"/>
      <point x="257" y="114"/>
      <point x="236" y="60"/>
      <point x="203" y="19" type="curve"/>
      <point x="217" y="0" type="line"/>
      <point x="607" y="0" type="line"/>
      <point x="605" y="26" type="line"/>
      <point x="228" y="26" type="line"/>
      <point x="224" y="10" type="line"/>
      <point x="260" y="50"/>
      <point x="284" y="108"/>
      <point x="284" y="171" type="curve" smooth="yes"/>
      <point x="284" y="273"/>
      <point x="232" y="327"/>
    </contour>
    <contour>
      <point x="617" y="558" type="curve" smooth="yes"/>
      <point x="489" y="558"/>
      <point x="400" y="431"/>
      <point x="400" y="145" type="curve" smooth="yes"/>
      <point x="400" y="-136"/>
      <point x="451" y="-228"/>
      <point x="535" y="-228" type="curve" smooth="yes"/>
      <point x="556" y="-228"/>
      <point x="574" y="-221"/>
      <point x="586" y="-211" type="curve" smooth="yes"/>
      <point x="611" y="-191"/>
      <point x="620" y="-160"/>
      <point x="620" y="-102" type="curve" smooth="yes"/>
      <point x="620" y="415" type="line"/>
      <point x="594" y="415" type="line"/>
      <point x="594" y="-94" type="line" smooth="yes"/>
      <point x="594" y="-148"/>
      <point x="588" y="-175"/>
      <point x="571" y="-190" type="curve" smooth="yes"/>
      <point x="562" y="-198"/>
      <point x="550" y="-202"/>
      <point x="535" y="-202" type="curve" smooth="yes"/>
      <point x="478" y="-202"/>
      <point x="443" y="-144"/>
      <point x="431" y="10" type="curve" smooth="yes"/>
      <point x="431" y="13"/>
      <point x="430" y="18"/>
      <point x="430" y="21" type="curve" smooth="yes"/>
      <point x="427" y="57"/>
      <point x="426" y="99"/>
      <point x="426" y="146" type="curve" smooth="yes"/>
      <point x="426" y="405"/>
      <point x="502" y="532"/>
      <point x="617" y="532" type="curve" smooth="yes"/>
      <point x="749" y="532"/>
      <point x="797" y="385"/>
      <point x="797" y="192" type="curve" smooth="yes"/>
      <point x="797" y="11"/>
      <point x="750" y="-114"/>
      <point x="682" y="-214" type="curve"/>
      <point x="704" y="-228" type="line"/>
      <point x="775" y="-124"/>
      <point x="824" y="8"/>
      <point x="824" y="193" type="curve" smooth="yes"/>
      <point x="824" y="410"/>
      <point x="762" y="558"/>
    </contour>
  </outline>
</glyph>
<glyph name="eemlym" format="2">
  <advance width="867"/>
  <unicode hex="0D0F"/>
  <outline>
    <contour>
      <point x="159" y="327" type="curve" smooth="yes"/>
      <point x="85" y="327"/>
      <point x="34" y="267"/>
      <point x="34" y="173" type="curve" smooth="yes"/>
      <point x="34" y="95"/>
      <point x="66" y="40"/>
      <point x="103" y="-8" type="curve"/>
      <point x="123" y="9" type="line"/>
      <point x="91" y="49"/>
      <point x="61" y="101"/>
      <point x="61" y="172" type="curve" smooth="yes"/>
      <point x="61" y="251"/>
      <point x="96" y="301"/>
      <point x="159" y="301" type="curve" smooth="yes"/>
      <point x="217" y="301"/>
      <point x="257" y="261"/>
      <point x="257" y="170" type="curve" smooth="yes"/>
      <point x="257" y="114"/>
      <point x="236" y="60"/>
      <point x="203" y="19" type="curve"/>
      <point x="217" y="0" type="line"/>
      <point x="607" y="0" type="line"/>
      <point x="605" y="26" type="line"/>
      <point x="228" y="26" type="line"/>
      <point x="224" y="10" type="line"/>
      <point x="260" y="50"/>
      <point x="284" y="108"/>
      <point x="284" y="171" type="curve" smooth="yes"/>
      <point x="284" y="273"/>
      <point x="232" y="327"/>
    </contour>
    <contour>
      <point x="643" y="558" type="curve" smooth="yes"/>
      <point x="495" y="558"/>
      <point x="400" y="431"/>
      <point x="400" y="145" type="curve" smooth="yes"/>
      <point x="400" y="-136"/>
      <point x="451" y="-228"/>
      <point x="535" y="-228" type="curve" smooth="yes"/>
      <point x="556" y="-228"/>
      <point x="574" y="-221"/>
      <point x="586" y="-211" type="curve" smooth="yes"/>
      <point x="611" y="-191"/>
      <point x="620" y="-160"/>
      <point x="620" y="-102" type="curve" smooth="yes"/>
      <point x="620" y="415" type="line"/>
      <point x="594" y="415" type="line"/>
      <point x="594" y="-94" type="line" smooth="yes"/>
      <point x="594" y="-148"/>
      <point x="588" y="-175"/>
      <point x="571" y="-190" type="curve" smooth="yes"/>
      <point x="562" y="-198"/>
      <point x="550" y="-202"/>
      <point x="535" y="-202" type="curve" smooth="yes"/>
      <point x="478" y="-202"/>
      <point x="443" y="-144"/>
      <point x="431" y="10" type="curve" smooth="yes"/>
      <point x="431" y="13"/>
      <point x="430" y="18"/>
      <point x="430" y="21" type="curve" smooth="yes"/>
      <point x="427" y="57"/>
      <point x="426" y="99"/>
      <point x="426" y="146" type="curve" smooth="yes"/>
      <point x="426" y="405"/>
      <point x="504" y="532"/>
      <point x="643" y="532" type="curve" smooth="yes"/>
      <point x="748" y="532"/>
      <point x="799" y="448"/>
      <point x="799" y="342" type="curve" smooth="yes"/>
      <point x="799" y="222"/>
      <point x="744" y="173"/>
      <point x="676" y="148" type="curve"/>
      <point x="676" y="122" type="line"/>
      <point x="757" y="115"/>
      <point x="806" y="56"/>
      <point x="806" y="-44" type="curve" smooth="yes"/>
      <point x="806" y="-170"/>
      <point x="763" y="-202"/>
      <point x="702" y="-202" type="curve" smooth="yes"/>
      <point x="684" y="-202"/>
      <point x="666" y="-200"/>
      <point x="652" y="-196" type="curve"/>
      <point x="646" y="-221" type="line"/>
      <point x="662" y="-226"/>
      <point x="681" y="-228"/>
      <point x="702" y="-228" type="curve" smooth="yes"/>
      <point x="777" y="-228"/>
      <point x="833" y="-184"/>
      <point x="833" y="-44" type="curve" smooth="yes"/>
      <point x="833" y="70"/>
      <point x="772" y="131"/>
      <point x="691" y="144" type="curve"/>
      <point x="693" y="132" type="line"/>
      <point x="779" y="161"/>
      <point x="826" y="227"/>
      <point x="826" y="342" type="curve" smooth="yes"/>
      <point x="826" y="461"/>
      <point x="764" y="558"/>
    </contour>
  </outline>
</glyph>
<glyph name="omlym" format="2">
  <advance width="531"/>
  <unicode hex="0D12"/>
  <outline>
    <contour>
      <point x="318" y="558" type="curve" smooth="yes"/>
      <point x="137" y="558"/>
      <point x="40" y="403"/>
      <point x="40" y="215" type="curve" smooth="yes"/>
      <point x="40" y="39"/>
      <point x="92" y="-12"/>
      <point x="164" y="-12" type="curve" smooth="yes"/>
      <point x="221" y="-12"/>
      <point x="269" y="29"/>
      <point x="269" y="151" type="curve" smooth="yes"/>
      <point x="269" y="257"/>
      <point x="221" y="302"/>
      <point x="161" y="302" type="curve" smooth="yes"/>
      <point x="121" y="302"/>
      <point x="86" y="284"/>
      <point x="45" y="235" type="curve"/>
      <point x="54" y="212" type="line"/>
      <point x="85" y="252"/>
      <point x="116" y="276"/>
      <point x="161" y="276" type="curve" smooth="yes"/>
      <point x="216" y="276"/>
      <point x="242" y="229"/>
      <point x="242" y="151" type="curve" smooth="yes"/>
      <point x="242" y="42"/>
      <point x="206" y="14"/>
      <point x="164" y="14" type="curve" smooth="yes"/>
      <point x="102" y="14"/>
      <point x="66" y="65"/>
      <point x="66" y="214" type="curve" smooth="yes"/>
      <point x="66" y="225" type="line" smooth="yes"/>
      <point x="66" y="384"/>
      <point x="151" y="532"/>
      <point x="318" y="532" type="curve" smooth="yes"/>
      <point x="405" y="532"/>
      <point x="460" y="486"/>
      <point x="460" y="404" type="curve" smooth="yes"/>
      <point x="460" y="362"/>
      <point x="448" y="332"/>
      <point x="425" y="312" type="curve" smooth="yes"/>
      <point x="402" y="292"/>
      <point x="369" y="283"/>
      <point x="327" y="283" type="curve" smooth="yes"/>
      <point x="324" y="283" type="line"/>
      <point x="324" y="257" type="line"/>
      <point x="327" y="257" type="line" smooth="yes"/>
      <point x="376" y="257"/>
      <point x="405" y="247"/>
      <point x="429" y="227" type="curve" smooth="yes"/>
      <point x="454" y="206"/>
      <point x="468" y="175"/>
      <point x="468" y="130" type="curve" smooth="yes"/>
      <point x="468" y="45"/>
      <point x="429" y="17"/>
      <point x="367" y="17" type="curve" smooth="yes"/>
      <point x="350" y="17"/>
      <point x="331" y="19"/>
      <point x="310" y="25" type="curve"/>
      <point x="304" y="0" type="line"/>
      <point x="325" y="-6"/>
      <point x="347" y="-9"/>
      <point x="366" y="-9" type="curve" smooth="yes"/>
      <point x="450" y="-9"/>
      <point x="495" y="40"/>
      <point x="495" y="130" type="curve" smooth="yes"/>
      <point x="495" y="219"/>
      <point x="441" y="267"/>
      <point x="367" y="274" type="curve"/>
      <point x="366" y="267" type="line"/>
      <point x="451" y="277"/>
      <point x="487" y="329"/>
      <point x="487" y="402" type="curve" smooth="yes"/>
      <point x="487" y="490"/>
      <point x="429" y="558"/>
    </contour>
  </outline>
</glyph>
<glyph name="kamlym" format="2">
  <advance width="735"/>
  <unicode hex="0D15"/>
  <outline>
    <contour>
      <point x="164" y="-12" type="curve" smooth="yes"/>
      <point x="215" y="-12"/>
      <point x="247" y="2"/>
      <point x="294" y="40" type="curve"/>
      <point x="278" y="61" type="line"/>
      <point x="235" y="22"/>
      <point x="202" y="14"/>
      <point x="165" y="14" type="curve" smooth="yes"/>
      <point x="113" y="14"/>
      <point x="61" y="41"/>
      <point x="61" y="140" type="curve" smooth="yes"/>
      <point x="61" y="180"/>
      <point x="72" y="209"/>
      <point x="100" y="235" type="curve" smooth="yes"/>
      <point x="132" y="264"/>
      <point x="182" y="276"/>
      <point x="262" y="276" type="curve" smooth="yes"/>
      <point x="474" y="276" type="line" smooth="yes"/>
      <point x="557" y="276"/>
      <point x="596" y="268"/>
      <point x="630" y="243" type="curve" smooth="yes"/>
      <point x="658" y="222"/>
      <point x="674" y="188"/>
      <point x="674" y="138" type="curve" smooth="yes"/>
      <point x="674" y="59"/>
      <point x="641" y="14"/>
      <point x="572" y="14" type="curve" smooth="yes"/>
      <point x="554" y="14"/>
      <point x="536" y="16"/>
      <point x="516" y="22" type="curve"/>
      <point x="510" y="-3" type="line"/>
      <point x="532" y="-10"/>
      <point x="556" y="-12"/>
      <point x="571" y="-12" type="curve" smooth="yes"/>
      <point x="656" y="-12"/>
      <point x="701" y="47"/>
      <point x="701" y="138" type="curve" smooth="yes"/>
      <point x="701" y="194"/>
      <point x="682" y="236"/>
      <point x="649" y="261" type="curve" smooth="yes"/>
      <point x="609" y="292"/>
      <point x="559" y="302"/>
      <point x="478" y="302" type="curve" smooth="yes"/>
      <point x="260" y="302" type="line" smooth="yes"/>
      <point x="176" y="302"/>
      <point x="122" y="288"/>
      <point x="83" y="254" type="curve" smooth="yes"/>
      <point x="49" y="225"/>
      <point x="34" y="188"/>
      <point x="34" y="141" type="curve" smooth="yes"/>
      <point x="34" y="37"/>
      <point x="91" y="-12"/>
    </contour>
    <contour>
      <point x="368" y="558" type="curve" smooth="yes"/>
      <point x="269" y="558"/>
      <point x="220" y="469"/>
      <point x="220" y="274" type="curve" smooth="yes"/>
      <point x="220" y="172"/>
      <point x="233" y="88"/>
      <point x="268" y="38" type="curve" smooth="yes"/>
      <point x="291" y="6"/>
      <point x="323" y="-12"/>
      <point x="367" y="-12" type="curve" smooth="yes"/>
      <point x="455" y="-12"/>
      <point x="515" y="56"/>
      <point x="515" y="276" type="curve" smooth="yes"/>
      <point x="515" y="465"/>
      <point x="469" y="558"/>
    </contour>
    <contour>
      <point x="368" y="532" type="curve" smooth="yes"/>
      <point x="446" y="532"/>
      <point x="489" y="465"/>
      <point x="489" y="276" type="curve" smooth="yes"/>
      <point x="489" y="77"/>
      <point x="444" y="14"/>
      <point x="367" y="14" type="curve" smooth="yes"/>
      <point x="292" y="14"/>
      <point x="246" y="73"/>
      <point x="246" y="274" type="curve" smooth="yes"/>
      <point x="246" y="461"/>
      <point x="288" y="532"/>
    </contour>
  </outline>
</glyph>
<glyph name="khamlym" format="2">
  <advance width="704"/>
  <unicode hex="0D16"/>
  <outline>
    <contour>
      <point x="259" y="558" type="curve" smooth="yes"/>
      <point x="126" y="558"/>
      <point x="42" y="431"/>
      <point x="42" y="221" type="curve" smooth="yes"/>
      <point x="42" y="39"/>
      <point x="94" y="-12"/>
      <point x="166" y="-12" type="curve" smooth="yes"/>
      <point x="223" y="-12"/>
      <point x="271" y="29"/>
      <point x="271" y="151" type="curve" smooth="yes"/>
      <point x="271" y="257"/>
      <point x="223" y="302"/>
      <point x="163" y="302" type="curve" smooth="yes"/>
      <point x="123" y="302"/>
      <point x="88" y="284"/>
      <point x="47" y="235" type="curve"/>
      <point x="56" y="212" type="line"/>
      <point x="87" y="252"/>
      <point x="118" y="276"/>
      <point x="163" y="276" type="curve" smooth="yes"/>
      <point x="218" y="276"/>
      <point x="244" y="229"/>
      <point x="244" y="151" type="curve" smooth="yes"/>
      <point x="244" y="42"/>
      <point x="208" y="14"/>
      <point x="166" y="14" type="curve" smooth="yes"/>
      <point x="104" y="14"/>
      <point x="68" y="66"/>
      <point x="68" y="218" type="curve" smooth="yes"/>
      <point x="68" y="231" type="line" smooth="yes"/>
      <point x="68" y="405"/>
      <point x="136" y="532"/>
      <point x="259" y="532" type="curve" smooth="yes"/>
      <point x="369" y="532"/>
      <point x="426" y="431"/>
      <point x="426" y="291" type="curve" smooth="yes"/>
      <point x="426" y="144"/>
      <point x="366" y="64"/>
      <point x="327" y="21" type="curve"/>
      <point x="339" y="0" type="line"/>
      <point x="354" y="0" type="line"/>
      <point x="349" y="12" type="line"/>
      <point x="388" y="49"/>
      <point x="453" y="133"/>
      <point x="453" y="292" type="curve" smooth="yes"/>
      <point x="453" y="446"/>
      <point x="385" y="558"/>
    </contour>
    <contour>
      <point x="639" y="546" type="line"/>
      <point x="613" y="546" type="line"/>
      <point x="613" y="26" type="line"/>
      <point x="343" y="26" type="line"/>
      <point x="346" y="0" type="line"/>
      <point x="639" y="0" type="line"/>
    </contour>
  </outline>
</glyph>
<glyph name="gamlym" format="2">
  <advance width="626"/>
  <unicode hex="0D17"/>
  <outline>
    <contour>
      <point x="428" y="558" type="curve" smooth="yes"/>
      <point x="390" y="558"/>
      <point x="361" y="542"/>
      <point x="342" y="521" type="curve" smooth="yes"/>
      <point x="306" y="481"/>
      <point x="300" y="421"/>
      <point x="300" y="342" type="curve" smooth="yes"/>
      <point x="300" y="210" type="line" smooth="yes"/>
      <point x="300" y="121"/>
      <point x="291" y="72"/>
      <point x="263" y="41" type="curve" smooth="yes"/>
      <point x="247" y="24"/>
      <point x="226" y="14"/>
      <point x="197" y="14" type="curve" smooth="yes"/>
      <point x="108" y="14"/>
      <point x="69" y="113"/>
      <point x="69" y="243" type="curve" smooth="yes"/>
      <point x="69" y="381"/>
      <point x="114" y="464"/>
      <point x="171" y="536" type="curve"/>
      <point x="150" y="553" type="line"/>
      <point x="98" y="482"/>
      <point x="42" y="402"/>
      <point x="42" y="244" type="curve" smooth="yes"/>
      <point x="42" y="87"/>
      <point x="98" y="-12"/>
      <point x="198" y="-12" type="curve" smooth="yes"/>
      <point x="236" y="-12"/>
      <point x="265" y="4"/>
      <point x="284" y="25" type="curve" smooth="yes"/>
      <point x="320" y="65"/>
      <point x="326" y="125"/>
      <point x="326" y="202" type="curve" smooth="yes"/>
      <point x="326" y="336" type="line" smooth="yes"/>
      <point x="326" y="425"/>
      <point x="335" y="474"/>
      <point x="363" y="505" type="curve" smooth="yes"/>
      <point x="379" y="522"/>
      <point x="400" y="532"/>
      <point x="429" y="532" type="curve" smooth="yes"/>
      <point x="518" y="532"/>
      <point x="557" y="433"/>
      <point x="557" y="303" type="curve" smooth="yes"/>
      <point x="557" y="165"/>
      <point x="512" y="82"/>
      <point x="455" y="10" type="curve"/>
      <point x="476" y="-7" type="line"/>
      <point x="528" y="64"/>
      <point x="584" y="144"/>
      <point x="584" y="302" type="curve" smooth="yes"/>
      <point x="584" y="459"/>
      <point x="528" y="558"/>
    </contour>
  </outline>
</glyph>
<glyph name="ghamlym" format="2">
  <advance width="908"/>
  <unicode hex="0D18"/>
  <outline>
    <contour>
      <point x="156" y="558" type="curve" smooth="yes"/>
      <point x="82" y="558"/>
      <point x="31" y="499"/>
      <point x="31" y="406" type="curve" smooth="yes"/>
      <point x="31" y="329"/>
      <point x="63" y="275"/>
      <point x="100" y="228" type="curve"/>
      <point x="120" y="245" type="line"/>
      <point x="88" y="284"/>
      <point x="58" y="335"/>
      <point x="58" y="405" type="curve" smooth="yes"/>
      <point x="58" y="483"/>
      <point x="93" y="532"/>
      <point x="156" y="532" type="curve" smooth="yes"/>
      <point x="214" y="532"/>
      <point x="254" y="493"/>
      <point x="254" y="403" type="curve" smooth="yes"/>
      <point x="254" y="348"/>
      <point x="233" y="295"/>
      <point x="200" y="255" type="curve"/>
      <point x="214" y="236" type="line"/>
      <point x="380" y="236" type="line"/>
      <point x="377" y="262" type="line"/>
      <point x="225" y="262" type="line"/>
      <point x="221" y="246" type="line"/>
      <point x="257" y="285"/>
      <point x="281" y="342"/>
      <point x="281" y="404" type="curve" smooth="yes"/>
      <point x="281" y="505"/>
      <point x="229" y="558"/>
    </contour>
    <contour>
      <point x="843" y="546" type="line"/>
      <point x="817" y="546" type="line"/>
      <point x="817" y="26" type="line"/>
      <point x="392" y="26" type="line"/>
      <point x="392" y="236" type="line"/>
      <point x="669" y="236" type="line"/>
      <point x="669" y="345" type="line" smooth="yes"/>
      <point x="669" y="443"/>
      <point x="647" y="504"/>
      <point x="600" y="536" type="curve" smooth="yes"/>
      <point x="579" y="551"/>
      <point x="551" y="558"/>
      <point x="520" y="558" type="curve" smooth="yes"/>
      <point x="485" y="558"/>
      <point x="457" y="550"/>
      <point x="435" y="535" type="curve" smooth="yes"/>
      <point x="385" y="501"/>
      <point x="366" y="440"/>
      <point x="366" y="342" type="curve" smooth="yes"/>
      <point x="366" y="0" type="line"/>
      <point x="843" y="0" type="line"/>
    </contour>
    <contour>
      <point x="519" y="532" type="curve" smooth="yes"/>
      <point x="603" y="532"/>
      <point x="643" y="475"/>
      <point x="643" y="339" type="curve" smooth="yes"/>
      <point x="643" y="262" type="line"/>
      <point x="392" y="262" type="line"/>
      <point x="392" y="340" type="line" smooth="yes"/>
      <point x="392" y="479"/>
      <point x="434" y="532"/>
    </contour>
  </outline>
</glyph>
<glyph name="ngamlym" format="2">
  <advance width="734"/>
  <unicode hex="0D19"/>
  <outline>
    <contour>
      <point x="245" y="558" type="curve" smooth="yes"/>
      <point x="129" y="558"/>
      <point x="44" y="440"/>
      <point x="44" y="225" type="curve" smooth="yes"/>
      <point x="44" y="39"/>
      <point x="96" y="-12"/>
      <point x="168" y="-12" type="curve" smooth="yes"/>
      <point x="225" y="-12"/>
      <point x="273" y="29"/>
      <point x="273" y="151" type="curve" smooth="yes"/>
      <point x="273" y="257"/>
      <point x="225" y="302"/>
      <point x="165" y="302" type="curve" smooth="yes"/>
      <point x="125" y="302"/>
      <point x="90" y="284"/>
      <point x="49" y="235" type="curve"/>
      <point x="58" y="212" type="line"/>
      <point x="89" y="252"/>
      <point x="120" y="276"/>
      <point x="165" y="276" type="curve" smooth="yes"/>
      <point x="220" y="276"/>
      <point x="246" y="229"/>
      <point x="246" y="151" type="curve" smooth="yes"/>
      <point x="246" y="42"/>
      <point x="210" y="14"/>
      <point x="168" y="14" type="curve" smooth="yes"/>
      <point x="106" y="14"/>
      <point x="70" y="66"/>
      <point x="70" y="222" type="curve" smooth="yes"/>
      <point x="70" y="237" type="line" smooth="yes"/>
      <point x="70" y="414"/>
      <point x="140" y="532"/>
      <point x="245" y="532" type="curve" smooth="yes"/>
      <point x="282" y="532"/>
      <point x="308" y="522"/>
      <point x="327" y="504" type="curve" smooth="yes"/>
      <point x="363" y="471"/>
      <point x="373" y="418"/>
      <point x="373" y="325" type="curve" smooth="yes"/>
      <point x="373" y="0" type="line"/>
      <point x="399" y="0" type="line"/>
      <point x="399" y="295" type="line"/>
      <point x="392" y="370" type="line"/>
      <point x="390" y="413" type="line"/>
      <point x="379" y="506"/>
      <point x="333" y="558"/>
    </contour>
    <contour>
      <point x="552" y="558" type="curve" smooth="yes"/>
      <point x="469" y="558"/>
      <point x="396" y="503"/>
      <point x="384" y="387" type="curve"/>
      <point x="377" y="345" type="line"/>
      <point x="382" y="282" type="line"/>
      <point x="399" y="277" type="line"/>
      <point x="399" y="322" type="line" smooth="yes"/>
      <point x="399" y="401"/>
      <point x="419" y="459"/>
      <point x="457" y="496" type="curve" smooth="yes"/>
      <point x="481" y="519"/>
      <point x="511" y="532"/>
      <point x="553" y="532" type="curve" smooth="yes"/>
      <point x="618" y="532"/>
      <point x="663" y="490"/>
      <point x="663" y="411" type="curve" smooth="yes"/>
      <point x="663" y="362"/>
      <point x="650" y="332"/>
      <point x="627" y="312" type="curve" smooth="yes"/>
      <point x="604" y="292"/>
      <point x="572" y="283"/>
      <point x="524" y="283" type="curve" smooth="yes"/>
      <point x="521" y="283" type="line"/>
      <point x="521" y="257" type="line"/>
      <point x="525" y="257" type="line" smooth="yes"/>
      <point x="579" y="257"/>
      <point x="608" y="247"/>
      <point x="632" y="227" type="curve" smooth="yes"/>
      <point x="657" y="206"/>
      <point x="671" y="175"/>
      <point x="671" y="130" type="curve" smooth="yes"/>
      <point x="671" y="45"/>
      <point x="632" y="17"/>
      <point x="570" y="17" type="curve" smooth="yes"/>
      <point x="553" y="17"/>
      <point x="534" y="19"/>
      <point x="513" y="25" type="curve"/>
      <point x="507" y="0" type="line"/>
      <point x="528" y="-6"/>
      <point x="550" y="-9"/>
      <point x="569" y="-9" type="curve" smooth="yes"/>
      <point x="653" y="-9"/>
      <point x="698" y="40"/>
      <point x="698" y="130" type="curve" smooth="yes"/>
      <point x="698" y="219"/>
      <point x="644" y="267"/>
      <point x="570" y="274" type="curve"/>
      <point x="569" y="268" type="line"/>
      <point x="654" y="277"/>
      <point x="690" y="329"/>
      <point x="690" y="412" type="curve" smooth="yes"/>
      <point x="690" y="501"/>
      <point x="634" y="558"/>
    </contour>
  </outline>
</glyph>
<glyph name="camlym" format="2">
  <advance width="653"/>
  <unicode hex="0D1A"/>
  <outline>
    <contour>
      <point x="588" y="546" type="line"/>
      <point x="562" y="546" type="line"/>
      <point x="562" y="26" type="line"/>
      <point x="287" y="26" type="line"/>
      <point x="297" y="15" type="line"/>
      <point x="325" y="53"/>
      <point x="359" y="115"/>
      <point x="359" y="193" type="curve" smooth="yes"/>
      <point x="359" y="287"/>
      <point x="313" y="344"/>
      <point x="239" y="344" type="curve" smooth="yes"/>
      <point x="174" y="344"/>
      <point x="121" y="294"/>
      <point x="121" y="195" type="curve" smooth="yes"/>
      <point x="121" y="176"/>
      <point x="124" y="155"/>
      <point x="127" y="136" type="curve"/>
      <point x="152" y="139" type="line"/>
      <point x="149" y="158"/>
      <point x="148" y="179"/>
      <point x="148" y="195" type="curve" smooth="yes"/>
      <point x="148" y="275"/>
      <point x="183" y="318"/>
      <point x="240" y="318" type="curve" smooth="yes"/>
      <point x="297" y="318"/>
      <point x="332" y="275"/>
      <point x="332" y="193" type="curve" smooth="yes"/>
      <point x="332" y="122"/>
      <point x="302" y="60"/>
      <point x="265" y="14" type="curve"/>
      <point x="282" y="26" type="line"/>
      <point x="17" y="26" type="line"/>
      <point x="17" y="0" type="line"/>
      <point x="588" y="0" type="line"/>
    </contour>
  </outline>
</glyph>
<glyph name="chamlym" format="2">
  <advance width="940"/>
  <unicode hex="0D1B"/>
  <outline>
    <contour>
      <point x="239" y="344" type="curve" smooth="yes"/>
      <point x="174" y="344"/>
      <point x="121" y="294"/>
      <point x="121" y="195" type="curve" smooth="yes"/>
      <point x="121" y="176"/>
      <point x="124" y="155"/>
      <point x="127" y="136" type="curve"/>
      <point x="152" y="139" type="line"/>
      <point x="149" y="158"/>
      <point x="148" y="179"/>
      <point x="148" y="195" type="curve" smooth="yes"/>
      <point x="148" y="275"/>
      <point x="183" y="318"/>
      <point x="240" y="318" type="curve" smooth="yes"/>
      <point x="297" y="318"/>
      <point x="332" y="275"/>
      <point x="332" y="193" type="curve" smooth="yes"/>
      <point x="332" y="122"/>
      <point x="302" y="60"/>
      <point x="265" y="14" type="curve"/>
      <point x="282" y="26" type="line"/>
      <point x="17" y="26" type="line"/>
      <point x="17" y="0" type="line"/>
      <point x="579" y="0" type="line"/>
      <point x="580" y="26" type="line"/>
      <point x="287" y="26" type="line"/>
      <point x="297" y="15" type="line"/>
      <point x="325" y="53"/>
      <point x="359" y="115"/>
      <point x="359" y="193" type="curve" smooth="yes"/>
      <point x="359" y="287"/>
      <point x="313" y="344"/>
    </contour>
    <contour>
      <point x="681" y="558" type="curve" smooth="yes"/>
      <point x="544" y="558"/>
      <point x="471" y="439"/>
      <point x="471" y="291" type="curve" smooth="yes"/>
      <point x="471" y="137"/>
      <point x="530" y="63"/>
      <point x="564" y="21" type="curve"/>
      <point x="567" y="0" type="line"/>
      <point x="584" y="0" type="line"/>
      <point x="596" y="21" type="line"/>
      <point x="549" y="72"/>
      <point x="498" y="153"/>
      <point x="498" y="291" type="curve" smooth="yes"/>
      <point x="498" y="420"/>
      <point x="556" y="532"/>
      <point x="681" y="532" type="curve" smooth="yes"/>
      <point x="805" y="532"/>
      <point x="851" y="426"/>
      <point x="870" y="314" type="curve" smooth="yes"/>
      <point x="871" y="308"/>
      <point x="870" y="309"/>
      <point x="869" y="306" type="curve"/>
      <point x="871" y="295"/>
      <point x="872" y="259"/>
      <point x="872" y="236" type="curve" smooth="yes"/>
      <point x="872" y="66"/>
      <point x="833" y="14"/>
      <point x="771" y="14" type="curve" smooth="yes"/>
      <point x="697" y="14"/>
      <point x="671" y="80"/>
      <point x="671" y="188" type="curve" smooth="yes"/>
      <point x="671" y="297"/>
      <point x="703" y="354"/>
      <point x="774" y="354" type="curve" smooth="yes"/>
      <point x="831" y="354"/>
      <point x="860" y="316"/>
      <point x="886" y="271" type="curve"/>
      <point x="891" y="295" type="line"/>
      <point x="870" y="339"/>
      <point x="833" y="380"/>
      <point x="772" y="380" type="curve" smooth="yes"/>
      <point x="696" y="380"/>
      <point x="644" y="321"/>
      <point x="644" y="189" type="curve" smooth="yes"/>
      <point x="644" y="64"/>
      <point x="682" y="-12"/>
      <point x="770" y="-12" type="curve" smooth="yes"/>
      <point x="845" y="-12"/>
      <point x="898" y="41"/>
      <point x="898" y="236" type="curve" smooth="yes"/>
      <point x="898" y="428"/>
      <point x="825" y="558"/>
    </contour>
  </outline>
</glyph>
<glyph name="jamlym" format="2">
  <advance width="659"/>
  <unicode hex="0D1C"/>
  <outline>
    <contour>
      <point x="209" y="558" type="curve" smooth="yes"/>
      <point x="100" y="558"/>
      <point x="40" y="479"/>
      <point x="40" y="380" type="curve" smooth="yes"/>
      <point x="40" y="291"/>
      <point x="81" y="246"/>
      <point x="139" y="246" type="curve" smooth="yes"/>
      <point x="195" y="246"/>
      <point x="235" y="291"/>
      <point x="235" y="368" type="curve" smooth="yes"/>
      <point x="235" y="427"/>
      <point x="201" y="475"/>
      <point x="141" y="475" type="curve" smooth="yes"/>
      <point x="109" y="475"/>
      <point x="74" y="454"/>
      <point x="53" y="429" type="curve"/>
      <point x="50" y="399" type="line"/>
      <point x="79" y="433"/>
      <point x="108" y="450"/>
      <point x="140" y="450" type="curve" smooth="yes"/>
      <point x="182" y="450"/>
      <point x="205" y="422"/>
      <point x="205" y="364" type="curve" smooth="yes"/>
      <point x="205" y="314"/>
      <point x="189" y="272"/>
      <point x="139" y="272" type="curve" smooth="yes"/>
      <point x="101" y="272"/>
      <point x="66" y="298"/>
      <point x="66" y="380" type="curve" smooth="yes"/>
      <point x="66" y="397"/>
      <point x="68" y="414"/>
      <point x="72" y="429" type="curve" smooth="yes"/>
      <point x="73" y="433"/>
      <point x="74" y="437"/>
      <point x="75" y="441" type="curve" smooth="yes"/>
      <point x="95" y="498"/>
      <point x="141" y="532"/>
      <point x="208" y="532" type="curve" smooth="yes"/>
      <point x="247" y="532"/>
      <point x="275" y="523"/>
      <point x="296" y="504" type="curve" smooth="yes"/>
      <point x="330" y="473"/>
      <point x="342" y="423"/>
      <point x="342" y="334" type="curve" smooth="yes"/>
      <point x="342" y="258" type="line"/>
      <point x="368" y="258" type="line"/>
      <point x="368" y="338" type="line" smooth="yes"/>
      <point x="368" y="428"/>
      <point x="378" y="473"/>
      <point x="409" y="506" type="curve" smooth="yes"/>
      <point x="424" y="522"/>
      <point x="444" y="532"/>
      <point x="479" y="532" type="curve" smooth="yes"/>
      <point x="560" y="532"/>
      <point x="592" y="453"/>
      <point x="592" y="379" type="curve" smooth="yes"/>
      <point x="592" y="320"/>
      <point x="575" y="279"/>
      <point x="543" y="253" type="curve" smooth="yes"/>
      <point x="509" y="225"/>
      <point x="462" y="213"/>
      <point x="374" y="213" type="curve" smooth="yes"/>
      <point x="197" y="213" type="line" smooth="yes"/>
      <point x="130" y="213"/>
      <point x="94" y="204"/>
      <point x="66" y="180" type="curve" smooth="yes"/>
      <point x="44" y="162"/>
      <point x="32" y="136"/>
      <point x="32" y="102" type="curve" smooth="yes"/>
      <point x="32" y="23"/>
      <point x="87" y="-12"/>
      <point x="144" y="-12" type="curve" smooth="yes"/>
      <point x="209" y="-12"/>
      <point x="250" y="10"/>
      <point x="327" y="75" type="curve" smooth="yes"/>
      <point x="407" y="143"/>
      <point x="429" y="166"/>
      <point x="447" y="183" type="curve"/>
      <point x="450" y="177" type="line"/>
      <point x="470" y="195"/>
      <point x="490" y="203"/>
      <point x="508" y="203" type="curve" smooth="yes"/>
      <point x="539" y="203"/>
      <point x="576" y="188"/>
      <point x="576" y="110" type="curve" smooth="yes"/>
      <point x="576" y="40"/>
      <point x="553" y="14"/>
      <point x="507" y="14" type="curve" smooth="yes"/>
      <point x="461" y="14"/>
      <point x="439" y="48"/>
      <point x="439" y="105" type="curve" smooth="yes"/>
      <point x="439" y="150"/>
      <point x="453" y="184"/>
      <point x="472" y="210" type="curve"/>
      <point x="455" y="213" type="line"/>
      <point x="426" y="174"/>
      <point x="414" y="148"/>
      <point x="414" y="105" type="curve" smooth="yes"/>
      <point x="414" y="41"/>
      <point x="441" y="-12"/>
      <point x="507" y="-12" type="curve" smooth="yes"/>
      <point x="561" y="-12"/>
      <point x="603" y="20"/>
      <point x="603" y="110" type="curve" smooth="yes"/>
      <point x="603" y="188"/>
      <point x="565" y="222"/>
      <point x="514" y="222" type="curve" smooth="yes"/>
      <point x="494" y="222"/>
      <point x="479" y="218"/>
      <point x="458" y="206" type="curve"/>
      <point x="411" y="181"/>
      <point x="395" y="169"/>
      <point x="309" y="94" type="curve" smooth="yes"/>
      <point x="238" y="32"/>
      <point x="199" y="14"/>
      <point x="145" y="14" type="curve" smooth="yes"/>
      <point x="98" y="14"/>
      <point x="59" y="38"/>
      <point x="59" y="102" type="curve" smooth="yes"/>
      <point x="59" y="131"/>
      <point x="69" y="150"/>
      <point x="86" y="163" type="curve" smooth="yes"/>
      <point x="111" y="182"/>
      <point x="145" y="187"/>
      <point x="201" y="187" type="curve" smooth="yes"/>
      <point x="366" y="187" type="line" smooth="yes"/>
      <point x="404" y="187"/>
      <point x="432" y="190"/>
      <point x="455" y="195" type="curve"/>
      <point x="489" y="205" type="line"/>
      <point x="524" y="215" type="line"/>
      <point x="585" y="240"/>
      <point x="619" y="293"/>
      <point x="619" y="381" type="curve" smooth="yes"/>
      <point x="619" y="473"/>
      <point x="570" y="558"/>
      <point x="479" y="558" type="curve" smooth="yes"/>
      <point x="412" y="558"/>
      <point x="357" y="519"/>
      <point x="348" y="404" type="curve"/>
      <point x="359" y="416" type="line"/>
      <point x="346" y="520"/>
      <point x="289" y="558"/>
    </contour>
  </outline>
</glyph>
<glyph name="jhamlym" format="2">
  <advance width="1152"/>
  <unicode hex="0D1D"/>
  <outline>
    <contour>
      <point x="461" y="558" type="curve" smooth="yes"/>
      <point x="416" y="558"/>
      <point x="377" y="540"/>
      <point x="344" y="510" type="curve"/>
      <point x="337" y="504" type="line"/>
      <point x="260" y="431"/>
      <point x="228" y="306"/>
      <point x="228" y="203" type="curve" smooth="yes"/>
      <point x="228" y="39"/>
      <point x="281" y="-12"/>
      <point x="352" y="-12" type="curve" smooth="yes"/>
      <point x="424" y="-12"/>
      <point x="477" y="39"/>
      <point x="477" y="203" type="curve" smooth="yes"/>
      <point x="477" y="318"/>
      <point x="441" y="434"/>
      <point x="369" y="503" type="curve"/>
      <point x="360" y="511" type="line"/>
      <point x="327" y="542"/>
      <point x="290" y="558"/>
      <point x="244" y="558" type="curve" smooth="yes"/>
      <point x="113" y="558"/>
      <point x="42" y="442"/>
      <point x="42" y="291" type="curve" smooth="yes"/>
      <point x="42" y="132"/>
      <point x="105" y="49"/>
      <point x="156" y="-6" type="curve"/>
      <point x="175" y="12" type="line"/>
      <point x="118" y="73"/>
      <point x="69" y="153"/>
      <point x="69" y="291" type="curve" smooth="yes"/>
      <point x="69" y="421"/>
      <point x="124" y="532"/>
      <point x="243" y="532" type="curve" smooth="yes"/>
      <point x="282" y="532"/>
      <point x="313" y="521"/>
      <point x="341" y="495" type="curve"/>
      <point x="348" y="489" type="line"/>
      <point x="422" y="423"/>
      <point x="450" y="292"/>
      <point x="450" y="203" type="curve" smooth="yes"/>
      <point x="450" y="56"/>
      <point x="412" y="14"/>
      <point x="352" y="14" type="curve" smooth="yes"/>
      <point x="293" y="14"/>
      <point x="255" y="56"/>
      <point x="255" y="203" type="curve" smooth="yes"/>
      <point x="255" y="294"/>
      <point x="283" y="421"/>
      <point x="355" y="487" type="curve"/>
      <point x="364" y="495" type="line"/>
      <point x="391" y="517"/>
      <point x="422" y="532"/>
      <point x="461" y="532" type="curve" smooth="yes"/>
      <point x="496" y="532"/>
      <point x="522" y="522"/>
      <point x="542" y="504" type="curve" smooth="yes"/>
      <point x="580" y="470"/>
      <point x="588" y="411"/>
      <point x="588" y="318" type="curve" smooth="yes"/>
      <point x="588" y="196" type="line" smooth="yes"/>
      <point x="588" y="105"/>
      <point x="596" y="63"/>
      <point x="629" y="26" type="curve" smooth="yes"/>
      <point x="648" y="5"/>
      <point x="679" y="-12"/>
      <point x="718" y="-12" type="curve" smooth="yes"/>
      <point x="788" y="-12"/>
      <point x="830" y="28"/>
      <point x="838" y="133" type="curve"/>
      <point x="830" y="124" type="line"/>
      <point x="844" y="28"/>
      <point x="886" y="-12"/>
      <point x="954" y="-12" type="curve" smooth="yes"/>
      <point x="1050" y="-12"/>
      <point x="1110" y="93"/>
      <point x="1110" y="243" type="curve" smooth="yes"/>
      <point x="1110" y="401"/>
      <point x="1054" y="482"/>
      <point x="1002" y="552" type="curve"/>
      <point x="981" y="536" type="line"/>
      <point x="1038" y="464"/>
      <point x="1083" y="381"/>
      <point x="1083" y="243" type="curve" smooth="yes"/>
      <point x="1083" y="118"/>
      <point x="1037" y="14"/>
      <point x="956" y="14" type="curve" smooth="yes"/>
      <point x="923" y="14"/>
      <point x="903" y="24"/>
      <point x="887" y="42" type="curve" smooth="yes"/>
      <point x="858" y="74"/>
      <point x="846" y="124"/>
      <point x="846" y="211" type="curve" smooth="yes"/>
      <point x="846" y="546" type="line"/>
      <point x="820" y="546" type="line"/>
      <point x="820" y="208" type="line" smooth="yes"/>
      <point x="820" y="126"/>
      <point x="812" y="70"/>
      <point x="784" y="40" type="curve" smooth="yes"/>
      <point x="769" y="23"/>
      <point x="747" y="14"/>
      <point x="718" y="14" type="curve" smooth="yes"/>
      <point x="689" y="14"/>
      <point x="666" y="24"/>
      <point x="650" y="41" type="curve" smooth="yes"/>
      <point x="622" y="71"/>
      <point x="614" y="118"/>
      <point x="614" y="205" type="curve" smooth="yes"/>
      <point x="614" y="322" type="line" smooth="yes"/>
      <point x="614" y="430"/>
      <point x="602" y="483"/>
      <point x="561" y="522" type="curve" smooth="yes"/>
      <point x="536" y="546"/>
      <point x="501" y="558"/>
    </contour>
  </outline>
</glyph>
<glyph name="ttamlym" format="2">
  <advance width="381"/>
  <unicode hex="0D1F"/>
  <outline>
    <contour>
      <point x="203" y="558" type="curve" smooth="yes"/>
      <point x="82" y="558"/>
      <point x="32" y="484"/>
      <point x="32" y="410" type="curve" smooth="yes"/>
      <point x="32" y="370"/>
      <point x="42" y="337"/>
      <point x="65" y="311" type="curve" smooth="yes"/>
      <point x="90" y="283"/>
      <point x="130" y="267"/>
      <point x="192" y="266" type="curve"/>
      <point x="193" y="266" type="line"/>
      <point x="237" y="265"/>
      <point x="273" y="255"/>
      <point x="296" y="228" type="curve" smooth="yes"/>
      <point x="312" y="209"/>
      <point x="322" y="182"/>
      <point x="322" y="143" type="curve" smooth="yes"/>
      <point x="322" y="70"/>
      <point x="289" y="14"/>
      <point x="176" y="14" type="curve" smooth="yes"/>
      <point x="122" y="14"/>
      <point x="81" y="26"/>
      <point x="35" y="45" type="curve"/>
      <point x="21" y="23" type="line"/>
      <point x="80" y="-4"/>
      <point x="134" y="-12"/>
      <point x="176" y="-12" type="curve" smooth="yes"/>
      <point x="299" y="-12"/>
      <point x="349" y="54"/>
      <point x="349" y="142" type="curve" smooth="yes"/>
      <point x="349" y="190"/>
      <point x="337" y="221"/>
      <point x="316" y="245" type="curve" smooth="yes"/>
      <point x="288" y="277"/>
      <point x="248" y="291"/>
      <point x="193" y="292" type="curve"/>
      <point x="192" y="292" type="line"/>
      <point x="140" y="293"/>
      <point x="108" y="303"/>
      <point x="86" y="327" type="curve" smooth="yes"/>
      <point x="69" y="346"/>
      <point x="59" y="373"/>
      <point x="59" y="410" type="curve" smooth="yes"/>
      <point x="59" y="474"/>
      <point x="98" y="532"/>
      <point x="202" y="532" type="curve" smooth="yes"/>
      <point x="252" y="532"/>
      <point x="290" y="523"/>
      <point x="340" y="501" type="curve"/>
      <point x="354" y="524" type="line"/>
      <point x="301" y="548"/>
      <point x="256" y="558"/>
    </contour>
  </outline>
</glyph>
<glyph name="tthamlym" format="2">
  <advance width="463"/>
  <unicode hex="0D20"/>
  <outline>
    <contour>
      <point x="232" y="558" type="curve" smooth="yes"/>
      <point x="116" y="558"/>
      <point x="42" y="456"/>
      <point x="42" y="273" type="curve" smooth="yes"/>
      <point x="42" y="89"/>
      <point x="110" y="-12"/>
      <point x="230" y="-12" type="curve" smooth="yes"/>
      <point x="348" y="-12"/>
      <point x="421" y="92"/>
      <point x="421" y="273" type="curve" smooth="yes"/>
      <point x="421" y="460"/>
      <point x="350" y="558"/>
    </contour>
    <contour>
      <point x="230" y="14" type="curve" smooth="yes"/>
      <point x="126" y="14"/>
      <point x="69" y="102"/>
      <point x="69" y="273" type="curve" smooth="yes"/>
      <point x="69" y="440"/>
      <point x="129" y="532"/>
      <point x="232" y="532" type="curve" smooth="yes"/>
      <point x="337" y="532"/>
      <point x="394" y="444"/>
      <point x="394" y="273" type="curve" smooth="yes"/>
      <point x="394" y="113"/>
      <point x="338" y="14"/>
    </contour>
  </outline>
</glyph>
<glyph name="ddamlym" format="2">
  <advance width="864"/>
  <unicode hex="0D21"/>
  <outline>
    <contour>
      <point x="430" y="-12" type="curve"/>
      <point x="500" y="-12"/>
      <point x="542" y="28"/>
      <point x="550" y="133" type="curve"/>
      <point x="542" y="124" type="line"/>
      <point x="556" y="28"/>
      <point x="598" y="-12"/>
      <point x="666" y="-12" type="curve" smooth="yes"/>
      <point x="762" y="-12"/>
      <point x="822" y="93"/>
      <point x="822" y="243" type="curve" smooth="yes"/>
      <point x="822" y="401"/>
      <point x="766" y="482"/>
      <point x="714" y="552" type="curve"/>
      <point x="693" y="536" type="line"/>
      <point x="750" y="464"/>
      <point x="795" y="381"/>
      <point x="795" y="243" type="curve" smooth="yes"/>
      <point x="795" y="118"/>
      <point x="749" y="14"/>
      <point x="668" y="14" type="curve" smooth="yes"/>
      <point x="635" y="14"/>
      <point x="615" y="24"/>
      <point x="599" y="42" type="curve" smooth="yes"/>
      <point x="570" y="74"/>
      <point x="558" y="124"/>
      <point x="558" y="211" type="curve" smooth="yes"/>
      <point x="558" y="546" type="line"/>
      <point x="532" y="546" type="line"/>
      <point x="532" y="208" type="line" smooth="yes"/>
      <point x="532" y="126"/>
      <point x="524" y="70"/>
      <point x="496" y="40" type="curve" smooth="yes"/>
      <point x="481" y="23"/>
      <point x="459" y="14"/>
      <point x="430" y="14" type="curve" smooth="yes"/>
      <point x="401" y="14"/>
      <point x="378" y="24"/>
      <point x="362" y="41" type="curve" smooth="yes"/>
      <point x="334" y="71"/>
      <point x="326" y="118"/>
      <point x="326" y="205" type="curve" smooth="yes"/>
      <point x="326" y="344" type="line" smooth="yes"/>
      <point x="326" y="421"/>
      <point x="320" y="481"/>
      <point x="284" y="521" type="curve" smooth="yes"/>
      <point x="265" y="542"/>
      <point x="236" y="558"/>
      <point x="198" y="558" type="curve" smooth="yes"/>
      <point x="98" y="558"/>
      <point x="42" y="459"/>
      <point x="42" y="302" type="curve" smooth="yes"/>
      <point x="42" y="144"/>
      <point x="98" y="64"/>
      <point x="150" y="-7" type="curve"/>
      <point x="171" y="10" type="line"/>
      <point x="114" y="82"/>
      <point x="69" y="165"/>
      <point x="69" y="303" type="curve" smooth="yes"/>
      <point x="69" y="433"/>
      <point x="108" y="532"/>
      <point x="197" y="532" type="curve" smooth="yes"/>
      <point x="226" y="532"/>
      <point x="247" y="522"/>
      <point x="263" y="505" type="curve" smooth="yes"/>
      <point x="291" y="474"/>
      <point x="300" y="425"/>
      <point x="300" y="336" type="curve" smooth="yes"/>
      <point x="300" y="196" type="line" smooth="yes"/>
      <point x="300" y="105"/>
      <point x="308" y="63"/>
      <point x="341" y="26" type="curve" smooth="yes"/>
      <point x="360" y="5"/>
      <point x="391" y="-12"/>
    </contour>
  </outline>
</glyph>
<glyph name="ddhamlym" format="2">
  <advance width="931"/>
  <unicode hex="0D22"/>
  <outline>
    <contour>
      <point x="430" y="-12" type="curve" smooth="yes"/>
      <point x="500" y="-12"/>
      <point x="542" y="28"/>
      <point x="550" y="133" type="curve"/>
      <point x="558" y="244" type="line"/>
      <point x="558" y="546" type="line"/>
      <point x="532" y="546" type="line"/>
      <point x="532" y="208" type="line" smooth="yes"/>
      <point x="532" y="126"/>
      <point x="524" y="70"/>
      <point x="496" y="40" type="curve" smooth="yes"/>
      <point x="481" y="23"/>
      <point x="459" y="14"/>
      <point x="430" y="14" type="curve" smooth="yes"/>
      <point x="401" y="14"/>
      <point x="378" y="24"/>
      <point x="362" y="41" type="curve" smooth="yes"/>
      <point x="334" y="71"/>
      <point x="326" y="118"/>
      <point x="326" y="205" type="curve" smooth="yes"/>
      <point x="326" y="344" type="line" smooth="yes"/>
      <point x="326" y="421"/>
      <point x="320" y="481"/>
      <point x="284" y="521" type="curve" smooth="yes"/>
      <point x="265" y="542"/>
      <point x="236" y="558"/>
      <point x="198" y="558" type="curve" smooth="yes"/>
      <point x="98" y="558"/>
      <point x="42" y="459"/>
      <point x="42" y="302" type="curve" smooth="yes"/>
      <point x="42" y="144"/>
      <point x="98" y="64"/>
      <point x="150" y="-7" type="curve"/>
      <point x="171" y="10" type="line"/>
      <point x="114" y="82"/>
      <point x="69" y="165"/>
      <point x="69" y="303" type="curve" smooth="yes"/>
      <point x="69" y="433"/>
      <point x="108" y="532"/>
      <point x="197" y="532" type="curve" smooth="yes"/>
      <point x="226" y="532"/>
      <point x="247" y="522"/>
      <point x="263" y="505" type="curve" smooth="yes"/>
      <point x="291" y="474"/>
      <point x="300" y="425"/>
      <point x="300" y="336" type="curve" smooth="yes"/>
      <point x="300" y="196" type="line" smooth="yes"/>
      <point x="300" y="105"/>
      <point x="308" y="63"/>
      <point x="341" y="26" type="curve" smooth="yes"/>
      <point x="360" y="5"/>
      <point x="391" y="-12"/>
    </contour>
    <contour>
      <point x="763" y="558" type="curve" smooth="yes"/>
      <point x="706" y="558"/>
      <point x="658" y="517"/>
      <point x="658" y="395" type="curve" smooth="yes"/>
      <point x="658" y="289"/>
      <point x="706" y="244"/>
      <point x="766" y="244" type="curve" smooth="yes"/>
      <point x="806" y="244"/>
      <point x="841" y="262"/>
      <point x="882" y="311" type="curve"/>
      <point x="873" y="334" type="line"/>
      <point x="842" y="294"/>
      <point x="811" y="270"/>
      <point x="766" y="270" type="curve" smooth="yes"/>
      <point x="711" y="270"/>
      <point x="685" y="317"/>
      <point x="685" y="395" type="curve" smooth="yes"/>
      <point x="685" y="504"/>
      <point x="721" y="532"/>
      <point x="763" y="532" type="curve" smooth="yes"/>
      <point x="825" y="532"/>
      <point x="861" y="480"/>
      <point x="861" y="324" type="curve" smooth="yes"/>
      <point x="861" y="309" type="line" smooth="yes"/>
      <point x="861" y="132"/>
      <point x="791" y="14"/>
      <point x="686" y="14" type="curve" smooth="yes"/>
      <point x="649" y="14"/>
      <point x="623" y="24"/>
      <point x="604" y="42" type="curve" smooth="yes"/>
      <point x="568" y="75"/>
      <point x="558" y="128"/>
      <point x="558" y="221" type="curve" smooth="yes"/>
      <point x="558" y="513" type="line"/>
      <point x="541" y="513" type="line"/>
      <point x="539" y="176" type="line"/>
      <point x="541" y="133" type="line"/>
      <point x="552" y="40"/>
      <point x="598" y="-12"/>
      <point x="686" y="-12" type="curve"/>
      <point x="802" y="-12"/>
      <point x="887" y="106"/>
      <point x="887" y="321" type="curve" smooth="yes"/>
      <point x="887" y="507"/>
      <point x="835" y="558"/>
    </contour>
  </outline>
</glyph>
<glyph name="nnamlym" format="2">
  <advance width="949"/>
  <unicode hex="0D23"/>
  <outline>
    <contour>
      <point x="245" y="558" type="curve" smooth="yes"/>
      <point x="129" y="558"/>
      <point x="44" y="440"/>
      <point x="44" y="225" type="curve" smooth="yes"/>
      <point x="44" y="39"/>
      <point x="96" y="-12"/>
      <point x="168" y="-12" type="curve" smooth="yes"/>
      <point x="225" y="-12"/>
      <point x="273" y="29"/>
      <point x="273" y="151" type="curve" smooth="yes"/>
      <point x="273" y="257"/>
      <point x="225" y="302"/>
      <point x="165" y="302" type="curve" smooth="yes"/>
      <point x="125" y="302"/>
      <point x="90" y="284"/>
      <point x="49" y="235" type="curve"/>
      <point x="58" y="212" type="line"/>
      <point x="89" y="252"/>
      <point x="120" y="276"/>
      <point x="165" y="276" type="curve" smooth="yes"/>
      <point x="220" y="276"/>
      <point x="246" y="229"/>
      <point x="246" y="151" type="curve" smooth="yes"/>
      <point x="246" y="42"/>
      <point x="210" y="14"/>
      <point x="168" y="14" type="curve" smooth="yes"/>
      <point x="106" y="14"/>
      <point x="70" y="66"/>
      <point x="70" y="222" type="curve" smooth="yes"/>
      <point x="70" y="237" type="line" smooth="yes"/>
      <point x="70" y="414"/>
      <point x="140" y="532"/>
      <point x="245" y="532" type="curve" smooth="yes"/>
      <point x="282" y="532"/>
      <point x="308" y="522"/>
      <point x="327" y="504" type="curve" smooth="yes"/>
      <point x="363" y="471"/>
      <point x="373" y="418"/>
      <point x="373" y="325" type="curve" smooth="yes"/>
      <point x="373" y="0" type="line"/>
      <point x="399" y="0" type="line"/>
      <point x="399" y="334" type="line" smooth="yes"/>
      <point x="399" y="426"/>
      <point x="409" y="477"/>
      <point x="441" y="508" type="curve" smooth="yes"/>
      <point x="457" y="523"/>
      <point x="479" y="532"/>
      <point x="508" y="532" type="curve" smooth="yes"/>
      <point x="537" y="532"/>
      <point x="559" y="523"/>
      <point x="575" y="508" type="curve" smooth="yes"/>
      <point x="607" y="477"/>
      <point x="617" y="426"/>
      <point x="617" y="334" type="curve" smooth="yes"/>
      <point x="617" y="0" type="line"/>
      <point x="643" y="0" type="line"/>
      <point x="643" y="335" type="line" smooth="yes"/>
      <point x="643" y="422"/>
      <point x="655" y="472"/>
      <point x="684" y="504" type="curve" smooth="yes"/>
      <point x="700" y="522"/>
      <point x="720" y="532"/>
      <point x="753" y="532" type="curve" smooth="yes"/>
      <point x="834" y="532"/>
      <point x="880" y="428"/>
      <point x="880" y="303" type="curve" smooth="yes"/>
      <point x="880" y="165"/>
      <point x="835" y="82"/>
      <point x="778" y="10" type="curve"/>
      <point x="799" y="-6" type="line"/>
      <point x="851" y="64"/>
      <point x="907" y="144"/>
      <point x="907" y="302" type="curve" smooth="yes"/>
      <point x="907" y="452"/>
      <point x="847" y="558"/>
      <point x="751" y="558" type="curve" smooth="yes"/>
      <point x="683" y="558"/>
      <point x="641" y="518"/>
      <point x="627" y="422" type="curve"/>
      <point x="635" y="413" type="line"/>
      <point x="626" y="518"/>
      <point x="578" y="558"/>
      <point x="508" y="558" type="curve" smooth="yes"/>
      <point x="438" y="558"/>
      <point x="391" y="516"/>
      <point x="381" y="413" type="curve"/>
      <point x="390" y="410" type="line"/>
      <point x="378" y="508"/>
      <point x="333" y="558"/>
    </contour>
  </outline>
</glyph>
<glyph name="tamlym" format="2">
  <advance width="706"/>
  <unicode hex="0D24"/>
  <outline>
    <contour>
      <point x="352" y="-12" type="curve" smooth="yes"/>
      <point x="424" y="-12"/>
      <point x="477" y="39"/>
      <point x="477" y="203" type="curve" smooth="yes"/>
      <point x="477" y="318"/>
      <point x="441" y="434"/>
      <point x="369" y="503" type="curve"/>
      <point x="360" y="511" type="line"/>
      <point x="327" y="542"/>
      <point x="290" y="558"/>
      <point x="244" y="558" type="curve" smooth="yes"/>
      <point x="113" y="558"/>
      <point x="42" y="442"/>
      <point x="42" y="291" type="curve" smooth="yes"/>
      <point x="42" y="132"/>
      <point x="105" y="49"/>
      <point x="156" y="-6" type="curve"/>
      <point x="175" y="12" type="line"/>
      <point x="118" y="73"/>
      <point x="69" y="153"/>
      <point x="69" y="291" type="curve" smooth="yes"/>
      <point x="69" y="421"/>
      <point x="124" y="532"/>
      <point x="243" y="532" type="curve" smooth="yes"/>
      <point x="282" y="532"/>
      <point x="313" y="521"/>
      <point x="341" y="495" type="curve"/>
      <point x="348" y="489" type="line"/>
      <point x="422" y="423"/>
      <point x="450" y="292"/>
      <point x="450" y="203" type="curve" smooth="yes"/>
      <point x="450" y="56"/>
      <point x="412" y="14"/>
      <point x="352" y="14" type="curve" smooth="yes"/>
      <point x="293" y="14"/>
      <point x="255" y="56"/>
      <point x="255" y="203" type="curve" smooth="yes"/>
      <point x="255" y="294"/>
      <point x="285" y="421"/>
      <point x="357" y="487" type="curve"/>
      <point x="366" y="495" type="line"/>
      <point x="393" y="517"/>
      <point x="425" y="532"/>
      <point x="468" y="532" type="curve" smooth="yes"/>
      <point x="580" y="532"/>
      <point x="637" y="428"/>
      <point x="637" y="291" type="curve" smooth="yes"/>
      <point x="637" y="141"/>
      <point x="577" y="64"/>
      <point x="529" y="10" type="curve"/>
      <point x="548" y="-8" type="line"/>
      <point x="601" y="51"/>
      <point x="664" y="133"/>
      <point x="664" y="292" type="curve" smooth="yes"/>
      <point x="664" y="445"/>
      <point x="593" y="558"/>
      <point x="468" y="558" type="curve" smooth="yes"/>
      <point x="418" y="558"/>
      <point x="379" y="540"/>
      <point x="346" y="510" type="curve"/>
      <point x="339" y="504" type="line"/>
      <point x="262" y="431"/>
      <point x="228" y="306"/>
      <point x="228" y="203" type="curve" smooth="yes"/>
      <point x="228" y="39"/>
      <point x="281" y="-12"/>
    </contour>
  </outline>
</glyph>
<glyph name="thamlym" format="2">
  <advance width="636"/>
  <unicode hex="0D25"/>
  <outline>
    <contour>
      <point x="91" y="546" type="line"/>
      <point x="65" y="546" type="line"/>
      <point x="65" y="0" type="line"/>
      <point x="272" y="0" type="line"/>
      <point x="272" y="26" type="line"/>
      <point x="91" y="26" type="line"/>
    </contour>
    <component base="thapart"/>
  </outline>
</glyph>
<glyph name="damlym" format="2">
  <advance width="448"/>
  <unicode hex="0D26"/>
  <outline>
    <contour>
      <point x="266" y="558" type="curve" smooth="yes"/>
      <point x="131" y="558"/>
      <point x="46" y="423"/>
      <point x="46" y="222" type="curve" smooth="yes"/>
      <point x="46" y="144"/>
      <point x="58" y="67"/>
      <point x="73" y="-6" type="curve"/>
      <point x="98" y="-1" type="line"/>
      <point x="84" y="68"/>
      <point x="73" y="137"/>
      <point x="73" y="224" type="curve" smooth="yes"/>
      <point x="73" y="401"/>
      <point x="141" y="532"/>
      <point x="266" y="532" type="curve" smooth="yes"/>
      <point x="332" y="532"/>
      <point x="377" y="493"/>
      <point x="377" y="411" type="curve" smooth="yes"/>
      <point x="377" y="362"/>
      <point x="364" y="332"/>
      <point x="341" y="312" type="curve" smooth="yes"/>
      <point x="318" y="292"/>
      <point x="286" y="283"/>
      <point x="238" y="283" type="curve" smooth="yes"/>
      <point x="224" y="283" type="line"/>
      <point x="224" y="257" type="line"/>
      <point x="239" y="257" type="line" smooth="yes"/>
      <point x="293" y="257"/>
      <point x="322" y="247"/>
      <point x="346" y="227" type="curve" smooth="yes"/>
      <point x="371" y="206"/>
      <point x="385" y="175"/>
      <point x="385" y="130" type="curve" smooth="yes"/>
      <point x="385" y="45"/>
      <point x="346" y="17"/>
      <point x="284" y="17" type="curve" smooth="yes"/>
      <point x="259" y="17"/>
      <point x="238" y="20"/>
      <point x="218" y="26" type="curve"/>
      <point x="212" y="1" type="line"/>
      <point x="232" y="-4"/>
      <point x="257" y="-9"/>
      <point x="283" y="-9" type="curve" smooth="yes"/>
      <point x="367" y="-9"/>
      <point x="412" y="40"/>
      <point x="412" y="130" type="curve" smooth="yes"/>
      <point x="412" y="219"/>
      <point x="358" y="267"/>
      <point x="284" y="274" type="curve"/>
      <point x="283" y="268" type="line"/>
      <point x="368" y="277"/>
      <point x="404" y="329"/>
      <point x="404" y="412" type="curve" smooth="yes"/>
      <point x="404" y="502"/>
      <point x="350" y="558"/>
    </contour>
  </outline>
</glyph>
<glyph name="dhamlym" format="2">
  <advance width="638"/>
  <unicode hex="0D27"/>
  <outline>
    <contour>
      <point x="437" y="-12" type="curve"/>
      <point x="534" y="-12"/>
      <point x="596" y="94"/>
      <point x="596" y="244" type="curve" smooth="yes"/>
      <point x="596" y="402"/>
      <point x="540" y="482"/>
      <point x="488" y="552" type="curve"/>
      <point x="467" y="536" type="line"/>
      <point x="524" y="464"/>
      <point x="569" y="381"/>
      <point x="569" y="243" type="curve" smooth="yes"/>
      <point x="569" y="118"/>
      <point x="523" y="14"/>
      <point x="438" y="14" type="curve" smooth="yes"/>
      <point x="409" y="14"/>
      <point x="388" y="24"/>
      <point x="372" y="42" type="curve" smooth="yes"/>
      <point x="343" y="74"/>
      <point x="332" y="126"/>
      <point x="332" y="211" type="curve" smooth="yes"/>
      <point x="332" y="546" type="line"/>
      <point x="306" y="546" type="line"/>
      <point x="306" y="211" type="line" smooth="yes"/>
      <point x="306" y="124"/>
      <point x="294" y="74"/>
      <point x="265" y="42" type="curve" smooth="yes"/>
      <point x="249" y="24"/>
      <point x="229" y="14"/>
      <point x="197" y="14" type="curve" smooth="yes"/>
      <point x="115" y="14"/>
      <point x="69" y="118"/>
      <point x="69" y="243" type="curve" smooth="yes"/>
      <point x="69" y="381"/>
      <point x="114" y="464"/>
      <point x="171" y="536" type="curve"/>
      <point x="150" y="552" type="line"/>
      <point x="98" y="482"/>
      <point x="42" y="402"/>
      <point x="42" y="244" type="curve" smooth="yes"/>
      <point x="42" y="94"/>
      <point x="102" y="-12"/>
      <point x="198" y="-12" type="curve" smooth="yes"/>
      <point x="266" y="-12"/>
      <point x="308" y="28"/>
      <point x="322" y="124" type="curve"/>
      <point x="316" y="124" type="line"/>
      <point x="329" y="29"/>
      <point x="371" y="-12"/>
    </contour>
  </outline>
</glyph>
<glyph name="pamlym" format="2">
  <advance width="626"/>
  <unicode hex="0D2A"/>
  <outline>
    <contour>
      <point x="159" y="327" type="curve" smooth="yes"/>
      <point x="85" y="327"/>
      <point x="34" y="267"/>
      <point x="34" y="173" type="curve" smooth="yes"/>
      <point x="34" y="95"/>
      <point x="66" y="40"/>
      <point x="103" y="-8" type="curve"/>
      <point x="123" y="9" type="line"/>
      <point x="91" y="49"/>
      <point x="61" y="101"/>
      <point x="61" y="172" type="curve" smooth="yes"/>
      <point x="61" y="251"/>
      <point x="96" y="301"/>
      <point x="159" y="301" type="curve" smooth="yes"/>
      <point x="217" y="301"/>
      <point x="257" y="261"/>
      <point x="257" y="170" type="curve" smooth="yes"/>
      <point x="257" y="114"/>
      <point x="236" y="60"/>
      <point x="203" y="19" type="curve"/>
      <point x="217" y="0" type="line"/>
      <point x="561" y="0" type="line"/>
      <point x="561" y="546" type="line"/>
      <point x="535" y="546" type="line"/>
      <point x="535" y="26" type="line"/>
      <point x="228" y="26" type="line"/>
      <point x="224" y="10" type="line"/>
      <point x="260" y="50"/>
      <point x="284" y="108"/>
      <point x="284" y="171" type="curve" smooth="yes"/>
      <point x="284" y="273"/>
      <point x="232" y="327"/>
    </contour>
  </outline>
</glyph>
<glyph name="bamlym" format="2">
  <advance width="914"/>
  <unicode hex="0D2C"/>
  <outline>
    <contour>
      <point x="245" y="558" type="curve" smooth="yes"/>
      <point x="129" y="558"/>
      <point x="44" y="440"/>
      <point x="44" y="225" type="curve" smooth="yes"/>
      <point x="44" y="39"/>
      <point x="96" y="-12"/>
      <point x="168" y="-12" type="curve" smooth="yes"/>
      <point x="225" y="-12"/>
      <point x="273" y="29"/>
      <point x="273" y="151" type="curve" smooth="yes"/>
      <point x="273" y="257"/>
      <point x="225" y="302"/>
      <point x="165" y="302" type="curve" smooth="yes"/>
      <point x="125" y="302"/>
      <point x="90" y="284"/>
      <point x="49" y="235" type="curve"/>
      <point x="58" y="212" type="line"/>
      <point x="89" y="252"/>
      <point x="120" y="276"/>
      <point x="165" y="276" type="curve" smooth="yes"/>
      <point x="220" y="276"/>
      <point x="246" y="229"/>
      <point x="246" y="151" type="curve" smooth="yes"/>
      <point x="246" y="42"/>
      <point x="210" y="14"/>
      <point x="168" y="14" type="curve" smooth="yes"/>
      <point x="106" y="14"/>
      <point x="70" y="66"/>
      <point x="70" y="222" type="curve" smooth="yes"/>
      <point x="70" y="237" type="line" smooth="yes"/>
      <point x="70" y="414"/>
      <point x="140" y="532"/>
      <point x="245" y="532" type="curve" smooth="yes"/>
      <point x="282" y="532"/>
      <point x="308" y="522"/>
      <point x="327" y="504" type="curve" smooth="yes"/>
      <point x="363" y="471"/>
      <point x="373" y="418"/>
      <point x="373" y="325" type="curve" smooth="yes"/>
      <point x="373" y="0" type="line"/>
      <point x="399" y="0" type="line"/>
      <point x="399" y="269" type="line"/>
      <point x="394" y="368" type="line"/>
      <point x="390" y="413" type="line"/>
      <point x="379" y="506"/>
      <point x="333" y="558"/>
    </contour>
    <contour>
      <point x="849" y="546" type="line"/>
      <point x="823" y="546" type="line"/>
      <point x="823" y="26" type="line"/>
      <point x="566" y="26" type="line"/>
      <point x="572" y="18" type="line"/>
      <point x="607" y="67"/>
      <point x="663" y="147"/>
      <point x="663" y="302" type="curve" smooth="yes"/>
      <point x="663" y="452"/>
      <point x="603" y="558"/>
      <point x="507" y="558" type="curve" smooth="yes"/>
      <point x="439" y="558"/>
      <point x="397" y="518"/>
      <point x="383" y="422" type="curve"/>
      <point x="382" y="357" type="line"/>
      <point x="375" y="274" type="line"/>
      <point x="375" y="10" type="line"/>
      <point x="399" y="10" type="line"/>
      <point x="399" y="335" type="line" smooth="yes"/>
      <point x="399" y="422"/>
      <point x="411" y="472"/>
      <point x="440" y="504" type="curve" smooth="yes"/>
      <point x="456" y="522"/>
      <point x="476" y="532"/>
      <point x="508" y="532" type="curve" smooth="yes"/>
      <point x="590" y="532"/>
      <point x="636" y="428"/>
      <point x="636" y="303" type="curve" smooth="yes"/>
      <point x="636" y="165"/>
      <point x="591" y="88"/>
      <point x="545" y="21" type="curve"/>
      <point x="557" y="0" type="line"/>
      <point x="849" y="0" type="line"/>
    </contour>
  </outline>
</glyph>
<glyph name="bhamlym" format="2">
  <advance width="458"/>
  <unicode hex="0D2D"/>
  <outline>
    <contour>
      <point x="284" y="558" type="curve" smooth="yes"/>
      <point x="131" y="558"/>
      <point x="46" y="423"/>
      <point x="46" y="222" type="curve" smooth="yes"/>
      <point x="46" y="144"/>
      <point x="58" y="67"/>
      <point x="73" y="-6" type="curve"/>
      <point x="98" y="-1" type="line"/>
      <point x="85" y="68"/>
      <point x="73" y="137"/>
      <point x="73" y="224" type="curve" smooth="yes"/>
      <point x="73" y="401"/>
      <point x="140" y="532"/>
      <point x="284" y="532" type="curve" smooth="yes"/>
      <point x="363" y="532"/>
      <point x="400" y="489"/>
      <point x="400" y="429" type="curve" smooth="yes"/>
      <point x="400" y="377"/>
      <point x="379" y="356"/>
      <point x="318" y="355" type="curve"/>
      <point x="317" y="355" type="line"/>
      <point x="276" y="353"/>
      <point x="252" y="346"/>
      <point x="231" y="331" type="curve" smooth="yes"/>
      <point x="210" y="316"/>
      <point x="200" y="291"/>
      <point x="200" y="266" type="curve" smooth="yes"/>
      <point x="200" y="237"/>
      <point x="211" y="216"/>
      <point x="228" y="201" type="curve" smooth="yes"/>
      <point x="243" y="188"/>
      <point x="270" y="178"/>
      <point x="311" y="177" type="curve"/>
      <point x="312" y="177" type="line"/>
      <point x="373" y="176"/>
      <point x="400" y="147"/>
      <point x="400" y="101" type="curve" smooth="yes"/>
      <point x="400" y="46"/>
      <point x="377" y="14"/>
      <point x="299" y="14" type="curve" smooth="yes"/>
      <point x="262" y="14"/>
      <point x="230" y="18"/>
      <point x="195" y="32" type="curve"/>
      <point x="185" y="8" type="line"/>
      <point x="218" y="-6"/>
      <point x="274" y="-12"/>
      <point x="295" y="-12" type="curve" smooth="yes"/>
      <point x="391" y="-12"/>
      <point x="427" y="32"/>
      <point x="427" y="101" type="curve" smooth="yes"/>
      <point x="427" y="126"/>
      <point x="420" y="146"/>
      <point x="408" y="162" type="curve" smooth="yes"/>
      <point x="387" y="190"/>
      <point x="352" y="203"/>
      <point x="313" y="203" type="curve"/>
      <point x="312" y="203" type="line"/>
      <point x="258" y="203"/>
      <point x="227" y="220"/>
      <point x="227" y="266" type="curve" smooth="yes"/>
      <point x="227" y="288"/>
      <point x="235" y="304"/>
      <point x="253" y="315" type="curve" smooth="yes"/>
      <point x="268" y="324"/>
      <point x="287" y="328"/>
      <point x="313" y="329" type="curve"/>
      <point x="314" y="329" type="line"/>
      <point x="358" y="329"/>
      <point x="384" y="338"/>
      <point x="402" y="356" type="curve" smooth="yes"/>
      <point x="419" y="373"/>
      <point x="427" y="399"/>
      <point x="427" y="429" type="curve" smooth="yes"/>
      <point x="427" y="506"/>
      <point x="372" y="558"/>
    </contour>
  </outline>
</glyph>
<glyph name="mamlym" format="2">
  <advance width="502"/>
  <unicode hex="0D2E"/>
  <outline>
    <contour>
      <point x="253" y="558" type="curve" smooth="yes"/>
      <point x="191" y="558"/>
      <point x="145" y="537"/>
      <point x="114" y="502" type="curve" smooth="yes"/>
      <point x="71" y="454"/>
      <point x="56" y="381"/>
      <point x="56" y="277" type="curve" smooth="yes"/>
      <point x="56" y="0" type="line"/>
      <point x="446" y="0" type="line"/>
      <point x="446" y="280" type="line" smooth="yes"/>
      <point x="446" y="379"/>
      <point x="432" y="450"/>
      <point x="390" y="501" type="curve" smooth="yes"/>
      <point x="361" y="536"/>
      <point x="314" y="558"/>
    </contour>
    <contour>
      <point x="220" y="527" type="curve" smooth="yes"/>
      <point x="282" y="527"/>
      <point x="301" y="471"/>
      <point x="301" y="408" type="curve" smooth="yes"/>
      <point x="301" y="283"/>
      <point x="204" y="147"/>
      <point x="90" y="26" type="curve"/>
      <point x="82" y="26" type="line"/>
      <point x="82" y="266" type="line" smooth="yes"/>
      <point x="82" y="387"/>
      <point x="101" y="446"/>
      <point x="135" y="487" type="curve" smooth="yes"/>
      <point x="157" y="513"/>
      <point x="185" y="527"/>
    </contour>
    <contour>
      <point x="328" y="409" type="curve" smooth="yes"/>
      <point x="328" y="471"/>
      <point x="309" y="520"/>
      <point x="257" y="537" type="curve"/>
      <point x="258" y="535" type="line"/>
      <point x="377" y="532"/>
      <point x="420" y="438"/>
      <point x="420" y="269" type="curve" smooth="yes"/>
      <point x="420" y="26" type="line"/>
      <point x="232" y="26" type="line" smooth="yes"/>
      <point x="194" y="26"/>
      <point x="145" y="26"/>
      <point x="115" y="24" type="curve"/>
      <point x="111" y="11" type="line"/>
      <point x="232" y="142"/>
      <point x="328" y="274"/>
    </contour>
  </outline>
</glyph>
<glyph name="yamlym" format="2">
  <advance width="732"/>
  <unicode hex="0D2F"/>
  <outline>
    <contour>
      <point x="476" y="-12" type="curve" smooth="yes"/>
      <point x="622" y="-12"/>
      <point x="686" y="102"/>
      <point x="686" y="289" type="curve" smooth="yes"/>
      <point x="686" y="394"/>
      <point x="658" y="480"/>
      <point x="611" y="558" type="curve"/>
      <point x="588" y="545" type="line"/>
      <point x="634" y="473"/>
      <point x="659" y="384"/>
      <point x="659" y="289" type="curve" smooth="yes"/>
      <point x="659" y="117"/>
      <point x="607" y="14"/>
      <point x="476" y="14" type="curve" smooth="yes"/>
      <point x="441" y="14"/>
      <point x="413" y="22"/>
      <point x="388" y="39" type="curve" smooth="yes"/>
      <point x="385" y="41"/>
      <point x="381" y="43"/>
      <point x="379" y="45" type="curve" smooth="yes"/>
      <point x="299" y="107"/>
      <point x="271" y="243"/>
      <point x="271" y="344" type="curve" smooth="yes"/>
      <point x="271" y="475"/>
      <point x="310" y="532"/>
      <point x="375" y="532" type="curve" smooth="yes"/>
      <point x="440" y="532"/>
      <point x="476" y="475"/>
      <point x="476" y="342" type="curve" smooth="yes"/>
      <point x="476" y="219"/>
      <point x="447" y="97"/>
      <point x="367" y="44" type="curve"/>
      <point x="364" y="42"/>
      <point x="360" y="40"/>
      <point x="357" y="38" type="curve" smooth="yes"/>
      <point x="330" y="23"/>
      <point x="297" y="14"/>
      <point x="258" y="14" type="curve" smooth="yes"/>
      <point x="135" y="14"/>
      <point x="69" y="134"/>
      <point x="69" y="325" type="curve" smooth="yes"/>
      <point x="69" y="476"/>
      <point x="126" y="532"/>
      <point x="191" y="532" type="curve" smooth="yes"/>
      <point x="227" y="532"/>
      <point x="255" y="512"/>
      <point x="277" y="481" type="curve"/>
      <point x="295" y="500" type="line"/>
      <point x="273" y="528"/>
      <point x="241" y="558"/>
      <point x="189" y="558" type="curve" smooth="yes"/>
      <point x="108" y="558"/>
      <point x="42" y="484"/>
      <point x="42" y="326" type="curve" smooth="yes"/>
      <point x="42" y="114"/>
      <point x="123" y="-12"/>
      <point x="259" y="-12" type="curve" smooth="yes"/>
      <point x="308" y="-12"/>
      <point x="348" y="1"/>
      <point x="381" y="24" type="curve" smooth="yes"/>
      <point x="383" y="26"/>
      <point x="386" y="27"/>
      <point x="388" y="29" type="curve"/>
      <point x="470" y="88"/>
      <point x="503" y="207"/>
      <point x="503" y="342" type="curve" smooth="yes"/>
      <point x="503" y="490"/>
      <point x="454" y="558"/>
      <point x="375" y="558" type="curve" smooth="yes"/>
      <point x="333" y="558"/>
      <point x="302" y="540"/>
      <point x="280" y="505" type="curve"/>
      <point x="273" y="495" type="line"/>
      <point x="253" y="459"/>
      <point x="244" y="408"/>
      <point x="244" y="345" type="curve" smooth="yes"/>
      <point x="244" y="231"/>
      <point x="275" y="99"/>
      <point x="359" y="29" type="curve"/>
      <point x="362" y="27"/>
      <point x="365" y="24"/>
      <point x="368" y="22" type="curve" smooth="yes"/>
      <point x="398" y="0"/>
      <point x="433" y="-12"/>
    </contour>
  </outline>
</glyph>
<glyph name="ramlym" format="2">
  <advance width="511"/>
  <unicode hex="0D30"/>
  <outline>
    <contour>
      <point x="252" y="558" type="curve" smooth="yes"/>
      <point x="115" y="558"/>
      <point x="42" y="439"/>
      <point x="42" y="291" type="curve" smooth="yes"/>
      <point x="42" y="132"/>
      <point x="105" y="49"/>
      <point x="156" y="-6" type="curve"/>
      <point x="175" y="12" type="line"/>
      <point x="118" y="73"/>
      <point x="69" y="153"/>
      <point x="69" y="291" type="curve" smooth="yes"/>
      <point x="69" y="420"/>
      <point x="127" y="532"/>
      <point x="252" y="532" type="curve" smooth="yes"/>
      <point x="376" y="532"/>
      <point x="422" y="426"/>
      <point x="441" y="314" type="curve" smooth="yes"/>
      <point x="442" y="308"/>
      <point x="441" y="309"/>
      <point x="440" y="306" type="curve"/>
      <point x="442" y="295"/>
      <point x="443" y="259"/>
      <point x="443" y="236" type="curve" smooth="yes"/>
      <point x="443" y="66"/>
      <point x="404" y="14"/>
      <point x="342" y="14" type="curve" smooth="yes"/>
      <point x="268" y="14"/>
      <point x="242" y="80"/>
      <point x="242" y="188" type="curve" smooth="yes"/>
      <point x="242" y="297"/>
      <point x="274" y="354"/>
      <point x="345" y="354" type="curve" smooth="yes"/>
      <point x="402" y="354"/>
      <point x="431" y="316"/>
      <point x="457" y="271" type="curve"/>
      <point x="462" y="295" type="line"/>
      <point x="441" y="339"/>
      <point x="404" y="380"/>
      <point x="343" y="380" type="curve" smooth="yes"/>
      <point x="267" y="380"/>
      <point x="215" y="321"/>
      <point x="215" y="189" type="curve" smooth="yes"/>
      <point x="215" y="64"/>
      <point x="253" y="-12"/>
      <point x="341" y="-12" type="curve" smooth="yes"/>
      <point x="416" y="-12"/>
      <point x="469" y="41"/>
      <point x="469" y="236" type="curve" smooth="yes"/>
      <point x="469" y="428"/>
      <point x="396" y="558"/>
    </contour>
  </outline>
</glyph>
<glyph name="rramlym" format="2">
  <advance width="471"/>
  <unicode hex="0D31"/>
  <outline>
    <contour>
      <point x="238" y="558" type="curve" smooth="yes"/>
      <point x="114" y="558"/>
      <point x="42" y="442"/>
      <point x="42" y="291" type="curve" smooth="yes"/>
      <point x="42" y="132"/>
      <point x="105" y="49"/>
      <point x="156" y="-6" type="curve"/>
      <point x="175" y="12" type="line"/>
      <point x="118" y="73"/>
      <point x="69" y="153"/>
      <point x="69" y="291" type="curve" smooth="yes"/>
      <point x="69" y="421"/>
      <point x="125" y="532"/>
      <point x="237" y="532" type="curve" smooth="yes"/>
      <point x="345" y="532"/>
      <point x="402" y="431"/>
      <point x="402" y="291" type="curve" smooth="yes"/>
      <point x="402" y="141"/>
      <point x="342" y="64"/>
      <point x="294" y="10" type="curve"/>
      <point x="313" y="-8" type="line"/>
      <point x="366" y="51"/>
      <point x="429" y="133"/>
      <point x="429" y="292" type="curve" smooth="yes"/>
      <point x="429" y="445"/>
      <point x="361" y="558"/>
    </contour>
  </outline>
</glyph>
<glyph name="lamlym" format="2">
  <advance width="603"/>
  <unicode hex="0D32"/>
  <outline>
    <contour>
      <point x="538" y="546" type="line"/>
      <point x="512" y="546" type="line"/>
      <point x="512" y="26" type="line"/>
      <point x="87" y="26" type="line"/>
      <point x="87" y="236" type="line"/>
      <point x="364" y="236" type="line"/>
      <point x="364" y="345" type="line" smooth="yes"/>
      <point x="364" y="423"/>
      <point x="350" y="477"/>
      <point x="321" y="512" type="curve" smooth="yes"/>
      <point x="295" y="543"/>
      <point x="261" y="558"/>
      <point x="215" y="558" type="curve" smooth="yes"/>
      <point x="170" y="558"/>
      <point x="133" y="545"/>
      <point x="105" y="513" type="curve" smooth="yes"/>
      <point x="73" y="477"/>
      <point x="61" y="419"/>
      <point x="61" y="342" type="curve" smooth="yes"/>
      <point x="61" y="0" type="line"/>
      <point x="538" y="0" type="line"/>
    </contour>
    <contour>
      <point x="214" y="532" type="curve" smooth="yes"/>
      <point x="298" y="532"/>
      <point x="338" y="475"/>
      <point x="338" y="339" type="curve" smooth="yes"/>
      <point x="338" y="262" type="line"/>
      <point x="87" y="262" type="line"/>
      <point x="87" y="340" type="line" smooth="yes"/>
      <point x="87" y="479"/>
      <point x="129" y="532"/>
    </contour>
  </outline>
</glyph>
<glyph name="llamlym" format="2">
  <advance width="510"/>
  <unicode hex="0D33"/>
  <outline>
    <contour>
      <point x="292" y="532" type="curve" smooth="yes"/>
      <point x="379" y="532"/>
      <point x="439" y="482"/>
      <point x="439" y="400" type="curve" smooth="yes"/>
      <point x="439" y="356"/>
      <point x="422" y="326"/>
      <point x="401" y="309" type="curve" smooth="yes"/>
      <point x="380" y="292"/>
      <point x="349" y="283"/>
      <point x="308" y="283" type="curve" smooth="yes"/>
      <point x="305" y="283" type="line"/>
      <point x="305" y="265" type="line"/>
      <point x="346" y="268" type="line"/>
      <point x="446" y="277"/>
      <point x="466" y="350"/>
      <point x="466" y="401" type="curve" smooth="yes"/>
      <point x="466" y="488"/>
      <point x="401" y="558"/>
      <point x="292" y="558" type="curve" smooth="yes"/>
      <point x="126" y="558"/>
      <point x="40" y="430"/>
      <point x="40" y="294" type="curve" smooth="yes"/>
      <point x="40" y="162"/>
      <point x="81" y="102"/>
      <point x="156" y="102" type="curve" smooth="yes"/>
      <point x="216" y="102"/>
      <point x="254" y="155"/>
      <point x="254" y="249" type="curve" smooth="yes"/>
      <point x="254" y="324"/>
      <point x="222" y="385"/>
      <point x="154" y="385" type="curve" smooth="yes"/>
      <point x="108" y="385"/>
      <point x="76" y="362"/>
      <point x="46" y="325" type="curve"/>
      <point x="54" y="303" type="line"/>
      <point x="83" y="338"/>
      <point x="114" y="359"/>
      <point x="153" y="359" type="curve" smooth="yes"/>
      <point x="208" y="359"/>
      <point x="227" y="308"/>
      <point x="227" y="249" type="curve" smooth="yes"/>
      <point x="227" y="171"/>
      <point x="202" y="128"/>
      <point x="154" y="128" type="curve" smooth="yes"/>
      <point x="91" y="128"/>
      <point x="66" y="186"/>
      <point x="66" y="295" type="curve" smooth="yes"/>
      <point x="66" y="306"/>
      <point x="67" y="317"/>
      <point x="68" y="328" type="curve"/>
      <point x="68" y="334"/>
      <point x="68" y="338"/>
      <point x="69" y="343" type="curve"/>
      <point x="87" y="448"/>
      <point x="164" y="532"/>
    </contour>
    <contour>
      <point x="474" y="139" type="curve" smooth="yes"/>
      <point x="474" y="222"/>
      <point x="420" y="267"/>
      <point x="346" y="274" type="curve"/>
      <point x="305" y="268" type="line"/>
      <point x="305" y="257" type="line"/>
      <point x="309" y="257" type="line" smooth="yes"/>
      <point x="353" y="257"/>
      <point x="384" y="248"/>
      <point x="408" y="229" type="curve" smooth="yes"/>
      <point x="433" y="209"/>
      <point x="447" y="177"/>
      <point x="447" y="139" type="curve" smooth="yes"/>
      <point x="447" y="101"/>
      <point x="436" y="71"/>
      <point x="414" y="52" type="curve" smooth="yes"/>
      <point x="392" y="33"/>
      <point x="364" y="26"/>
      <point x="305" y="26" type="curve" smooth="yes"/>
      <point x="219" y="26" type="line" smooth="yes"/>
      <point x="137" y="26"/>
      <point x="100" y="15"/>
      <point x="72" y="-13" type="curve" smooth="yes"/>
      <point x="54" y="-31"/>
      <point x="45" y="-56"/>
      <point x="45" y="-86" type="curve" smooth="yes"/>
      <point x="45" y="-123"/>
      <point x="59" y="-151"/>
      <point x="84" y="-170" type="curve" smooth="yes"/>
      <point x="114" y="-193"/>
      <point x="151" y="-201"/>
      <point x="211" y="-201" type="curve" smooth="yes"/>
      <point x="449" y="-201" type="line"/>
      <point x="449" y="-175" type="line"/>
      <point x="218" y="-175" type="line" smooth="yes"/>
      <point x="157" y="-175"/>
      <point x="123" y="-168"/>
      <point x="100" y="-150" type="curve" smooth="yes"/>
      <point x="82" y="-136"/>
      <point x="72" y="-115"/>
      <point x="72" y="-86" type="curve" smooth="yes"/>
      <point x="72" y="-62"/>
      <point x="79" y="-43"/>
      <point x="91" y="-30" type="curve" smooth="yes"/>
      <point x="115" y="-5"/>
      <point x="154" y="0"/>
      <point x="222" y="0" type="curve" smooth="yes"/>
      <point x="305" y="0" type="line" smooth="yes"/>
      <point x="366" y="0"/>
      <point x="401" y="7"/>
      <point x="433" y="34" type="curve" smooth="yes"/>
      <point x="461" y="57"/>
      <point x="474" y="95"/>
    </contour>
  </outline>
</glyph>
<glyph name="lllamlym" format="2">
  <advance width="468"/>
  <unicode hex="0D34"/>
  <outline>
    <contour>
      <point x="203" y="421" type="curve" smooth="yes"/>
      <point x="203" y="306"/>
      <point x="273" y="214"/>
      <point x="273" y="116" type="curve" smooth="yes"/>
      <point x="273" y="46"/>
      <point x="246" y="14"/>
      <point x="182" y="14" type="curve" smooth="yes"/>
      <point x="151" y="14"/>
      <point x="117" y="22"/>
      <point x="88" y="37" type="curve"/>
      <point x="77" y="13" type="line"/>
      <point x="108" y="-3"/>
      <point x="148" y="-12"/>
      <point x="181" y="-12" type="curve" smooth="yes"/>
      <point x="264" y="-12"/>
      <point x="300" y="36"/>
      <point x="300" y="115" type="curve" smooth="yes"/>
      <point x="300" y="213"/>
      <point x="230" y="311"/>
      <point x="230" y="420" type="curve" smooth="yes"/>
      <point x="230" y="483"/>
      <point x="261" y="532"/>
      <point x="316" y="532" type="curve" smooth="yes"/>
      <point x="373" y="532"/>
      <point x="402" y="477"/>
      <point x="402" y="399" type="curve" smooth="yes"/>
      <point x="402" y="283"/>
      <point x="349" y="195"/>
      <point x="252" y="195" type="curve" smooth="yes"/>
      <point x="241" y="195" type="line" smooth="yes"/>
      <point x="143" y="195"/>
      <point x="66" y="251"/>
      <point x="66" y="392" type="curve" smooth="yes"/>
      <point x="66" y="444"/>
      <point x="77" y="489"/>
      <point x="105" y="544" type="curve"/>
      <point x="82" y="557" type="line"/>
      <point x="55" y="508"/>
      <point x="39" y="451"/>
      <point x="39" y="393" type="curve" smooth="yes"/>
      <point x="39" y="236"/>
      <point x="128" y="169"/>
      <point x="244" y="169" type="curve" smooth="yes"/>
      <point x="250" y="169" type="line" smooth="yes"/>
      <point x="360" y="169"/>
      <point x="429" y="262"/>
      <point x="429" y="400" type="curve" smooth="yes"/>
      <point x="429" y="489"/>
      <point x="389" y="558"/>
      <point x="316" y="558" type="curve" smooth="yes"/>
      <point x="249" y="558"/>
      <point x="203" y="499"/>
    </contour>
  </outline>
</glyph>
<glyph name="vamlym" format="2">
  <advance width="680"/>
  <unicode hex="0D35"/>
  <outline>
    <contour>
      <point x="238" y="558" type="curve" smooth="yes"/>
      <point x="114" y="558"/>
      <point x="42" y="442"/>
      <point x="42" y="291" type="curve" smooth="yes"/>
      <point x="42" y="132"/>
      <point x="105" y="49"/>
      <point x="156" y="-6" type="curve"/>
      <point x="175" y="12" type="line"/>
      <point x="118" y="73"/>
      <point x="69" y="153"/>
      <point x="69" y="291" type="curve" smooth="yes"/>
      <point x="69" y="421"/>
      <point x="125" y="532"/>
      <point x="237" y="532" type="curve" smooth="yes"/>
      <point x="345" y="532"/>
      <point x="402" y="431"/>
      <point x="402" y="291" type="curve" smooth="yes"/>
      <point x="402" y="144"/>
      <point x="342" y="64"/>
      <point x="303" y="21" type="curve"/>
      <point x="315" y="0" type="line"/>
      <point x="615" y="0" type="line"/>
      <point x="615" y="546" type="line"/>
      <point x="589" y="546" type="line"/>
      <point x="589" y="26" type="line"/>
      <point x="328" y="26" type="line"/>
      <point x="325" y="12" type="line"/>
      <point x="364" y="49"/>
      <point x="429" y="133"/>
      <point x="429" y="292" type="curve" smooth="yes"/>
      <point x="429" y="445"/>
      <point x="361" y="558"/>
    </contour>
  </outline>
</glyph>
<glyph name="shamlym" format="2">
  <advance width="715"/>
  <unicode hex="0D36"/>
  <outline>
    <contour>
      <point x="461" y="558" type="curve" smooth="yes"/>
      <point x="422" y="558"/>
      <point x="385" y="545"/>
      <point x="358" y="521" type="curve" smooth="yes"/>
      <point x="318" y="485"/>
      <point x="298" y="436"/>
      <point x="298" y="337" type="curve" smooth="yes"/>
      <point x="298" y="210" type="line" smooth="yes"/>
      <point x="298" y="121"/>
      <point x="289" y="72"/>
      <point x="261" y="41" type="curve" smooth="yes"/>
      <point x="245" y="24"/>
      <point x="225" y="14"/>
      <point x="196" y="14" type="curve" smooth="yes"/>
      <point x="108" y="14"/>
      <point x="69" y="113"/>
      <point x="69" y="243" type="curve" smooth="yes"/>
      <point x="69" y="381"/>
      <point x="114" y="464"/>
      <point x="171" y="536" type="curve"/>
      <point x="150" y="553" type="line"/>
      <point x="98" y="482"/>
      <point x="42" y="402"/>
      <point x="42" y="244" type="curve" smooth="yes"/>
      <point x="42" y="87"/>
      <point x="98" y="-12"/>
      <point x="197" y="-12" type="curve" smooth="yes"/>
      <point x="235" y="-12"/>
      <point x="263" y="4"/>
      <point x="282" y="25" type="curve" smooth="yes"/>
      <point x="318" y="65"/>
      <point x="324" y="125"/>
      <point x="324" y="202" type="curve" smooth="yes"/>
      <point x="324" y="331" type="line" smooth="yes"/>
      <point x="324" y="431"/>
      <point x="341" y="471"/>
      <point x="375" y="502" type="curve" smooth="yes"/>
      <point x="397" y="522"/>
      <point x="427" y="532"/>
      <point x="460" y="532" type="curve" smooth="yes"/>
      <point x="580" y="532"/>
      <point x="626" y="426"/>
      <point x="645" y="314" type="curve" smooth="yes"/>
      <point x="646" y="308"/>
      <point x="645" y="309"/>
      <point x="644" y="306" type="curve"/>
      <point x="646" y="295"/>
      <point x="647" y="258"/>
      <point x="647" y="236" type="curve" smooth="yes"/>
      <point x="647" y="66"/>
      <point x="608" y="14"/>
      <point x="546" y="14" type="curve" smooth="yes"/>
      <point x="472" y="14"/>
      <point x="446" y="80"/>
      <point x="446" y="188" type="curve" smooth="yes"/>
      <point x="446" y="297"/>
      <point x="478" y="354"/>
      <point x="549" y="354" type="curve" smooth="yes"/>
      <point x="606" y="354"/>
      <point x="635" y="316"/>
      <point x="661" y="271" type="curve"/>
      <point x="666" y="295" type="line"/>
      <point x="645" y="339"/>
      <point x="608" y="380"/>
      <point x="547" y="380" type="curve" smooth="yes"/>
      <point x="471" y="380"/>
      <point x="419" y="321"/>
      <point x="419" y="189" type="curve" smooth="yes"/>
      <point x="419" y="64"/>
      <point x="457" y="-12"/>
      <point x="545" y="-12" type="curve" smooth="yes"/>
      <point x="620" y="-12"/>
      <point x="673" y="41"/>
      <point x="673" y="236" type="curve" smooth="yes"/>
      <point x="673" y="428"/>
      <point x="604" y="558"/>
    </contour>
  </outline>
</glyph>
<glyph name="ssamlym" format="2">
  <advance width="790"/>
  <unicode hex="0D37"/>
  <outline>
    <contour>
      <point x="159" y="327" type="curve" smooth="yes"/>
      <point x="85" y="327"/>
      <point x="34" y="267"/>
      <point x="34" y="173" type="curve" smooth="yes"/>
      <point x="34" y="95"/>
      <point x="66" y="40"/>
      <point x="103" y="-8" type="curve"/>
      <point x="123" y="9" type="line"/>
      <point x="91" y="49"/>
      <point x="61" y="101"/>
      <point x="61" y="172" type="curve" smooth="yes"/>
      <point x="61" y="251"/>
      <point x="96" y="301"/>
      <point x="159" y="301" type="curve" smooth="yes"/>
      <point x="217" y="301"/>
      <point x="257" y="261"/>
      <point x="257" y="170" type="curve" smooth="yes"/>
      <point x="257" y="114"/>
      <point x="236" y="60"/>
      <point x="203" y="19" type="curve"/>
      <point x="217" y="0" type="line"/>
      <point x="480" y="0" type="line"/>
      <point x="478" y="26" type="line"/>
      <point x="228" y="26" type="line"/>
      <point x="224" y="10" type="line"/>
      <point x="260" y="50"/>
      <point x="284" y="108"/>
      <point x="284" y="171" type="curve" smooth="yes"/>
      <point x="284" y="273"/>
      <point x="232" y="327"/>
    </contour>
    <contour>
      <point x="466" y="0" type="line"/>
      <point x="725" y="0" type="line"/>
      <point x="725" y="546" type="line"/>
      <point x="700" y="546" type="line"/>
      <point x="646" y="367"/>
      <point x="580" y="279"/>
      <point x="472" y="279" type="curve" smooth="yes"/>
      <point x="461" y="279" type="line" smooth="yes"/>
      <point x="375" y="279"/>
      <point x="333" y="322"/>
      <point x="333" y="415" type="curve" smooth="yes"/>
      <point x="333" y="489"/>
      <point x="363" y="532"/>
      <point x="405" y="532" type="curve" smooth="yes"/>
      <point x="421" y="532"/>
      <point x="433" y="527"/>
      <point x="442" y="518" type="curve" smooth="yes"/>
      <point x="459" y="500"/>
      <point x="466" y="472"/>
      <point x="466" y="409" type="curve" smooth="yes"/>
    </contour>
    <contour>
      <point x="405" y="558" type="curve" smooth="yes"/>
      <point x="341" y="558"/>
      <point x="306" y="491"/>
      <point x="306" y="417" type="curve" smooth="yes"/>
      <point x="306" y="307"/>
      <point x="361" y="253"/>
      <point x="463" y="253" type="curve" smooth="yes"/>
      <point x="469" y="253" type="line" smooth="yes"/>
      <point x="585" y="253"/>
      <point x="658" y="330"/>
      <point x="706" y="498" type="curve"/>
      <point x="702" y="502" type="line"/>
      <point x="699" y="471"/>
      <point x="699" y="428"/>
      <point x="699" y="400" type="curve" smooth="yes"/>
      <point x="699" y="26" type="line"/>
      <point x="492" y="26" type="line"/>
      <point x="492" y="409" type="line" smooth="yes"/>
      <point x="492" y="471"/>
      <point x="488" y="512"/>
      <point x="458" y="539" type="curve" smooth="yes"/>
      <point x="444" y="551"/>
      <point x="427" y="558"/>
    </contour>
  </outline>
</glyph>
<glyph name="samlym" format="2">
  <advance width="864"/>
  <unicode hex="0D38"/>
  <outline>
    <contour>
      <point x="434" y="558" type="curve" smooth="yes"/>
      <point x="364" y="558"/>
      <point x="322" y="518"/>
      <point x="314" y="413" type="curve"/>
      <point x="322" y="422" type="line"/>
      <point x="308" y="518"/>
      <point x="266" y="558"/>
      <point x="198" y="558" type="curve" smooth="yes"/>
      <point x="102" y="558"/>
      <point x="42" y="453"/>
      <point x="42" y="303" type="curve" smooth="yes"/>
      <point x="42" y="145"/>
      <point x="98" y="64"/>
      <point x="150" y="-6" type="curve"/>
      <point x="171" y="10" type="line"/>
      <point x="114" y="82"/>
      <point x="69" y="165"/>
      <point x="69" y="303" type="curve" smooth="yes"/>
      <point x="69" y="428"/>
      <point x="115" y="532"/>
      <point x="196" y="532" type="curve" smooth="yes"/>
      <point x="229" y="532"/>
      <point x="249" y="522"/>
      <point x="265" y="504" type="curve" smooth="yes"/>
      <point x="294" y="472"/>
      <point x="306" y="422"/>
      <point x="306" y="335" type="curve" smooth="yes"/>
      <point x="306" y="0" type="line"/>
      <point x="332" y="0" type="line"/>
      <point x="332" y="338" type="line" smooth="yes"/>
      <point x="332" y="420"/>
      <point x="340" y="476"/>
      <point x="368" y="506" type="curve" smooth="yes"/>
      <point x="383" y="523"/>
      <point x="405" y="532"/>
      <point x="434" y="532" type="curve" smooth="yes"/>
      <point x="463" y="532"/>
      <point x="486" y="522"/>
      <point x="502" y="505" type="curve" smooth="yes"/>
      <point x="530" y="475"/>
      <point x="538" y="428"/>
      <point x="538" y="341" type="curve" smooth="yes"/>
      <point x="538" y="202" type="line" smooth="yes"/>
      <point x="538" y="125"/>
      <point x="544" y="65"/>
      <point x="580" y="25" type="curve" smooth="yes"/>
      <point x="599" y="4"/>
      <point x="628" y="-12"/>
      <point x="666" y="-12" type="curve" smooth="yes"/>
      <point x="766" y="-12"/>
      <point x="822" y="87"/>
      <point x="822" y="244" type="curve" smooth="yes"/>
      <point x="822" y="402"/>
      <point x="766" y="482"/>
      <point x="714" y="553" type="curve"/>
      <point x="693" y="536" type="line"/>
      <point x="750" y="464"/>
      <point x="795" y="381"/>
      <point x="795" y="243" type="curve" smooth="yes"/>
      <point x="795" y="113"/>
      <point x="756" y="14"/>
      <point x="667" y="14" type="curve" smooth="yes"/>
      <point x="638" y="14"/>
      <point x="617" y="24"/>
      <point x="601" y="41" type="curve" smooth="yes"/>
      <point x="573" y="72"/>
      <point x="564" y="121"/>
      <point x="564" y="210" type="curve" smooth="yes"/>
      <point x="564" y="350" type="line" smooth="yes"/>
      <point x="564" y="441"/>
      <point x="556" y="483"/>
      <point x="523" y="520" type="curve" smooth="yes"/>
      <point x="504" y="541"/>
      <point x="473" y="558"/>
    </contour>
  </outline>
</glyph>
<glyph name="hamlym" format="2">
  <advance width="829"/>
  <unicode hex="0D39"/>
  <outline>
    <contour>
      <point x="159" y="327" type="curve" smooth="yes"/>
      <point x="85" y="327"/>
      <point x="34" y="267"/>
      <point x="34" y="173" type="curve" smooth="yes"/>
      <point x="34" y="95"/>
      <point x="66" y="40"/>
      <point x="103" y="-8" type="curve"/>
      <point x="123" y="9" type="line"/>
      <point x="91" y="49"/>
      <point x="61" y="101"/>
      <point x="61" y="172" type="curve" smooth="yes"/>
      <point x="61" y="251"/>
      <point x="96" y="301"/>
      <point x="159" y="301" type="curve" smooth="yes"/>
      <point x="217" y="301"/>
      <point x="257" y="261"/>
      <point x="257" y="170" type="curve" smooth="yes"/>
      <point x="257" y="114"/>
      <point x="236" y="60"/>
      <point x="203" y="19" type="curve"/>
      <point x="217" y="0" type="line"/>
      <point x="516" y="0" type="line"/>
      <point x="512" y="26" type="line"/>
      <point x="228" y="26" type="line"/>
      <point x="224" y="10" type="line"/>
      <point x="260" y="50"/>
      <point x="284" y="108"/>
      <point x="284" y="171" type="curve" smooth="yes"/>
      <point x="284" y="273"/>
      <point x="232" y="327"/>
    </contour>
    <contour>
      <point x="595" y="558" type="curve" smooth="yes"/>
      <point x="472" y="558"/>
      <point x="400" y="442"/>
      <point x="400" y="291" type="curve" smooth="yes"/>
      <point x="400" y="136"/>
      <point x="459" y="63"/>
      <point x="493" y="21" type="curve"/>
      <point x="496" y="0" type="line"/>
      <point x="513" y="0" type="line"/>
      <point x="525" y="21" type="line"/>
      <point x="478" y="72"/>
      <point x="427" y="153"/>
      <point x="427" y="291" type="curve" smooth="yes"/>
      <point x="427" y="421"/>
      <point x="483" y="532"/>
      <point x="595" y="532" type="curve" smooth="yes"/>
      <point x="703" y="532"/>
      <point x="760" y="431"/>
      <point x="760" y="291" type="curve" smooth="yes"/>
      <point x="760" y="141"/>
      <point x="700" y="64"/>
      <point x="652" y="10" type="curve"/>
      <point x="671" y="-8" type="line"/>
      <point x="724" y="51"/>
      <point x="787" y="133"/>
      <point x="787" y="292" type="curve" smooth="yes"/>
      <point x="787" y="445"/>
      <point x="719" y="558"/>
    </contour>
  </outline>
</glyph>
<glyph name="tttamlym" format="2">
  <advance width="544"/>
  <unicode hex="0D3A"/>
  <outline>
    <contour>
      <point x="527" y="26" type="line"/>
      <point x="52" y="26" type="line"/>
      <point x="251" y="549" type="line"/>
      <point x="226" y="558" type="line"/>
      <point x="24" y="24" type="line"/>
      <point x="44" y="0" type="line"/>
      <point x="289" y="0" type="line"/>
      <point x="289" y="-202" type="line"/>
      <point x="315" y="-202" type="line"/>
      <point x="315" y="0" type="line"/>
      <point x="527" y="0" type="line"/>
    </contour>
  </outline>
</glyph>
<glyph name="avagrahamlym" format="2">
  <advance width="316"/>
  <unicode hex="0D3D"/>
  <outline>
    <contour>
      <point x="255" y="784" type="curve" smooth="yes"/>
      <point x="231" y="784"/>
      <point x="208" y="777"/>
      <point x="189" y="761" type="curve" smooth="yes"/>
      <point x="159" y="735"/>
      <point x="145" y="696"/>
      <point x="145" y="609" type="curve" smooth="yes"/>
      <point x="145" y="-62" type="line"/>
      <point x="145" y="-127"/>
      <point x="140" y="-179"/>
      <point x="108" y="-204" type="curve" smooth="yes"/>
      <point x="94" y="-215"/>
      <point x="80" y="-218"/>
      <point x="61" y="-218" type="curve" smooth="yes"/>
      <point x="4" y="-218"/>
      <point x="-17" y="-164"/>
      <point x="-29" y="-97" type="curve"/>
      <point x="-54" y="-103" type="line"/>
      <point x="-44" y="-181"/>
      <point x="-9" y="-244"/>
      <point x="61" y="-244" type="curve" smooth="yes"/>
      <point x="85" y="-244"/>
      <point x="108" y="-237"/>
      <point x="127" y="-221" type="curve" smooth="yes"/>
      <point x="157" y="-195"/>
      <point x="171" y="-156"/>
      <point x="171" y="-69" type="curve" smooth="yes"/>
      <point x="171" y="602" type="line" smooth="yes"/>
      <point x="171" y="667"/>
      <point x="176" y="719"/>
      <point x="208" y="744" type="curve" smooth="yes"/>
      <point x="222" y="755"/>
      <point x="236" y="758"/>
      <point x="255" y="758" type="curve" smooth="yes"/>
      <point x="312" y="758"/>
      <point x="333" y="704"/>
      <point x="345" y="637" type="curve"/>
      <point x="370" y="643" type="line"/>
      <point x="360" y="721"/>
      <point x="325" y="784"/>
    </contour>
  </outline>
</glyph>
<glyph name="aavowelsignmlym" format="2">
  <advance width="359"/>
  <unicode hex="0D3E"/>
  <outline>
    <contour>
      <point x="314" y="275" type="curve" smooth="yes"/>
      <point x="314" y="459"/>
      <point x="270" y="558"/>
      <point x="171" y="558" type="curve" smooth="yes"/>
      <point x="85" y="558"/>
      <point x="46" y="482"/>
      <point x="28" y="387" type="curve"/>
      <point x="54" y="382" type="line"/>
      <point x="71" y="467"/>
      <point x="101" y="532"/>
      <point x="170" y="532" type="curve" smooth="yes"/>
      <point x="253" y="532"/>
      <point x="287" y="446"/>
      <point x="287" y="275" type="curve" smooth="yes"/>
      <point x="287" y="100"/>
      <point x="254" y="14"/>
      <point x="169" y="14" type="curve" smooth="yes"/>
      <point x="99" y="14"/>
      <point x="69" y="79"/>
      <point x="52" y="166" type="curve"/>
      <point x="26" y="161" type="line"/>
      <point x="44" y="64"/>
      <point x="83" y="-12"/>
      <point x="170" y="-12" type="curve" smooth="yes"/>
      <point x="271" y="-12"/>
      <point x="314" y="87"/>
    </contour>
  </outline>
</glyph>
<glyph name="ivowelsignmlym" format="2">
  <advance width="156"/>
  <unicode hex="0D3F"/>
  <outline>
    <contour>
      <point x="-30" y="843" type="curve" smooth="yes"/>
      <point x="-92" y="843"/>
      <point x="-142" y="794"/>
      <point x="-142" y="705" type="curve" smooth="yes"/>
      <point x="-142" y="671"/>
      <point x="-139" y="650"/>
      <point x="-136" y="632" type="curve"/>
      <point x="-109" y="635" type="line"/>
      <point x="-112" y="652"/>
      <point x="-115" y="673"/>
      <point x="-115" y="705" type="curve" smooth="yes"/>
      <point x="-115" y="783"/>
      <point x="-77" y="817"/>
      <point x="-29" y="817" type="curve" smooth="yes"/>
      <point x="-6" y="817"/>
      <point x="9" y="812"/>
      <point x="23" y="800" type="curve" smooth="yes"/>
      <point x="58" y="770"/>
      <point x="65" y="711"/>
      <point x="65" y="620" type="curve" smooth="yes"/>
      <point x="65" y="0" type="line"/>
      <point x="91" y="0" type="line"/>
      <point x="91" y="633" type="line" smooth="yes"/>
      <point x="91" y="739"/>
      <point x="77" y="789"/>
      <point x="38" y="821" type="curve" smooth="yes"/>
      <point x="20" y="835"/>
      <point x="-3" y="843"/>
    </contour>
  </outline>
</glyph>
<glyph name="iivowelsignmlym" format="2">
  <advance width="156"/>
  <unicode hex="0D40"/>
  <outline>
    <contour>
      <point x="-84" y="843" type="curve" smooth="yes"/>
      <point x="-149" y="843"/>
      <point x="-211" y="801"/>
      <point x="-211" y="713" type="curve" smooth="yes"/>
      <point x="-211" y="640"/>
      <point x="-175" y="598"/>
      <point x="-119" y="598" type="curve" smooth="yes"/>
      <point x="-59" y="598"/>
      <point x="-30" y="647"/>
      <point x="-30" y="710" type="curve" smooth="yes"/>
      <point x="-30" y="759"/>
      <point x="-50" y="797"/>
      <point x="-73" y="825" type="curve"/>
      <point x="-103" y="823" type="line"/>
      <point x="-75" y="794"/>
      <point x="-56" y="755"/>
      <point x="-56" y="708" type="curve" smooth="yes"/>
      <point x="-56" y="654"/>
      <point x="-76" y="624"/>
      <point x="-119" y="624" type="curve" smooth="yes"/>
      <point x="-157" y="624"/>
      <point x="-184" y="646"/>
      <point x="-184" y="713" type="curve" smooth="yes"/>
      <point x="-184" y="785"/>
      <point x="-139" y="818"/>
      <point x="-84" y="818" type="curve" smooth="yes"/>
      <point x="-44" y="818"/>
      <point x="-19" y="808"/>
      <point x="2" y="792" type="curve" smooth="yes"/>
      <point x="55" y="751"/>
      <point x="65" y="683"/>
      <point x="65" y="576" type="curve" smooth="yes"/>
      <point x="65" y="0" type="line"/>
      <point x="91" y="0" type="line"/>
      <point x="91" y="590" type="line" smooth="yes"/>
      <point x="91" y="710"/>
      <point x="72" y="779"/>
      <point x="7" y="820" type="curve" smooth="yes"/>
      <point x="-17" y="835"/>
      <point x="-47" y="843"/>
    </contour>
  </outline>
</glyph>
<glyph name="uvowelsignmlym" format="2">
  <advance width="218"/>
  <unicode hex="0D41"/>
  <outline>
    <contour>
      <point x="104" y="-220" type="curve" smooth="yes"/>
      <point x="178" y="-220"/>
      <point x="221" y="-156"/>
      <point x="221" y="-54" type="curve" smooth="yes"/>
      <point x="221" y="49"/>
      <point x="179" y="110"/>
      <point x="103" y="110" type="curve" smooth="yes"/>
      <point x="31" y="110"/>
      <point x="-13" y="50"/>
      <point x="-13" y="-55" type="curve" smooth="yes"/>
      <point x="-13" y="-157"/>
      <point x="29" y="-220"/>
    </contour>
    <contour>
      <point x="104" y="-194" type="curve" smooth="yes"/>
      <point x="45" y="-194"/>
      <point x="14" y="-145"/>
      <point x="14" y="-55" type="curve" smooth="yes"/>
      <point x="14" y="35"/>
      <point x="45" y="85"/>
      <point x="103" y="85" type="curve" smooth="yes"/>
      <point x="163" y="85"/>
      <point x="194" y="37"/>
      <point x="194" y="-54" type="curve" smooth="yes"/>
      <point x="194" y="-147"/>
      <point x="161" y="-194"/>
    </contour>
    <contour>
      <point x="64" y="558" type="curve" smooth="yes"/>
      <point x="46" y="558"/>
      <point x="21" y="554"/>
      <point x="7" y="550" type="curve"/>
      <point x="14" y="525" type="line"/>
      <point x="30" y="530"/>
      <point x="46" y="532"/>
      <point x="64" y="532" type="curve" smooth="yes"/>
      <point x="119" y="532"/>
      <point x="147" y="493"/>
      <point x="147" y="413" type="curve" smooth="yes"/>
      <point x="147" y="332"/>
      <point x="126" y="219"/>
      <point x="95" y="93" type="curve"/>
      <point x="120" y="87" type="line"/>
      <point x="151" y="213"/>
      <point x="174" y="324"/>
      <point x="174" y="416" type="curve" smooth="yes"/>
      <point x="174" y="498"/>
      <point x="140" y="558"/>
    </contour>
  </outline>
</glyph>
<glyph name="uuvowelsignmlym" format="2">
  <advance width="218"/>
  <unicode hex="0D42"/>
  <outline>
    <contour>
      <point x="104" y="-220" type="curve" smooth="yes"/>
      <point x="178" y="-220"/>
      <point x="221" y="-156"/>
      <point x="221" y="-54" type="curve" smooth="yes"/>
      <point x="221" y="49"/>
      <point x="179" y="110"/>
      <point x="103" y="110" type="curve" smooth="yes"/>
      <point x="31" y="110"/>
      <point x="-13" y="50"/>
      <point x="-13" y="-55" type="curve" smooth="yes"/>
      <point x="-13" y="-157"/>
      <point x="29" y="-220"/>
    </contour>
    <contour>
      <point x="103" y="85" type="curve" smooth="yes"/>
      <point x="165" y="85"/>
      <point x="196" y="46"/>
      <point x="196" y="-54" type="curve" smooth="yes"/>
      <point x="196" y="-147"/>
      <point x="162" y="-194"/>
      <point x="104" y="-194" type="curve" smooth="yes"/>
      <point x="44" y="-194"/>
      <point x="12" y="-145"/>
      <point x="12" y="-55" type="curve" smooth="yes"/>
      <point x="12" y="45"/>
      <point x="45" y="85"/>
    </contour>
    <contour>
      <point x="104" y="-85" type="curve" smooth="yes"/>
      <point x="168" y="-85"/>
      <point x="189" y="-45"/>
      <point x="189" y="5" type="curve" smooth="yes"/>
      <point x="189" y="38"/>
      <point x="171" y="65"/>
      <point x="152" y="90" type="curve"/>
      <point x="143" y="83" type="line"/>
      <point x="164" y="58"/>
      <point x="172" y="38"/>
      <point x="172" y="9" type="curve" smooth="yes"/>
      <point x="172" y="-25"/>
      <point x="154" y="-60"/>
      <point x="104" y="-60" type="curve" smooth="yes"/>
      <point x="53" y="-60"/>
      <point x="35" y="-25"/>
      <point x="35" y="9" type="curve" smooth="yes"/>
      <point x="35" y="40"/>
      <point x="43" y="58"/>
      <point x="63" y="83" type="curve"/>
      <point x="55" y="90" type="line"/>
      <point x="36" y="65"/>
      <point x="18" y="38"/>
      <point x="18" y="5" type="curve" smooth="yes"/>
      <point x="18" y="-46"/>
      <point x="42" y="-85"/>
    </contour>
    <contour>
      <point x="64" y="558" type="curve" smooth="yes"/>
      <point x="46" y="558"/>
      <point x="21" y="554"/>
      <point x="7" y="550" type="curve"/>
      <point x="14" y="525" type="line"/>
      <point x="30" y="530"/>
      <point x="46" y="532"/>
      <point x="64" y="532" type="curve" smooth="yes"/>
      <point x="119" y="532"/>
      <point x="147" y="493"/>
      <point x="147" y="413" type="curve" smooth="yes"/>
      <point x="147" y="332"/>
      <point x="126" y="219"/>
      <point x="95" y="93" type="curve"/>
      <point x="120" y="87" type="line"/>
      <point x="151" y="213"/>
      <point x="174" y="324"/>
      <point x="174" y="416" type="curve" smooth="yes"/>
      <point x="174" y="498"/>
      <point x="140" y="558"/>
    </contour>
  </outline>
</glyph>
<glyph name="rvocalicvowelsignmlym" format="2">
  <advance width="168"/>
  <unicode hex="0D43"/>
  <outline>
    <contour>
      <point x="19" y="-298" type="curve" smooth="yes"/>
      <point x="101" y="-298"/>
      <point x="159" y="-244"/>
      <point x="159" y="-126" type="curve" smooth="yes"/>
      <point x="159" y="-72"/>
      <point x="148" y="-22"/>
      <point x="110" y="104" type="curve" smooth="yes"/>
      <point x="85" y="188"/>
      <point x="71" y="238"/>
      <point x="71" y="301" type="curve" smooth="yes"/>
      <point x="71" y="384"/>
      <point x="92" y="450"/>
      <point x="135" y="546" type="curve"/>
      <point x="106" y="546" type="line"/>
      <point x="70" y="463"/>
      <point x="45" y="387"/>
      <point x="45" y="299" type="curve" smooth="yes"/>
      <point x="45" y="233"/>
      <point x="60" y="173"/>
      <point x="85" y="95" type="curve" smooth="yes"/>
      <point x="119" y="-11"/>
      <point x="133" y="-66"/>
      <point x="133" y="-125" type="curve" smooth="yes"/>
      <point x="133" y="-240"/>
      <point x="78" y="-272"/>
      <point x="19" y="-272" type="curve" smooth="yes"/>
      <point x="-33" y="-272"/>
      <point x="-75" y="-243"/>
      <point x="-75" y="-171" type="curve" smooth="yes"/>
      <point x="-75" y="-100"/>
      <point x="-36" y="-70"/>
      <point x="15" y="-70" type="curve" smooth="yes"/>
      <point x="63" y="-70"/>
      <point x="105" y="-94"/>
      <point x="147" y="-135" type="curve"/>
      <point x="153" y="-110" type="line"/>
      <point x="117" y="-72"/>
      <point x="73" y="-44"/>
      <point x="14" y="-44" type="curve" smooth="yes"/>
      <point x="-54" y="-44"/>
      <point x="-102" y="-93"/>
      <point x="-102" y="-170" type="curve" smooth="yes"/>
      <point x="-102" y="-256"/>
      <point x="-48" y="-298"/>
    </contour>
  </outline>
</glyph>
<glyph name="rrvocalicvowelsignmlym" format="2">
  <advance width="168"/>
  <unicode hex="0D44"/>
  <outline>
    <contour>
      <point x="-26" y="-298" type="curve" smooth="yes"/>
      <point x="86" y="-298"/>
      <point x="159" y="-246"/>
      <point x="159" y="-126" type="curve" smooth="yes"/>
      <point x="159" y="-72"/>
      <point x="148" y="-22"/>
      <point x="110" y="104" type="curve" smooth="yes"/>
      <point x="90" y="170"/>
      <point x="70" y="220"/>
      <point x="70" y="298" type="curve" smooth="yes"/>
      <point x="70" y="382"/>
      <point x="86" y="450"/>
      <point x="126" y="546" type="curve"/>
      <point x="97" y="546" type="line"/>
      <point x="63" y="460"/>
      <point x="44" y="387"/>
      <point x="44" y="297" type="curve" smooth="yes"/>
      <point x="44" y="227"/>
      <point x="60" y="173"/>
      <point x="85" y="95" type="curve" smooth="yes"/>
      <point x="119" y="-11"/>
      <point x="133" y="-66"/>
      <point x="133" y="-125" type="curve" smooth="yes"/>
      <point x="133" y="-233"/>
      <point x="70" y="-272"/>
      <point x="-24" y="-272" type="curve" smooth="yes"/>
      <point x="-103" y="-272"/>
      <point x="-164" y="-236"/>
      <point x="-164" y="-149" type="curve" smooth="yes"/>
      <point x="-164" y="-97"/>
      <point x="-140" y="-74"/>
      <point x="-110" y="-74" type="curve" smooth="yes"/>
      <point x="-78" y="-74"/>
      <point x="-64" y="-99"/>
      <point x="-64" y="-151" type="curve" smooth="yes"/>
      <point x="-64" y="-174" type="line"/>
      <point x="-38" y="-174" type="line"/>
      <point x="-38" y="-151" type="line" smooth="yes"/>
      <point x="-38" y="-101"/>
      <point x="-23" y="-74"/>
      <point x="10" y="-74" type="curve" smooth="yes"/>
      <point x="41" y="-74"/>
      <point x="55" y="-102"/>
      <point x="55" y="-151" type="curve" smooth="yes"/>
      <point x="55" y="-174" type="line"/>
      <point x="81" y="-174" type="line"/>
      <point x="81" y="-148" type="line" smooth="yes"/>
      <point x="81" y="-91"/>
      <point x="58" y="-48"/>
      <point x="11" y="-48" type="curve" smooth="yes"/>
      <point x="-19" y="-48"/>
      <point x="-46" y="-69"/>
      <point x="-56" y="-108" type="curve"/>
      <point x="-48" y="-109" type="line"/>
      <point x="-56" y="-70"/>
      <point x="-78" y="-48"/>
      <point x="-110" y="-48" type="curve" smooth="yes"/>
      <point x="-157" y="-48"/>
      <point x="-190" y="-88"/>
      <point x="-190" y="-148" type="curve" smooth="yes"/>
      <point x="-190" y="-250"/>
      <point x="-118" y="-298"/>
    </contour>
  </outline>
</glyph>
<glyph name="evowelsignmlym" format="2">
  <advance width="498"/>
  <unicode hex="0D46"/>
  <outline>
    <contour>
      <point x="166" y="-12" type="curve" smooth="yes"/>
      <point x="223" y="-12"/>
      <point x="271" y="29"/>
      <point x="271" y="151" type="curve" smooth="yes"/>
      <point x="271" y="257"/>
      <point x="223" y="302"/>
      <point x="163" y="302" type="curve" smooth="yes"/>
      <point x="123" y="302"/>
      <point x="88" y="284"/>
      <point x="47" y="235" type="curve"/>
      <point x="56" y="212" type="line"/>
      <point x="87" y="252"/>
      <point x="118" y="276"/>
      <point x="163" y="276" type="curve" smooth="yes"/>
      <point x="218" y="276"/>
      <point x="244" y="229"/>
      <point x="244" y="151" type="curve" smooth="yes"/>
      <point x="244" y="42"/>
      <point x="208" y="14"/>
      <point x="166" y="14" type="curve" smooth="yes"/>
      <point x="104" y="14"/>
      <point x="68" y="66"/>
      <point x="68" y="229" type="curve" smooth="yes"/>
      <point x="68" y="422"/>
      <point x="147" y="532"/>
      <point x="259" y="532" type="curve" smooth="yes"/>
      <point x="373" y="532"/>
      <point x="429" y="431"/>
      <point x="429" y="291" type="curve" smooth="yes"/>
      <point x="429" y="141"/>
      <point x="369" y="64"/>
      <point x="321" y="10" type="curve"/>
      <point x="340" y="-8" type="line"/>
      <point x="393" y="51"/>
      <point x="456" y="133"/>
      <point x="456" y="292" type="curve" smooth="yes"/>
      <point x="456" y="445"/>
      <point x="388" y="558"/>
      <point x="259" y="558" type="curve" smooth="yes"/>
      <point x="135" y="558"/>
      <point x="42" y="444"/>
      <point x="42" y="229" type="curve" smooth="yes"/>
      <point x="42" y="37"/>
      <point x="94" y="-12"/>
    </contour>
  </outline>
</glyph>
<glyph name="eevowelsignmlym" format="2">
  <advance width="411"/>
  <unicode hex="0D47"/>
  <outline>
    <contour>
      <point x="250" y="-12" type="curve" smooth="yes"/>
      <point x="332" y="-12"/>
      <point x="372" y="45"/>
      <point x="372" y="120" type="curve" smooth="yes"/>
      <point x="372" y="197"/>
      <point x="334" y="234"/>
      <point x="284" y="234" type="curve" smooth="yes"/>
      <point x="224" y="234"/>
      <point x="191" y="190"/>
      <point x="191" y="123" type="curve" smooth="yes"/>
      <point x="191" y="72"/>
      <point x="214" y="30"/>
      <point x="233" y="1" type="curve"/>
      <point x="261" y="2" type="line"/>
      <point x="237" y="29"/>
      <point x="217" y="78"/>
      <point x="217" y="121" type="curve" smooth="yes"/>
      <point x="217" y="177"/>
      <point x="239" y="208"/>
      <point x="284" y="208" type="curve" smooth="yes"/>
      <point x="323" y="208"/>
      <point x="345" y="180"/>
      <point x="345" y="120" type="curve" smooth="yes"/>
      <point x="345" y="54"/>
      <point x="312" y="13"/>
      <point x="249" y="13" type="curve" smooth="yes"/>
      <point x="245" y="13"/>
      <point x="239" y="13"/>
      <point x="233" y="13" type="curve"/>
      <point x="136" y="27"/>
      <point x="69" y="111"/>
      <point x="69" y="278" type="curve" smooth="yes"/>
      <point x="69" y="406"/>
      <point x="126" y="517"/>
      <point x="238" y="533" type="curve"/>
      <point x="244" y="533"/>
      <point x="249" y="533"/>
      <point x="255" y="533" type="curve" smooth="yes"/>
      <point x="317" y="533"/>
      <point x="350" y="491"/>
      <point x="350" y="426" type="curve" smooth="yes"/>
      <point x="350" y="366"/>
      <point x="328" y="338"/>
      <point x="289" y="338" type="curve" smooth="yes"/>
      <point x="244" y="338"/>
      <point x="222" y="369"/>
      <point x="222" y="425" type="curve" smooth="yes"/>
      <point x="222" y="468"/>
      <point x="242" y="517"/>
      <point x="266" y="544" type="curve"/>
      <point x="238" y="545" type="line"/>
      <point x="216" y="514"/>
      <point x="196" y="474"/>
      <point x="196" y="423" type="curve" smooth="yes"/>
      <point x="196" y="356"/>
      <point x="229" y="312"/>
      <point x="289" y="312" type="curve" smooth="yes"/>
      <point x="339" y="312"/>
      <point x="377" y="349"/>
      <point x="377" y="426" type="curve" smooth="yes"/>
      <point x="377" y="500"/>
      <point x="337" y="558"/>
      <point x="255" y="558" type="curve" smooth="yes"/>
      <point x="154" y="558"/>
      <point x="42" y="472"/>
      <point x="42" y="278" type="curve" smooth="yes"/>
      <point x="42" y="75"/>
      <point x="140" y="-12"/>
    </contour>
  </outline>
</glyph>
<glyph name="viramamlym" format="2">
  <unicode hex="0D4D"/>
  <outline>
    <contour>
      <point x="-83" y="601" type="curve" smooth="yes"/>
      <point x="-15" y="601"/>
      <point x="32" y="640"/>
      <point x="32" y="740" type="curve" smooth="yes"/>
      <point x="32" y="764"/>
      <point x="28" y="789"/>
      <point x="24" y="805" type="curve"/>
      <point x="-1" y="801" type="line"/>
      <point x="3" y="785"/>
      <point x="6" y="763"/>
      <point x="6" y="740" type="curve" smooth="yes"/>
      <point x="6" y="657"/>
      <point x="-25" y="627"/>
      <point x="-83" y="627" type="curve" smooth="yes"/>
      <point x="-138" y="627"/>
      <point x="-172" y="655"/>
      <point x="-172" y="739" type="curve" smooth="yes"/>
      <point x="-172" y="763"/>
      <point x="-169" y="784"/>
      <point x="-165" y="801" type="curve"/>
      <point x="-190" y="805" type="line"/>
      <point x="-194" y="787"/>
      <point x="-198" y="764"/>
      <point x="-198" y="739" type="curve" smooth="yes"/>
      <point x="-198" y="641"/>
      <point x="-151" y="601"/>
    </contour>
  </outline>
</glyph>
<glyph name="rephmlym" format="2">
  <unicode hex="0D4E"/>
  <outline>
    <contour>
      <point x="-262" y="796" type="line"/>
      <point x="-296" y="796" type="line"/>
      <point x="-291" y="624" type="line"/>
      <point x="-267" y="624" type="line"/>
    </contour>
  </outline>
</glyph>
<glyph name="uni0D4F" format="2">
  <advance width="884"/>
  <unicode hex="0D4F"/>
  <outline>
    <contour>
      <point x="418" y="558" type="curve" smooth="yes"/>
      <point x="302" y="558"/>
      <point x="217" y="440"/>
      <point x="217" y="225" type="curve" smooth="yes"/>
      <point x="217" y="39"/>
      <point x="269" y="-12"/>
      <point x="341" y="-12" type="curve" smooth="yes"/>
      <point x="398" y="-12"/>
      <point x="446" y="29"/>
      <point x="446" y="151" type="curve" smooth="yes"/>
      <point x="446" y="257"/>
      <point x="398" y="302"/>
      <point x="338" y="302" type="curve" smooth="yes"/>
      <point x="298" y="302"/>
      <point x="263" y="284"/>
      <point x="222" y="235" type="curve"/>
      <point x="231" y="212" type="line"/>
      <point x="262" y="252"/>
      <point x="293" y="276"/>
      <point x="338" y="276" type="curve" smooth="yes"/>
      <point x="393" y="276"/>
      <point x="419" y="229"/>
      <point x="419" y="151" type="curve" smooth="yes"/>
      <point x="419" y="42"/>
      <point x="383" y="14"/>
      <point x="341" y="14" type="curve" smooth="yes"/>
      <point x="279" y="14"/>
      <point x="243" y="66"/>
      <point x="243" y="222" type="curve" smooth="yes"/>
      <point x="243" y="237" type="line" smooth="yes"/>
      <point x="243" y="414"/>
      <point x="313" y="532"/>
      <point x="418" y="532" type="curve" smooth="yes"/>
      <point x="455" y="532"/>
      <point x="481" y="522"/>
      <point x="500" y="504" type="curve" smooth="yes"/>
      <point x="536" y="471"/>
      <point x="546" y="418"/>
      <point x="546" y="325" type="curve" smooth="yes"/>
      <point x="546" y="0" type="line"/>
      <point x="572" y="0" type="line"/>
      <point x="572" y="335" type="line" smooth="yes"/>
      <point x="572" y="422"/>
      <point x="584" y="472"/>
      <point x="613" y="504" type="curve" smooth="yes"/>
      <point x="629" y="522"/>
      <point x="649" y="532"/>
      <point x="681" y="532" type="curve" smooth="yes"/>
      <point x="763" y="532"/>
      <point x="810" y="433"/>
      <point x="810" y="233" type="curve" smooth="yes"/>
      <point x="810" y="-45"/>
      <point x="702" y="-197"/>
      <point x="451" y="-197" type="curve" smooth="yes"/>
      <point x="155" y="-197"/>
      <point x="77" y="11"/>
      <point x="77" y="220" type="curve" smooth="yes"/>
      <point x="77" y="335"/>
      <point x="98" y="426"/>
      <point x="131" y="519" type="curve"/>
      <point x="106" y="528" type="line"/>
      <point x="72" y="429"/>
      <point x="50" y="341"/>
      <point x="50" y="220" type="curve" smooth="yes"/>
      <point x="50" y="-4"/>
      <point x="141" y="-223"/>
      <point x="451" y="-223" type="curve" smooth="yes"/>
      <point x="721" y="-223"/>
      <point x="837" y="-52"/>
      <point x="837" y="228" type="curve" smooth="yes"/>
      <point x="837" y="461"/>
      <point x="776" y="558"/>
      <point x="680" y="558" type="curve" smooth="yes"/>
      <point x="612" y="558"/>
      <point x="570" y="518"/>
      <point x="556" y="423" type="curve"/>
      <point x="563" y="413" type="line"/>
      <point x="552" y="506"/>
      <point x="506" y="558"/>
    </contour>
  </outline>
</glyph>
<glyph name="machillumlym" format="2">
  <advance width="439"/>
  <unicode hex="0D54"/>
  <outline>
    <contour>
      <point x="95" y="792" type="curve" smooth="yes"/>
      <point x="72" y="792"/>
      <point x="45" y="786"/>
      <point x="27" y="780" type="curve"/>
      <point x="34" y="755" type="line"/>
      <point x="53" y="761"/>
      <point x="75" y="766"/>
      <point x="95" y="766" type="curve" smooth="yes"/>
      <point x="117" y="766"/>
      <point x="131" y="761"/>
      <point x="143" y="753" type="curve" smooth="yes"/>
      <point x="171" y="733"/>
      <point x="177" y="700"/>
      <point x="177" y="642" type="curve" smooth="yes"/>
      <point x="177" y="511" type="line" smooth="yes"/>
      <point x="177" y="372"/>
      <point x="199" y="307"/>
      <point x="264" y="207" type="curve"/>
      <point x="269" y="200" type="line"/>
      <point x="304" y="149"/>
      <point x="345" y="94"/>
      <point x="401" y="21" type="curve"/>
      <point x="415" y="23" type="line"/>
      <point x="395" y="26"/>
      <point x="367" y="26"/>
      <point x="338" y="26" type="curve" smooth="yes"/>
      <point x="202" y="26" type="line" smooth="yes"/>
      <point x="162" y="26"/>
      <point x="136" y="25"/>
      <point x="108" y="22" type="curve"/>
      <point x="109" y="11" type="line"/>
      <point x="165" y="62"/>
      <point x="228" y="124"/>
      <point x="278" y="197" type="curve"/>
      <point x="284" y="206" type="line"/>
      <point x="320" y="263"/>
      <point x="344" y="323"/>
      <point x="344" y="391" type="curve" smooth="yes"/>
      <point x="344" y="487"/>
      <point x="305" y="555"/>
      <point x="219" y="555" type="curve" smooth="yes"/>
      <point x="168" y="555"/>
      <point x="127" y="530"/>
      <point x="101" y="490" type="curve"/>
      <point x="66" y="436"/>
      <point x="56" y="374"/>
      <point x="56" y="280" type="curve" smooth="yes"/>
      <point x="56" y="0" type="line"/>
      <point x="418" y="0" type="line"/>
      <point x="430" y="25" type="line"/>
      <point x="366" y="108"/>
      <point x="321" y="168"/>
      <point x="283" y="223" type="curve"/>
      <point x="277" y="231" type="line"/>
      <point x="222" y="318"/>
      <point x="203" y="389"/>
      <point x="203" y="520" type="curve" smooth="yes"/>
      <point x="203" y="646" type="line" smooth="yes"/>
      <point x="203" y="714"/>
      <point x="192" y="747"/>
      <point x="162" y="771" type="curve" smooth="yes"/>
      <point x="146" y="784"/>
      <point x="123" y="792"/>
    </contour>
    <contour>
      <point x="82" y="26" type="line"/>
      <point x="82" y="265" type="line" smooth="yes"/>
      <point x="82" y="363"/>
      <point x="91" y="431"/>
      <point x="127" y="482" type="curve" smooth="yes"/>
      <point x="148" y="512"/>
      <point x="181" y="530"/>
      <point x="217" y="530" type="curve" smooth="yes"/>
      <point x="286" y="530"/>
      <point x="317" y="479"/>
      <point x="317" y="391" type="curve" smooth="yes"/>
      <point x="317" y="334"/>
      <point x="298" y="279"/>
      <point x="268" y="228" type="curve"/>
      <point x="262" y="218" type="line"/>
      <point x="215" y="146"/>
      <point x="152" y="81"/>
      <point x="90" y="26" type="curve"/>
    </contour>
  </outline>
</glyph>
<glyph name="yachillumlym" format="2">
  <advance width="722"/>
  <unicode hex="0D55"/>
  <outline>
    <contour>
      <point x="491" y="-12" type="curve" smooth="yes"/>
      <point x="619" y="-12"/>
      <point x="679" y="71"/>
      <point x="679" y="213" type="curve" smooth="yes"/>
      <point x="679" y="290"/>
      <point x="656" y="368"/>
      <point x="608" y="468" type="curve" smooth="yes"/>
      <point x="553" y="582"/>
      <point x="538" y="622"/>
      <point x="538" y="671" type="curve" smooth="yes"/>
      <point x="538" y="720"/>
      <point x="561" y="766"/>
      <point x="624" y="766" type="curve" smooth="yes"/>
      <point x="649" y="766"/>
      <point x="665" y="763"/>
      <point x="684" y="757" type="curve"/>
      <point x="691" y="782" type="line"/>
      <point x="670" y="789"/>
      <point x="649" y="792"/>
      <point x="625" y="792" type="curve" smooth="yes"/>
      <point x="553" y="792"/>
      <point x="511" y="739"/>
      <point x="511" y="670" type="curve" smooth="yes"/>
      <point x="511" y="617"/>
      <point x="532" y="563"/>
      <point x="584" y="457" type="curve" smooth="yes"/>
      <point x="631" y="361"/>
      <point x="652" y="288"/>
      <point x="652" y="213" type="curve" smooth="yes"/>
      <point x="652" y="91"/>
      <point x="610" y="14"/>
      <point x="492" y="14" type="curve" smooth="yes"/>
      <point x="444" y="14"/>
      <point x="414" y="22"/>
      <point x="389" y="39" type="curve"/>
      <point x="386" y="41"/>
      <point x="382" y="43"/>
      <point x="380" y="45" type="curve"/>
      <point x="300" y="107"/>
      <point x="271" y="243"/>
      <point x="271" y="344" type="curve" smooth="yes"/>
      <point x="271" y="475"/>
      <point x="310" y="532"/>
      <point x="375" y="532" type="curve" smooth="yes"/>
      <point x="440" y="532"/>
      <point x="476" y="475"/>
      <point x="476" y="342" type="curve" smooth="yes"/>
      <point x="476" y="219"/>
      <point x="447" y="97"/>
      <point x="367" y="44" type="curve"/>
      <point x="364" y="42"/>
      <point x="360" y="40"/>
      <point x="357" y="38" type="curve"/>
      <point x="330" y="23"/>
      <point x="297" y="14"/>
      <point x="258" y="14" type="curve" smooth="yes"/>
      <point x="135" y="14"/>
      <point x="69" y="134"/>
      <point x="69" y="325" type="curve" smooth="yes"/>
      <point x="69" y="476"/>
      <point x="126" y="532"/>
      <point x="191" y="532" type="curve" smooth="yes"/>
      <point x="227" y="532"/>
      <point x="255" y="512"/>
      <point x="277" y="481" type="curve"/>
      <point x="295" y="500" type="line"/>
      <point x="273" y="528"/>
      <point x="241" y="558"/>
      <point x="189" y="558" type="curve" smooth="yes"/>
      <point x="108" y="558"/>
      <point x="42" y="484"/>
      <point x="42" y="326" type="curve" smooth="yes"/>
      <point x="42" y="114"/>
      <point x="123" y="-12"/>
      <point x="259" y="-12" type="curve" smooth="yes"/>
      <point x="308" y="-12"/>
      <point x="348" y="1"/>
      <point x="381" y="24" type="curve"/>
      <point x="383" y="26"/>
      <point x="386" y="27"/>
      <point x="388" y="29" type="curve"/>
      <point x="470" y="88"/>
      <point x="503" y="207"/>
      <point x="503" y="342" type="curve" smooth="yes"/>
      <point x="503" y="490"/>
      <point x="454" y="558"/>
      <point x="375" y="558" type="curve" smooth="yes"/>
      <point x="333" y="558"/>
      <point x="302" y="540"/>
      <point x="280" y="505" type="curve" smooth="yes"/>
      <point x="273" y="495" type="line"/>
      <point x="253" y="459"/>
      <point x="244" y="408"/>
      <point x="244" y="345" type="curve" smooth="yes"/>
      <point x="244" y="231"/>
      <point x="276" y="99"/>
      <point x="360" y="29" type="curve"/>
      <point x="363" y="27"/>
      <point x="366" y="24"/>
      <point x="369" y="22" type="curve"/>
      <point x="399" y="0"/>
      <point x="436" y="-12"/>
    </contour>
  </outline>
</glyph>
<glyph name="lllachillumlym" format="2">
  <advance width="492"/>
  <unicode hex="0D56"/>
  <outline>
    <contour>
      <point x="123" y="137" type="curve" smooth="yes"/>
      <point x="123" y="203"/>
      <point x="136" y="247"/>
      <point x="206" y="431" type="curve" smooth="yes"/>
      <point x="253" y="555"/>
      <point x="268" y="617"/>
      <point x="268" y="677" type="curve" smooth="yes"/>
      <point x="268" y="733"/>
      <point x="239" y="792"/>
      <point x="162" y="792" type="curve" smooth="yes"/>
      <point x="139" y="792"/>
      <point x="116" y="787"/>
      <point x="91" y="779" type="curve"/>
      <point x="98" y="754" type="line"/>
      <point x="119" y="761"/>
      <point x="139" y="766"/>
      <point x="162" y="766" type="curve" smooth="yes"/>
      <point x="220" y="766"/>
      <point x="241" y="727"/>
      <point x="241" y="676" type="curve" smooth="yes"/>
      <point x="241" y="618"/>
      <point x="226" y="560"/>
      <point x="181" y="440" type="curve" smooth="yes"/>
      <point x="115" y="264"/>
      <point x="96" y="202"/>
      <point x="96" y="137" type="curve" smooth="yes"/>
      <point x="96" y="43"/>
      <point x="135" y="-12"/>
      <point x="218" y="-12" type="curve" smooth="yes"/>
      <point x="287" y="-12"/>
      <point x="324" y="37"/>
      <point x="324" y="115" type="curve" smooth="yes"/>
      <point x="324" y="213"/>
      <point x="254" y="310"/>
      <point x="254" y="420" type="curve" smooth="yes"/>
      <point x="254" y="483"/>
      <point x="285" y="532"/>
      <point x="340" y="532" type="curve" smooth="yes"/>
      <point x="397" y="532"/>
      <point x="426" y="477"/>
      <point x="426" y="399" type="curve" smooth="yes"/>
      <point x="426" y="283"/>
      <point x="374" y="195"/>
      <point x="265" y="195" type="curve" smooth="yes"/>
      <point x="253" y="195" type="line" smooth="yes"/>
      <point x="204" y="195"/>
      <point x="161" y="206"/>
      <point x="129" y="231" type="curve"/>
      <point x="120" y="238" type="line"/>
      <point x="86" y="271"/>
      <point x="66" y="319"/>
      <point x="66" y="392" type="curve" smooth="yes"/>
      <point x="66" y="444"/>
      <point x="77" y="489"/>
      <point x="105" y="544" type="curve"/>
      <point x="82" y="557" type="line"/>
      <point x="55" y="508"/>
      <point x="39" y="451"/>
      <point x="39" y="393" type="curve" smooth="yes"/>
      <point x="39" y="307"/>
      <point x="66" y="248"/>
      <point x="111" y="212" type="curve"/>
      <point x="119" y="207" type="line"/>
      <point x="156" y="181"/>
      <point x="203" y="169"/>
      <point x="257" y="169" type="curve" smooth="yes"/>
      <point x="263" y="169" type="line" smooth="yes"/>
      <point x="383" y="169"/>
      <point x="453" y="262"/>
      <point x="453" y="400" type="curve" smooth="yes"/>
      <point x="453" y="489"/>
      <point x="413" y="558"/>
      <point x="340" y="558" type="curve" smooth="yes"/>
      <point x="273" y="558"/>
      <point x="227" y="499"/>
      <point x="227" y="421" type="curve" smooth="yes"/>
      <point x="227" y="304"/>
      <point x="297" y="214"/>
      <point x="297" y="116" type="curve" smooth="yes"/>
      <point x="297" y="45"/>
      <point x="268" y="14"/>
      <point x="218" y="14" type="curve" smooth="yes"/>
      <point x="143" y="14"/>
      <point x="123" y="66"/>
    </contour>
  </outline>
</glyph>
<glyph name="aulengthmarkmlym" format="2">
  <advance width="534"/>
  <unicode hex="0D57"/>
  <outline>
    <contour>
      <point x="361" y="558" type="curve" smooth="yes"/>
      <point x="308" y="558"/>
      <point x="269" y="520"/>
      <point x="258" y="437" type="curve"/>
      <point x="264" y="437" type="line"/>
      <point x="253" y="526"/>
      <point x="212" y="558"/>
      <point x="159" y="558" type="curve" smooth="yes"/>
      <point x="84" y="558"/>
      <point x="39" y="488"/>
      <point x="39" y="395" type="curve" smooth="yes"/>
      <point x="39" y="339"/>
      <point x="47" y="297"/>
      <point x="58" y="253" type="curve"/>
      <point x="83" y="258" type="line"/>
      <point x="72" y="302"/>
      <point x="66" y="346"/>
      <point x="66" y="393" type="curve" smooth="yes"/>
      <point x="66" y="473"/>
      <point x="97" y="532"/>
      <point x="159" y="532" type="curve" smooth="yes"/>
      <point x="188" y="532"/>
      <point x="208" y="519"/>
      <point x="222" y="497" type="curve" smooth="yes"/>
      <point x="240" y="468"/>
      <point x="248" y="424"/>
      <point x="248" y="356" type="curve" smooth="yes"/>
      <point x="248" y="256" type="line"/>
      <point x="274" y="256" type="line"/>
      <point x="274" y="352" type="line" smooth="yes"/>
      <point x="274" y="406"/>
      <point x="278" y="458"/>
      <point x="301" y="497" type="curve" smooth="yes"/>
      <point x="314" y="518"/>
      <point x="332" y="532"/>
      <point x="360" y="532" type="curve" smooth="yes"/>
      <point x="423" y="532"/>
      <point x="462" y="457"/>
      <point x="462" y="302" type="curve" smooth="yes"/>
      <point x="462" y="110"/>
      <point x="426" y="14"/>
      <point x="284" y="14" type="curve" smooth="yes"/>
      <point x="236" y="14"/>
      <point x="205" y="21"/>
      <point x="163" y="41" type="curve"/>
      <point x="151" y="18" type="line"/>
      <point x="199" y="-6"/>
      <point x="242" y="-12"/>
      <point x="284" y="-12" type="curve" smooth="yes"/>
      <point x="440" y="-12"/>
      <point x="489" y="93"/>
      <point x="489" y="302" type="curve" smooth="yes"/>
      <point x="489" y="470"/>
      <point x="440" y="558"/>
    </contour>
  </outline>
</glyph>
<glyph name="uni0D58" format="2">
  <advance width="848"/>
  <unicode hex="0D58"/>
  <outline>
    <contour>
      <point x="423" y="-12" type="curve" smooth="yes"/>
      <point x="490" y="-12"/>
      <point x="536" y="28"/>
      <point x="544" y="133" type="curve" smooth="yes"/>
      <point x="552" y="229" type="line"/>
      <point x="552" y="546" type="line"/>
      <point x="526" y="546" type="line"/>
      <point x="526" y="212" type="line" smooth="yes"/>
      <point x="526" y="120"/>
      <point x="517" y="69"/>
      <point x="486" y="38" type="curve" smooth="yes"/>
      <point x="471" y="23"/>
      <point x="450" y="14"/>
      <point x="423" y="14" type="curve" smooth="yes"/>
      <point x="398" y="14"/>
      <point x="375" y="23"/>
      <point x="360" y="38" type="curve" smooth="yes"/>
      <point x="329" y="69"/>
      <point x="320" y="120"/>
      <point x="320" y="212" type="curve" smooth="yes"/>
      <point x="320" y="546" type="line"/>
      <point x="294" y="546" type="line"/>
      <point x="294" y="209" type="line" smooth="yes"/>
      <point x="294" y="124"/>
      <point x="285" y="74"/>
      <point x="257" y="42" type="curve" smooth="yes"/>
      <point x="241" y="24"/>
      <point x="221" y="14"/>
      <point x="193" y="14" type="curve" smooth="yes"/>
      <point x="113" y="14"/>
      <point x="69" y="119"/>
      <point x="69" y="243" type="curve" smooth="yes"/>
      <point x="69" y="381"/>
      <point x="114" y="464"/>
      <point x="171" y="536" type="curve"/>
      <point x="150" y="552" type="line"/>
      <point x="98" y="482"/>
      <point x="42" y="402"/>
      <point x="42" y="243" type="curve" smooth="yes"/>
      <point x="42" y="94"/>
      <point x="101" y="-12"/>
      <point x="194" y="-12" type="curve" smooth="yes"/>
      <point x="258" y="-12"/>
      <point x="300" y="30"/>
      <point x="310" y="124" type="curve"/>
      <point x="302" y="133" type="line"/>
      <point x="312" y="27"/>
      <point x="356" y="-12"/>
    </contour>
    <contour>
      <point x="654" y="-12" type="curve" smooth="yes"/>
      <point x="744" y="-12"/>
      <point x="800" y="72"/>
      <point x="800" y="315" type="curve" smooth="yes"/>
      <point x="800" y="640"/>
      <point x="698" y="843"/>
      <point x="442" y="843" type="curve" smooth="yes"/>
      <point x="377" y="843"/>
      <point x="317" y="835"/>
      <point x="270" y="823" type="curve"/>
      <point x="275" y="797" type="line"/>
      <point x="333" y="811"/>
      <point x="384" y="817"/>
      <point x="442" y="817" type="curve" smooth="yes"/>
      <point x="684" y="817"/>
      <point x="773" y="624"/>
      <point x="773" y="315" type="curve" smooth="yes"/>
      <point x="773" y="102"/>
      <point x="734" y="14"/>
      <point x="654" y="14" type="curve" smooth="yes"/>
      <point x="625" y="14"/>
      <point x="603" y="26"/>
      <point x="587" y="47" type="curve" smooth="yes"/>
      <point x="562" y="80"/>
      <point x="552" y="126"/>
      <point x="552" y="211" type="curve" smooth="yes"/>
      <point x="552" y="536" type="line"/>
      <point x="534" y="536" type="line"/>
      <point x="534" y="224" type="line"/>
      <point x="536" y="124" type="line"/>
      <point x="548" y="29"/>
      <point x="591" y="-12"/>
    </contour>
  </outline>
</glyph>
<glyph name="uni0D59" format="2">
  <advance width="757"/>
  <unicode hex="0D59"/>
  <outline>
    <contour>
      <point x="252" y="558" type="curve" smooth="yes"/>
      <point x="115" y="558"/>
      <point x="42" y="439"/>
      <point x="42" y="291" type="curve" smooth="yes"/>
      <point x="42" y="132"/>
      <point x="105" y="49"/>
      <point x="156" y="-6" type="curve"/>
      <point x="175" y="12" type="line"/>
      <point x="118" y="73"/>
      <point x="69" y="153"/>
      <point x="69" y="291" type="curve" smooth="yes"/>
      <point x="69" y="420"/>
      <point x="127" y="532"/>
      <point x="252" y="532" type="curve" smooth="yes"/>
      <point x="361" y="532"/>
      <point x="426" y="447"/>
      <point x="441" y="292" type="curve"/>
      <point x="441" y="286" type="line"/>
      <point x="443" y="267"/>
      <point x="443" y="247"/>
      <point x="443" y="226" type="curve" smooth="yes"/>
      <point x="443" y="66"/>
      <point x="407" y="14"/>
      <point x="338" y="14" type="curve" smooth="yes"/>
      <point x="279" y="14"/>
      <point x="250" y="59"/>
      <point x="250" y="130" type="curve" smooth="yes"/>
      <point x="250" y="178"/>
      <point x="268" y="215"/>
      <point x="297" y="238" type="curve" smooth="yes"/>
      <point x="334" y="268"/>
      <point x="384" y="277"/>
      <point x="454" y="277" type="curve" smooth="yes"/>
      <point x="486" y="277" type="line"/>
      <point x="486" y="303" type="line"/>
      <point x="454" y="303" type="line" smooth="yes"/>
      <point x="375" y="303"/>
      <point x="315" y="288"/>
      <point x="275" y="253" type="curve" smooth="yes"/>
      <point x="241" y="223"/>
      <point x="223" y="180"/>
      <point x="223" y="127" type="curve" smooth="yes"/>
      <point x="223" y="55"/>
      <point x="258" y="-12"/>
      <point x="339" y="-12" type="curve" smooth="yes"/>
      <point x="415" y="-12"/>
      <point x="469" y="38"/>
      <point x="469" y="228" type="curve" smooth="yes"/>
      <point x="469" y="428"/>
      <point x="396" y="558"/>
    </contour>
    <contour>
      <point x="634" y="546" type="curve" smooth="yes"/>
      <point x="575" y="546"/>
      <point x="528" y="497"/>
      <point x="528" y="418" type="curve" smooth="yes"/>
      <point x="528" y="366"/>
      <point x="545" y="317"/>
      <point x="567" y="283" type="curve"/>
      <point x="594" y="286" type="line"/>
      <point x="571" y="324"/>
      <point x="555" y="366"/>
      <point x="555" y="413" type="curve" smooth="yes"/>
      <point x="555" y="483"/>
      <point x="585" y="520"/>
      <point x="635" y="520" type="curve" smooth="yes"/>
      <point x="683" y="520"/>
      <point x="708" y="479"/>
      <point x="708" y="420" type="curve" smooth="yes"/>
      <point x="708" y="383"/>
      <point x="699" y="350"/>
      <point x="678" y="331" type="curve" smooth="yes"/>
      <point x="658" y="312"/>
      <point x="632" y="303"/>
      <point x="577" y="303" type="curve" smooth="yes"/>
      <point x="481" y="303" type="line"/>
      <point x="481" y="277" type="line"/>
      <point x="579" y="277" type="line" smooth="yes"/>
      <point x="633" y="277"/>
      <point x="667" y="287"/>
      <point x="695" y="312" type="curve" smooth="yes"/>
      <point x="721" y="335"/>
      <point x="735" y="374"/>
      <point x="735" y="421" type="curve" smooth="yes"/>
      <point x="735" y="494"/>
      <point x="696" y="546"/>
    </contour>
  </outline>
</glyph>
<glyph name="uni0D5A" format="2">
  <advance width="751"/>
  <unicode hex="0D5A"/>
  <outline>
    <contour>
      <point x="502" y="558" type="curve" smooth="yes"/>
      <point x="385" y="558"/>
      <point x="327" y="485"/>
      <point x="315" y="376" type="curve"/>
      <point x="329" y="378" type="line"/>
      <point x="320" y="484"/>
      <point x="291" y="558"/>
      <point x="201" y="558" type="curve" smooth="yes"/>
      <point x="104" y="558"/>
      <point x="42" y="452"/>
      <point x="42" y="303" type="curve" smooth="yes"/>
      <point x="42" y="144"/>
      <point x="98" y="64"/>
      <point x="150" y="-6" type="curve"/>
      <point x="171" y="10" type="line"/>
      <point x="114" y="82"/>
      <point x="69" y="165"/>
      <point x="69" y="303" type="curve" smooth="yes"/>
      <point x="69" y="428"/>
      <point x="115" y="532"/>
      <point x="200" y="532" type="curve" smooth="yes"/>
      <point x="229" y="532"/>
      <point x="250" y="522"/>
      <point x="266" y="504" type="curve" smooth="yes"/>
      <point x="295" y="472"/>
      <point x="306" y="420"/>
      <point x="306" y="335" type="curve" smooth="yes"/>
      <point x="306" y="230" type="line"/>
      <point x="332" y="230" type="line"/>
      <point x="332" y="279" type="line" smooth="yes"/>
      <point x="332" y="381"/>
      <point x="349" y="446"/>
      <point x="384" y="487" type="curve" smooth="yes"/>
      <point x="406" y="513"/>
      <point x="434" y="527"/>
      <point x="469" y="527" type="curve" smooth="yes"/>
      <point x="531" y="527"/>
      <point x="550" y="471"/>
      <point x="550" y="408" type="curve" smooth="yes"/>
      <point x="550" y="283"/>
      <point x="453" y="147"/>
      <point x="339" y="26" type="curve"/>
      <point x="339" y="0" type="line"/>
      <point x="695" y="0" type="line"/>
      <point x="695" y="280" type="line" smooth="yes"/>
      <point x="695" y="379"/>
      <point x="681" y="450"/>
      <point x="639" y="501" type="curve" smooth="yes"/>
      <point x="610" y="536"/>
      <point x="563" y="558"/>
    </contour>
    <contour>
      <point x="577" y="409" type="curve" smooth="yes"/>
      <point x="577" y="471"/>
      <point x="558" y="520"/>
      <point x="506" y="537" type="curve"/>
      <point x="507" y="535" type="line"/>
      <point x="626" y="532"/>
      <point x="669" y="438"/>
      <point x="669" y="269" type="curve" smooth="yes"/>
      <point x="669" y="26" type="line"/>
      <point x="481" y="26" type="line" smooth="yes"/>
      <point x="443" y="26"/>
      <point x="393" y="26"/>
      <point x="364" y="24" type="curve"/>
      <point x="360" y="11" type="line"/>
      <point x="481" y="142"/>
      <point x="577" y="274"/>
    </contour>
  </outline>
</glyph>
<glyph name="uni0D5B" format="2">
  <advance width="680"/>
  <unicode hex="0D5B"/>
  <outline>
    <contour>
      <point x="442" y="-12" type="curve"/>
      <point x="566" y="-12"/>
      <point x="638" y="104"/>
      <point x="638" y="255" type="curve" smooth="yes"/>
      <point x="638" y="414"/>
      <point x="575" y="497"/>
      <point x="524" y="552" type="curve"/>
      <point x="505" y="534" type="line"/>
      <point x="562" y="473"/>
      <point x="611" y="393"/>
      <point x="611" y="255" type="curve" smooth="yes"/>
      <point x="611" y="125"/>
      <point x="555" y="14"/>
      <point x="443" y="14" type="curve" smooth="yes"/>
      <point x="335" y="14"/>
      <point x="278" y="115"/>
      <point x="278" y="255" type="curve" smooth="yes"/>
      <point x="278" y="402"/>
      <point x="338" y="482"/>
      <point x="377" y="525" type="curve"/>
      <point x="365" y="546" type="line"/>
      <point x="65" y="546" type="line"/>
      <point x="65" y="0" type="line"/>
      <point x="91" y="0" type="line"/>
      <point x="91" y="520" type="line"/>
      <point x="352" y="520" type="line"/>
      <point x="355" y="534" type="line"/>
      <point x="316" y="497"/>
      <point x="251" y="413"/>
      <point x="251" y="254" type="curve" smooth="yes"/>
      <point x="251" y="101"/>
      <point x="319" y="-12"/>
    </contour>
  </outline>
</glyph>
<glyph name="uni0D5C" format="2">
  <advance width="1078"/>
  <unicode hex="0D5C"/>
  <outline>
    <contour>
      <point x="652" y="558" type="curve" smooth="yes"/>
      <point x="615" y="558"/>
      <point x="583" y="542"/>
      <point x="563" y="519" type="curve" smooth="yes"/>
      <point x="531" y="483"/>
      <point x="526" y="430"/>
      <point x="526" y="358" type="curve" smooth="yes"/>
      <point x="526" y="193" type="line"/>
      <point x="526" y="119"/>
      <point x="521" y="71"/>
      <point x="494" y="42" type="curve" smooth="yes"/>
      <point x="478" y="24"/>
      <point x="454" y="14"/>
      <point x="426" y="14" type="curve" smooth="yes"/>
      <point x="398" y="14"/>
      <point x="374" y="24"/>
      <point x="358" y="42" type="curve" smooth="yes"/>
      <point x="331" y="71"/>
      <point x="326" y="119"/>
      <point x="326" y="193" type="curve" smooth="yes"/>
      <point x="326" y="344" type="line" smooth="yes"/>
      <point x="326" y="421"/>
      <point x="320" y="481"/>
      <point x="284" y="521" type="curve" smooth="yes"/>
      <point x="265" y="542"/>
      <point x="236" y="558"/>
      <point x="198" y="558" type="curve" smooth="yes"/>
      <point x="98" y="558"/>
      <point x="42" y="459"/>
      <point x="42" y="302" type="curve" smooth="yes"/>
      <point x="42" y="144"/>
      <point x="98" y="64"/>
      <point x="150" y="-7" type="curve"/>
      <point x="171" y="10" type="line"/>
      <point x="114" y="82"/>
      <point x="69" y="165"/>
      <point x="69" y="303" type="curve" smooth="yes"/>
      <point x="69" y="433"/>
      <point x="108" y="532"/>
      <point x="197" y="532" type="curve" smooth="yes"/>
      <point x="226" y="532"/>
      <point x="247" y="522"/>
      <point x="263" y="505" type="curve" smooth="yes"/>
      <point x="291" y="474"/>
      <point x="300" y="425"/>
      <point x="300" y="336" type="curve" smooth="yes"/>
      <point x="300" y="188" type="line" smooth="yes"/>
      <point x="300" y="117"/>
      <point x="305" y="63"/>
      <point x="337" y="27" type="curve" smooth="yes"/>
      <point x="357" y="4"/>
      <point x="389" y="-12"/>
      <point x="426" y="-12" type="curve" smooth="yes"/>
      <point x="463" y="-12"/>
      <point x="495" y="4"/>
      <point x="515" y="27" type="curve" smooth="yes"/>
      <point x="547" y="63"/>
      <point x="552" y="116"/>
      <point x="552" y="188" type="curve" smooth="yes"/>
      <point x="552" y="353" type="line" smooth="yes"/>
      <point x="552" y="427"/>
      <point x="557" y="475"/>
      <point x="584" y="504" type="curve" smooth="yes"/>
      <point x="600" y="522"/>
      <point x="624" y="532"/>
      <point x="652" y="532" type="curve" smooth="yes"/>
      <point x="680" y="532"/>
      <point x="704" y="522"/>
      <point x="720" y="504" type="curve" smooth="yes"/>
      <point x="747" y="475"/>
      <point x="752" y="427"/>
      <point x="752" y="353" type="curve" smooth="yes"/>
      <point x="752" y="202" type="line" smooth="yes"/>
      <point x="752" y="125"/>
      <point x="758" y="65"/>
      <point x="794" y="25" type="curve" smooth="yes"/>
      <point x="813" y="4"/>
      <point x="842" y="-12"/>
      <point x="880" y="-12" type="curve" smooth="yes"/>
      <point x="980" y="-12"/>
      <point x="1036" y="87"/>
      <point x="1036" y="244" type="curve" smooth="yes"/>
      <point x="1036" y="402"/>
      <point x="980" y="482"/>
      <point x="928" y="553" type="curve"/>
      <point x="907" y="536" type="line"/>
      <point x="964" y="464"/>
      <point x="1009" y="381"/>
      <point x="1009" y="243" type="curve" smooth="yes"/>
      <point x="1009" y="113"/>
      <point x="970" y="14"/>
      <point x="881" y="14" type="curve" smooth="yes"/>
      <point x="852" y="14"/>
      <point x="831" y="24"/>
      <point x="815" y="41" type="curve" smooth="yes"/>
      <point x="787" y="72"/>
      <point x="778" y="121"/>
      <point x="778" y="210" type="curve" smooth="yes"/>
      <point x="778" y="358" type="line" smooth="yes"/>
      <point x="778" y="429"/>
      <point x="773" y="483"/>
      <point x="741" y="519" type="curve" smooth="yes"/>
      <point x="721" y="542"/>
      <point x="689" y="558"/>
    </contour>
  </outline>
</glyph>
